<svg xmlns="http://www.w3.org/2000/svg" height="579" viewBox="0 0 611 579" width="611" version="1.1">
<g stroke="#6d150e" transform="matrix(0 1 -1 0 726.06 -8.3439)">
<radialGradient id="SVGID_1_" gradientUnits="userSpaceOnUse" cy="418.1" cx="882.69" r="681.26">
<stop stop-color="#6D150E" offset=".0056"/>
<stop stop-color="#6E150F" offset=".3346"/>
<stop stop-color="#741610" offset=".5093"/>
<stop stop-color="#7E1712" offset=".6477"/>
<stop stop-color="#8C1814" offset=".767"/>
<stop stop-color="#9F1916" offset=".8741"/>
<stop stop-color="#B61817" offset=".971"/>
<stop stop-color="#BF1818" offset="1"/>
</radialGradient>
<path d="m561.29 380.3c-6.15-11.63-15.59-21.49-23.26-32.07-6.25-8.62-12.42-17.24-18.7-25.83-11.35-15.51-23.06-30.91-32.98-47.35-7.64-12.65-9.07-26.43-15.14-39.55-7.71 0.22-13.69 7.61-16.25 14.11-0.58 1.46-1.14 2.95-1.67 4.44-3.47-9.71-6.24-18.67-5.68-29.47 0.64-12.27 3.34-31.05-5.78-40.93-12.29-13.29-44.98-19.78-62.42-20.01-12.61-0.16-30.59 10.83-34.29-8.37-2.58 2.14-4.63 6.18-6.78 8.95-7.65-9.39-4.34-39.2-21.47-25.69-6.07 4.78-8.02 9.57-17.23 11.53-7.35 1.56-17.45 0.65-25.19 1.04-20.1 1-42.41 10.56-62.18 17.59-14.74 5.23-31.02 12.19-34.76 29.17l-5.56 6.47c-1.01 1.77-2.36 3.97-3.7 6.41-2.55 0.77-5.19 1.6-8.01 2.35-7.94 2.09-16.2 4.83-23.25 1.44-4.7-2.27-6.93-7.75-12.53-6.57-4.3 0.91-8.06 7.73-10.54 11.02-7.25 9.56-14.106 19.75-21.921 28.85-3.868 4.5-7.987 8.08-13.237 10.83-3.518 1.84-8.899 2.12-12.008 4.12-15.665 10.07-12.075 34.48-29.333 41.49 1.691 9.68 4.487 19.25 3.202 29.51-1.378 10.97-3.005 14.51 4.948 23.48 6.211 7.01 14.021 12.18 21.333 17.84-4.239 1.74-9.077 2.12-15.547-0.31-3.577 9.27-14.719 14.32-18.861 22.98-4.368 9.13-0.722 24.66-0.138 34.79 0.761 13.2 0.875 27.6-0.644 40.72-1.219 10.54-4.366 20.51-2.85 31.3 1.688 12 9.433 22.77 12.134 33.84 2.585 10.59-6.453 24.22-0.803 34.29 5.371 9.56 21.838 14.84 30.992 19.35 14.65 7.21 17.167 9.57 20.109 24.81 2.45 12.7 7.438 11.63 18.134 16.79 6.58 3.18 9.48 9.8 17.06 9.76 10.24-0.06 23.04-11.21 32.7-15.25 2.83 2.29 6.33 4.39 7.54 8.09 2.09 6.42-3.36 12.34-4.18 18.82 19.77-7.91 14.03 10.92 24.95 21.68 11.67 11.5 33.84 10.94 48.93 12.36 15.75 1.48 33.61-4.09 49.05-1.08 14.89 2.89 24.83 1.41 36.15 12.74 5.05 5.06 4.24 5.78 10.79 5.01 10.16-1.2 23.07-14.37 30.77-20.11 24.62-18.35 42.74-40.57 60.15-65.61 12.06-17.35 24.34-26.59 42.81-36.43 10.56-5.63 16.77-12.14 21.57-23.54 2.64-6.3 4.74-12.55 5.95-18.98 3.3-3.59 6.41-7.31 9.27-10.58 9.81-11.22 20.07-22.4 27.98-35.1 8.56-13.72 18.28-25.88 22.06-42.01 2.59-11.1 0.08-20.48 5.28-30.63 3.85-7.51 8.47-16.32 9.02-24.96 0.38-5.85-3.18-12.22-5.99-17.54zm-169.28 108.41c-26.5 11.22-51.63 27.01-78.88 36.67-27.92 9.9-54.86 17.26-83.39 22.13l-39.09-116.06c-3.16-4.66-6.31-9.15-9.53-13.49 2.01-7.93 4.42-15.9 8.58-22.33 9.58-14.81 22.91-27.3 32.29-42.25 5.91-9.41 10.32-20.31 11.14-31.4 0.7-9.43-2.75-21.85 1.05-30.63 4.99-11.56 13.95-16.56 8.89-30.81-1.91-5.37-4.86-9.74-8.4-13.56 10.59-0.41 19.96-0.44 30.01 0.92 8.52 6.35 21.87 6.65 31.61 11.79 11.77 6.22 18.57 18.29 29.96 25.1 13.22 7.91 19.06 5.81 33.04 2.27 12.53-3.17 22.14 1.84 32.51 8.59 15.34 9.98 34.15 37.38 49 15.27 3.27-4.88 6.56-9.23 9.4-13.46-1.07 2.96-2.79 5.52-3.31 8.75-0.81 5.15 2.4 8.08 5.93 12.08 8.81 9.99 16.98 20.3 21.49 32.97l1.24 7.47c0.71 8.09 0.69 16.01 1.95 23.67 1.32 8.04 3.75 15.2 1.64 23.24-1.11 4.26-2.96 4.81 1.73 8.43 1.92 1.47 4.49 2.2 6.44 3.67 5.95 4.47 9.59 12.1 9.56 19.56-0.02 3.24-1.41 6.81-3.48 10.44-6.65 1.43-13.09 3.23-17.81 3.63l-36.05 13.34c-15.7 8.42-31.15 17.07-47.52 24z" stroke-width="40" fill="url(#SVGID_1_)"/>
<radialGradient id="SVGID_2_" gradientUnits="userSpaceOnUse" cy="-1008" cx="22.166" gradientTransform="matrix(.3668 .9303 .9303 -.3668 1211.3 27.305)" r="268.73">
<stop stop-color="#6D150E" offset=".0056"/>
<stop stop-color="#6E150F" offset=".3346"/>
<stop stop-color="#741610" offset=".5093"/>
<stop stop-color="#7E1712" offset=".6477"/>
<stop stop-color="#8C1814" offset=".767"/>
<stop stop-color="#9F1916" offset=".8741"/>
<stop stop-color="#B61817" offset=".971"/>
<stop stop-color="#BF1818" offset="1"/>
</radialGradient>
<path d="m468.22 520.64c-1.11-5.03-2.84-6.97-7.53-7.55-6.18-0.76-11.27 2.5-7.08-6.47 3.36-7.19 8.36-13.33 12.81-19.69 4.18-5.97 7.4-12.33 11.56-18.29 5.82-8.35 18.84-21.39 18.89-31.34 0.04-7.46-3.6-15.09-9.56-19.56-1.95-1.47-4.52-2.2-6.44-3.68-4.68-3.61-2.84-4.17-1.73-8.42 2.11-8.05-0.32-15.2-1.64-23.24-1.25-7.66-1.24-15.58-1.95-23.67l-1.23-7.47c-4.52-12.67-12.69-22.98-21.5-32.97-3.53-4.01-6.74-6.94-5.92-12.08 0.76-4.83 4.22-8.13 4.17-13.54-0.07-8.29-3.65-15.04-2.03-23.53 1.26-6.64 3.43-13.21 5.92-19.53 2.56-6.5 8.54-13.89 16.26-14.11 6.06 13.12 7.49 26.9 15.13 39.55 9.93 16.44 21.64 31.84 32.98 47.35 6.29 8.59 12.45 17.21 18.7 25.83 7.67 10.58 17.11 20.44 23.26 32.07 2.81 5.32 6.37 11.69 5.99 17.54-0.55 8.64-5.17 17.46-9.02 24.96-5.2 10.15-2.68 19.53-5.28 30.64-3.78 16.13-13.5 28.28-22.05 42-7.92 12.7-18.17 23.88-27.99 35.1-6.46 7.38-14.17 17.08-22.51 22.24-3.79 2.35-9.43 4.5-13.77 3.74-4.25-10.19 3.96-25 1.56-35.88z" stroke-width="2" fill="url(#SVGID_2_)"/>
<radialGradient id="SVGID_3_" gradientUnits="userSpaceOnUse" cy="381.97" cx="-2398.1" gradientTransform="matrix(.9423 -.3346 -.3346 -.9423 2636.1 -34.59)" r="254.75">
<stop stop-color="#6D150E" offset=".0056"/>
<stop stop-color="#6E150F" offset=".3346"/>
<stop stop-color="#741610" offset=".5093"/>
<stop stop-color="#7E1712" offset=".6477"/>
<stop stop-color="#8C1814" offset=".767"/>
<stop stop-color="#9F1916" offset=".8741"/>
<stop stop-color="#B61817" offset=".971"/>
<stop stop-color="#BF1818" offset="1"/>
</radialGradient>
<path d="m447.61 224.58c-0.7 13.48 3.78 24.1 8.36 36.87 7.83 21.88-3.72 32.41-15.17 49.47-14.85 22.11-33.66-5.29-49-15.27-10.38-6.75-19.98-11.76-32.51-8.59-13.99 3.54-19.82 5.63-33.04-2.28-11.39-6.81-18.19-18.88-29.96-25.09-9.74-5.15-23.1-5.44-31.62-11.79-10.18-1.38-19.67-1.34-30.43-0.91-14.12 0.56-22.16-7.55-35.54-12.06-8.32-2.81-22.33 4.85-29.61 1.55-13.65-6.19-1.87-23.92 2.86-32.15l5.56-6.47c3.74-16.98 20.02-23.94 34.76-29.17 19.77-7.02 42.08-16.58 62.18-17.59 7.74-0.39 17.84 0.52 25.19-1.04 9.21-1.96 11.16-6.75 17.23-11.53 17.13-13.51 13.82 16.3 21.47 25.69 2.15-2.77 4.2-6.81 6.78-8.95 3.7 19.2 21.68 8.21 34.29 8.37 17.44 0.23 50.13 6.72 62.42 20.01 9.12 9.88 6.42 28.67 5.78 40.93z" stroke-width="2" fill="url(#SVGID_3_)"/>
<radialGradient id="SVGID_4_" gradientUnits="userSpaceOnUse" cy="568.59" cx="223.12" gradientTransform="matrix(-.8812 .4728 -.4728 -.8812 746.68 800.74)" r="271.66">
<stop stop-color="#6D150E" offset=".0056"/>
<stop stop-color="#6E150F" offset=".3346"/>
<stop stop-color="#741610" offset=".5093"/>
<stop stop-color="#7E1712" offset=".6477"/>
<stop stop-color="#8C1814" offset=".767"/>
<stop stop-color="#9F1916" offset=".8741"/>
<stop stop-color="#B61817" offset=".971"/>
<stop stop-color="#BF1818" offset="1"/>
</radialGradient>
<path d="m162.55 655.08c19.78-7.91 14.03 10.92 24.95 21.68 11.67 11.5 33.84 10.94 48.94 12.36 15.74 1.49 33.61-4.09 49.05-1.08 14.88 2.89 24.83 1.41 36.14 12.74 5.05 5.06 4.24 5.79 10.8 5.01 10.15-1.2 23.07-14.37 30.76-20.1 24.63-18.36 42.74-40.58 60.15-65.61 12.06-17.36 24.35-26.6 42.82-36.44 10.55-5.63 16.77-12.14 21.56-23.54 2.99-7.12 5.28-14.16 6.39-21.49 0.83-5.5-0.58-12.57 0.88-17.95 3.83-14.05 16.59-15.35 24.64-24.76 6.59-7.71 7.68-36.05 1.24-44.65-8.68-11.61-32.89-0.94-45.29 0.12l-36.05 13.34c-15.69 8.42-31.15 17.07-47.52 24-26.5 11.22-51.62 27.02-78.88 36.68-31.94 11.32-62.6 19.32-95.82 24.07-13.55 1.94-25.96 9.23-37.68 16.5 0.04 7.83-4.01 16.88-7.23 24.34-3.02 7-17.22 24.42-17.18 31.39 0.04 6.51 9.37 8.02 11.51 14.58 2.09 6.42-3.36 12.33-4.18 18.81z" stroke-width="2" fill="url(#SVGID_4_)"/>
<radialGradient id="SVGID_5_" gradientUnits="userSpaceOnUse" cy="745.7" cx="-2502.2" gradientTransform="matrix(.2929 -.9561 -.9561 -.2929 1750.5 -1765.3)" r="270.78">
<stop stop-color="#6D150E" offset=".0056"/>
<stop stop-color="#6E150F" offset=".3346"/>
<stop stop-color="#741610" offset=".5093"/>
<stop stop-color="#7E1712" offset=".6477"/>
<stop stop-color="#8C1814" offset=".767"/>
<stop stop-color="#9F1916" offset=".8741"/>
<stop stop-color="#B61817" offset=".971"/>
<stop stop-color="#BF1818" offset="1"/>
</radialGradient>
<path d="m123.02 371.14c6.03 3.15 12.21 4.46 18.41 7.07 5.91 2.49 8.88 6.01 13.81 10.52 13.81 12.63 24.56 26.71 35.41 42.72l45.18 134.11c-5.76 18.81-15.34 48.07-36.62 52.63-13.52 2.9-27.11 4.61-39.99 9.97-9.67 4.04-22.48 15.2-32.73 15.26-7.58 0.04-10.48-6.58-17.06-9.76-10.693-5.16-15.682-4.09-18.132-16.78-2.942-15.25-5.459-17.6-20.109-24.82-9.154-4.5-25.621-9.78-30.992-19.35-5.65-10.06 3.388-23.7 0.803-34.29-2.701-11.06-10.446-21.84-12.134-33.84-1.517-10.79 1.631-20.75 2.85-31.29 1.519-13.13 1.404-27.52 0.644-40.73-0.584-10.13-4.23-25.65 0.138-34.78 4.143-8.66 15.284-13.72 18.861-22.99 17.531 6.59 23.098-7.4 37.18-13.6 14.281-6.28 22.901 3.88 34.481 9.95z" stroke-width="2" fill="url(#SVGID_5_)"/>
<radialGradient id="SVGID_6_" gradientUnits="userSpaceOnUse" cy="-40.031" cx="-901.02" gradientTransform="matrix(.796 .6053 .6053 -.796 1049.8 964.58)" r="267.01">
<stop stop-color="#6D150E" offset=".0056"/>
<stop stop-color="#6E150F" offset=".3346"/>
<stop stop-color="#741610" offset=".5093"/>
<stop stop-color="#7E1712" offset=".6477"/>
<stop stop-color="#8C1814" offset=".767"/>
<stop stop-color="#9F1916" offset=".8741"/>
<stop stop-color="#B61817" offset=".971"/>
<stop stop-color="#BF1818" offset="1"/>
</radialGradient>
<path d="m177.9 430.96-33.15 47.53c-14.81-18.77-31.99-33.3-51.079-47.81-7.807-5.94-15.745-8.34-12.579-18.21 3.519-10.98 8.713-9.45 2.069-20.45-9.157-15.15-26.107-21.8-37.59-34.76-7.953-8.97-6.326-12.51-4.948-23.48 1.285-10.26-1.511-19.83-3.202-29.51 17.258-7.01 13.668-31.42 29.333-41.49 3.108-2 8.49-2.28 12.008-4.12 5.25-2.75 9.369-6.33 13.237-10.83 7.815-9.1 14.671-19.29 21.921-28.85 2.48-3.29 6.24-10.11 10.54-11.02 5.6-1.18 7.83 4.31 12.53 6.57 7.05 3.39 15.31 0.65 23.25-1.44 10.53-2.78 18.4-6.75 29.46-4.31 11.5 2.53 9.85 9.19 17.87 16.35 12.51 11.18 29.38 18.18 35.5 35.41 5.06 14.25-3.9 19.25-8.9 30.81-3.79 8.77-0.34 21.2-1.04 30.63-0.82 11.09-5.23 21.99-11.14 31.4-9.38 14.95-22.71 27.44-32.29 42.25-6.49 10.03-8.73 23.82-11.8 35.33z" stroke-width="2" fill="url(#SVGID_6_)"/>
<radialGradient id="SVGID_7_" gradientUnits="userSpaceOnUse" cy="392.13" cx="-2430.1" gradientTransform="matrix(.9423 -.3346 -.3346 -.9423 2636.1 -34.59)" r="243.98">
<stop stop-color="#6D150E" offset=".0056"/>
<stop stop-color="#6E150F" offset=".3346"/>
<stop stop-color="#741610" offset=".5093"/>
<stop stop-color="#7E1712" offset=".6477"/>
<stop stop-color="#8C1814" offset=".767"/>
<stop stop-color="#9F1916" offset=".8741"/>
<stop stop-color="#B61817" offset=".971"/>
<stop stop-color="#BF1818" offset="1"/>
</radialGradient>
<path d="m505.29 368.78c-0.57 7.58-5.78 14.22-6.06 21.67-0.22 5.73 3.67 10.51 4.05 16.09 0.63 9.1-4.74 18.56-4.74 27.92 0 8.38 3.46 14.49 6.08 22.1 2.28 6.59 2.26 8.7-2.98 13.25-11.02 9.56-27.14 13.72-40.62 18.51-12.4 4.4-29.73 7.33-40.03 16.04-7.9 6.67-11.07 17.68-19.65 23.54-10.33 7.06-25.17-0.73-35.67 5.07-4.41 2.43-6.46 6.8-9.87 10.2-5.69 5.67-14.58 4.08-22.61 5.79-7.21 1.53-30.66 14.34-34.82 2.73-3.65-10.21 14.1-23.69 18.34-31.76l4.59-4.44c4.64-5.61 9.52-11.71 12.42-18.42 4.33-10.06 7.05-21.15 10.95-31.53 3.77-10.04 7.55-19.5 15.45-26.8 3.35-3.11 8.31-6.45 10.66-10.28 2.64-4.3 0.78-10.27 0.58-15.34-0.23-6.22 1.5-9.72 4.22-14.95 3.69-7.12 3.91-14.41 3.24-22.49-1.63-19.81-7.44-39.15-2.7-58.5 1.25-5.11 5.57-11.21 5.9-16.28 0.46-7.03-6.92-14.08-11.59-18.35-6.2-5.68-11.94-9.03-18.81-13.5-5.3-3.45-9.92-6.67-11.38-13.28 23.34-4.83 37.04 12.45 53.92 24.43 13.45 9.54 25.6 22.31 40.69 28.87 9.75 4.25 17.43-4.34 27.19-4.04 12.35 0.37 16.03 14.67 23.91 21.56 7.16 6.27 10.7 18.09 15.24 26.69 2.63 4.98 4.51 10.04 4.1 15.5z" stroke-width="2" fill="url(#SVGID_7_)"/>
<radialGradient id="SVGID_8_" gradientUnits="userSpaceOnUse" cy="-161.9" cx="-2008.5" gradientTransform="matrix(.9896 .1437 .1437 -.9896 2279.3 537.83)" r="191.87">
<stop stop-color="#801710" offset="0"/>
<stop stop-color="#811810" offset=".3591"/>
<stop stop-color="#871811" offset=".5497"/>
<stop stop-color="#911913" offset=".7007"/>
<stop stop-color="#A01915" offset=".8311"/>
<stop stop-color="#B31817" offset=".9468"/>
<stop stop-color="#BF1818" offset="1"/>
</radialGradient>
<path d="m402.84 504.55c-8.25 16.93-15.87 36.34-27.6 50.97-2.92 3.65-5.57 6.46-10.02 8.17-3.89 1.48-5.52 0.32-9.55 1.06-7.37 1.33-9.67 9.23-18.29 10.21-6.77 0.76-13.65-1.68-20.52-0.82-20.2 2.51-38.7 14.96-59.48 16.24-10.76 0.67-23.61-3.27-34.21-4.81-16.8-2.43-31.88-5.99-47.85-10.93-10.73-3.31-21.03-3.06-31.87-5.45-11.39-2.52-15.35-8.12-23.23-15.41-7.12-6.59-16.88-9.03-24.47-14.98-8.251-6.47-15.987-18.28-20.813-27.65l-3.556-14.14c-2.563-18.72-6.78-36.09-3.869-56.13 2.32-15.98 3.887-32.34 9.661-47.49 9.226-24.21 19.262-46.3 22.947-72.19 4.53-31.83 43.96-55.77 73.12-62.66 8.45-2 20.17-0.5 27.9-3.31 3.96-1.44 6.38-6.43 9.84-8.79 11.79-8.02 33.76 2.8 47.94 1.94 9.53-0.58 18.9-5.24 28.26-6.98 18.59-3.46 42.36 1.48 59.36 9.24 18.25 8.32 35.44 21.11 50.28 34.52 11.83 10.68 17.07 22.63 23.95 36.42 5 10.01 10.87 18.32 11.67 29.11 0.47 6.37-1.34 12.81-0.58 19.17 1.76 14.7 12.52 27.46 9.89 43.63-5.37 33.1-24.34 61.14-38.91 91.06z" stroke-width="2" fill="url(#SVGID_8_)"/>
<radialGradient id="SVGID_9_" gradientUnits="userSpaceOnUse" cy="380.6" cx="-2388.1" gradientTransform="matrix(.9423 -.3346 -.3346 -.9423 2636.1 -34.59)" r="24.567">
<stop stop-color="#6D150E" offset=".0056"/>
<stop stop-color="#6E150F" offset=".3346"/>
<stop stop-color="#741610" offset=".5093"/>
<stop stop-color="#7E1712" offset=".6477"/>
<stop stop-color="#8C1814" offset=".767"/>
<stop stop-color="#9F1916" offset=".8741"/>
<stop stop-color="#B61817" offset=".971"/>
<stop stop-color="#BF1818" offset="1"/>
</radialGradient>
<path d="m271.94 405.96c0.69 0.28 1.42 3.02 1.55 3.72 0.52 2.78-0.58 5.73-1.98 8.13-2.46 4.23-4.23 6.78-9.52 7.69-4.63 0.8-8.71-1.19-12.65-3.46-3.37-1.95-7.76-3.86-10.23-6.84-5.58-6.72-6.49-20.3-1.02-27.12 4.65-5.81 13.71-10.74 21.37-8.04 3.69 1.31 6.69 4.04 9.14 7.07 0.86 1.06 4.41 7.82 1.89 8.26-2.47-1.77-3.04-5.53-5.31-7.63-5.48-5.05-13.54-2.97-19.3 0.55-6.79 4.15-8.3 11.25-5.19 18.6 1.45 3.42 4.2 5.51 7.42 6.78 3.07 1.22 5.68 3.49 8.73 4.31 2.81 0.76 6.46-0.37 8.8-1.96 1.74-1.19 5.12-5.41 3.97-7.77l0.5-0.18c0.45-0.77 0.7-2.57 1.83-2.11z" stroke-width="2" fill="url(#SVGID_9_)"/>
<radialGradient id="SVGID_10_" gradientUnits="userSpaceOnUse" cy="384.72" cx="-2384.1" gradientTransform="matrix(.9423 -.3346 -.3346 -.9423 2636.1 -34.59)" r="34.899">
<stop stop-color="#8F1913" offset=".0056"/>
<stop stop-color="#911913" offset=".3962"/>
<stop stop-color="#971914" offset=".6036"/>
<stop stop-color="#A21915" offset=".7678"/>
<stop stop-color="#B11817" offset=".9087"/>
<stop stop-color="#BF1818" offset="1"/>
</radialGradient>
<path d="m239.59 421.54c-1.53-3.11-4.05-10.16-2.69-13.39 3.37 2.54 5.05 6.87 8.01 10.05 1.66 1.79 3.58 3.29 5.85 4.13 2.92 1.09 5.84 2.41 8.79 3.43 7.93 2.76 18.74 0.81 21.14-8.44 0.77-2.98 1.1-5.56 0.22-8.5-0.56-1.84-1.74-5.34-3.95-5.33l-0.74-0.49c-1.13-3.22-0.06-5.94 3.84-6.04 3.73-0.1 6.52 4.66 7.62 7.77 1.07 3 1.04 5.37 0.73 8.36-0.4 3.9 0.22 8.16-0.02 12.19-0.05 0.85-0.16 1.62-0.24 2.45-1.67 1.14-2.49-0.79-3.26 1.37-0.71 1.97-0.59 3.25-1.87 5.16-3.65 5.46-10.33 3.62-15.8 6.21-2.05 0.97-4.22 2.47-6.59 1.7-2.46-0.79-4.54-2.69-7.02-3.59-2.42-0.88-4.78-1.9-6.23-4.1-1.2-1.81 0-2.47-0.4-4.26-0.28-1.31-2.06-2.37-3.01-3.24-1.69-1.55-3.35-3.35-4.38-5.44z" stroke-width="2" fill="url(#SVGID_10_)"/>
<radialGradient id="SVGID_11_" gradientUnits="userSpaceOnUse" cy="378.37" cx="-2392.5" gradientTransform="matrix(.9423 -.3346 -.3346 -.9423 2636.1 -34.59)" r="54.947">
<stop stop-color="#6D150E" offset=".0056"/>
<stop stop-color="#6E150F" offset=".3346"/>
<stop stop-color="#741610" offset=".5093"/>
<stop stop-color="#7E1712" offset=".6477"/>
<stop stop-color="#8C1814" offset=".767"/>
<stop stop-color="#9F1916" offset=".8741"/>
<stop stop-color="#B61817" offset=".971"/>
<stop stop-color="#BF1818" offset="1"/>
</radialGradient>
<path d="m315.82 417.69c1 9.8-5.06 20.05-12.64 25.91-2.4 1.87-5.43 2.91-8.08 4.36-2.48 1.35-4.78 3.05-7.3 4.29-4.47 2.21-9.05 4.39-14.13 4.73-8.82 0.6-16.87-2.72-24.64-6.36-2.67-1.25-5.19-2.57-7.79-3.95-1.28-0.68-2.63-1.21-3.43-2.32 0.6-0.18 1.27-0.31 1.92-0.34 9.55-0.4 19.31 2.88 28.76-0.48 7.95-2.82 15.81-4.99 22.38-10.23 5.22-4.16 6.87-9.52 6.37-16.02-0.45-5.91-1.95-11.55-5.51-16.42-1.97-2.69-3.86-5.61-6.42-7.77-0.89-0.75-1.89-1.31-2.91-1.66-0.81-0.29-1.7-0.16-2.36-0.81-1.03-1.02-1.69-3.94-2.42-5.28-1.1-1.99-2.5-3.97-4.34-5.23-3.75-2.58-9.93-4.08-14.51-4.15-7.67-0.12-17.21 4.73-19.02 12.31l-0.55 0.57c-0.73 1.26-0.72 3.38-1.04 4.84-0.4 1.87-0.7 3.65-1.08 5.51-0.34 1.69-0.32 3.46-0.77 5.08-0.45 1.66-0.75 1.66-2.17 2.45-1.75 0.97-2.27 1.34-2.95-0.94-0.62-2.08-0.81-4.34-2.02-6.24-1.17-1.84-2.45-2.52-3.14-4.72-1.46-4.72-0.11-9.9 2.58-13.97 3.1-4.69 8.69-8.01 12.86-11.71 2.83-2.52 5.8-5.13 8.94-7.26 2.72-1.86 6.53-2.86 9.64-3.79 3.55-1.05 7.6-2.34 11.32-1.84 3.49 0.47 6.77 1.93 10.16 2.82 7.48 1.95 16.23 1.34 21.7 7.57 4.26 4.84 5.64 10.89 6.66 17.11 0.77 4.66 1.6 9.21 2.51 13.83 0.55 2.76-0.23 5.25 0 7.9 0.37 4.12 2.99 8 3.42 12.21z" stroke-width="2" fill="url(#SVGID_11_)"/>
<radialGradient id="SVGID_12_" gradientUnits="userSpaceOnUse" cy="370.62" cx="-2362.6" gradientTransform="matrix(.9423 -.3346 -.3346 -.9423 2636.1 -34.59)" r="84.259">
<stop stop-color="#6D150E" offset=".0056"/>
<stop stop-color="#6E150F" offset=".3346"/>
<stop stop-color="#741610" offset=".5093"/>
<stop stop-color="#7E1712" offset=".6477"/>
<stop stop-color="#8C1814" offset=".767"/>
<stop stop-color="#9F1916" offset=".8741"/>
<stop stop-color="#B61817" offset=".971"/>
<stop stop-color="#BF1818" offset="1"/>
</radialGradient>
<path d="m233.58 442.12c-5.42-3.07-10.41-10.3-14.08-15.22-5.42-7.27-8.72-15.57-13.96-22.56-3.22-4.3-5.33-9.89-6.49-15.2-0.53-2.43-1.34-6.19-0.28-8.55 0.76-1.71 1.84-1.71 3.01-2.87 2.6-2.57 1.23-5.03 2.6-7.88 0.89-1.83 2.48-1.88 4.04-2.83 2.1-1.27 3.58-2.88 5.13-4.7 8.8-10.32 19.11-16.68 32.29-20.6-0.12 2.7 3.93 1.29 5.9 1.59 3.11 3.24 4.96 5.51 9.62 6.17 4.34 0.61 13.76 0.04 16.19 4.3-4.07 2.48-12.25-0.93-17.1-0.22-6.53 0.95-11.56 5.16-16.63 8.98-9.7 7.32-19.11 10.78-20.83 24.07-0.71 5.52-0.23 9.3 2.89 14.01 1.53 2.3 2.48 4.86 3.72 7.38 1.45 2.96 2.7 2.96 4.74 5.1 1.79 1.88 2.41 5.63 3.29 8.11 1.01 2.85 2.25 4.69 4.2 6.88 3.57 3.99 1.38 9.12 6.24 12.17l1.02 0.98c-4.14 1.47-11.54 3.14-15.51 0.89z" stroke-width="2" fill="url(#SVGID_12_)"/>
<radialGradient id="SVGID_13_" gradientUnits="userSpaceOnUse" cy="364.09" cx="-2369.8" gradientTransform="matrix(.9423 -.3346 -.3346 -.9423 2636.1 -34.59)" r="114.32">
<stop stop-color="#8F1913" offset=".0056"/>
<stop stop-color="#911913" offset=".3962"/>
<stop stop-color="#971914" offset=".6036"/>
<stop stop-color="#A21915" offset=".7678"/>
<stop stop-color="#B11817" offset=".9087"/>
<stop stop-color="#BF1818" offset="1"/>
</radialGradient>
<path d="m179.29 442.58c-5.29-0.05-9.26-11.86-11.17-15.68-5.11-10.19-11.62-19.61-12.32-31.41-0.44-7.6-1.63-13.45 3.13-19.68 4.61-6.05 7.43-13.26 12.01-19.33 8.31-11.05 22.92-18.78 35.69-23.32 4.77-1.69 9.21-3.36 13.58-5.9 1.66-0.97 5.52-3.63 7.59-3.24 1.17 0.22 2.69 2.02 3.66 2.76 2.72 2.04 5.61 2.6 7.13 5.73 0.95 1.95 3.77 5.34 3.32 7.22-0.85 3.63-13.88 6.28-17.07 7.73-7.1 3.23-11.3 7.88-16.9 12.68-3.29 2.82-4.32 2.04-7.55 0.71-3-1.25-5.35-0.48-8.52 0.97-9.91 4.53-17.81 13.73-22.67 23.12l0.85 2.38c-0.06 10.56-0.23 20.9 2.49 31.55 1.18 4.63 2.95 9.2 4.55 13.72 1.13 3.18 3.15 6.74 2.2 9.99z" stroke-width="2" fill="url(#SVGID_13_)"/>
<radialGradient id="SVGID_14_" gradientUnits="userSpaceOnUse" cy="375.73" cx="-2443.3" gradientTransform="matrix(.9423 -.3346 -.3346 -.9423 2636.1 -34.59)" r="160.96">
<stop stop-color="#6D150E" offset=".0056"/>
<stop stop-color="#6E150F" offset=".3346"/>
<stop stop-color="#741610" offset=".5093"/>
<stop stop-color="#7E1712" offset=".6477"/>
<stop stop-color="#8C1814" offset=".767"/>
<stop stop-color="#9F1916" offset=".8741"/>
<stop stop-color="#B61817" offset=".971"/>
<stop stop-color="#BF1818" offset="1"/>
</radialGradient>
<path d="m203.64 313.75 1.86 0.46c-1-11.89 34.42-15.79 41.79-16.53 20.53-2.05 41.24-0.01 60.69 7.64 14.85 5.84 29.38 9.07 41.73 19.68 10.41 8.94 14.33 20.18 18.87 32.9 8.72 24.38 4.97 50.15-8.54 72.27-4.4 7.21-10.02 13.84-14.34 20.98-2.4 3.98-4.77 14.79-10.07 15.96-3.53-6.48 4.28-21.58 5.65-28.18 1.92-9.31 3.27-18.58 5.27-27.78 1.34-6.15 2.01-13.21 0.45-19.24-1.29-4.94-4.95-8.52-6.31-12.93-1.19-3.84 0.13-8.33-1.05-12.53-2.46-8.73-6.8-16.93-10.28-25.43-4.8-11.72-16.22-15.4-27.89-18.85-9.78-2.9-19.53 0.37-29.05-2.43-9.97-2.92-16.25-6.1-26.7-1.31-3.62 1.66-8.89 6.09-12.99 4.65-2.9-1.01-5.38-5.78-9.44-6.23-5.17-0.56-9.31 3.3-14.32 3.98-4.72 0.65-8.82-2.2-5.33-7.08z" stroke-width="2" fill="url(#SVGID_14_)"/>
<radialGradient id="SVGID_15_" gradientUnits="userSpaceOnUse" cy="369.28" cx="-2384.2" gradientTransform="matrix(.9423 -.3346 -.3346 -.9423 2636.1 -34.59)" r="89.979">
<stop stop-color="#8F1913" offset=".0056"/>
<stop stop-color="#911913" offset=".3962"/>
<stop stop-color="#971914" offset=".6036"/>
<stop stop-color="#A21915" offset=".7678"/>
<stop stop-color="#B11817" offset=".9087"/>
<stop stop-color="#BF1818" offset="1"/>
</radialGradient>
<path d="m333.49 475.94c-1.85 8.82-8.74 13.52-15.59 19.69-11.44 10.31-24.62 12.36-39.92 13.61-5.72 0.47-11.25-0.77-16.93-0.33-5.48 0.43-10.96 2.03-16.48 2.66-9.91 1.13-22.05-0.52-29.57-7.06-3.52-3.07-21.72-23.36-11.54-24.52 4.59-0.52 10.63 4.87 14.72 6.6 4.87 2.05 9.34 3.07 14.33 4.01 11.42 2.14 22.69-2.61 33.79-0.49 5.34 1.02 9.44 3.42 15.01 3.19 5.18-0.21 7.99-2.33 12.43-4.41 9.3-4.36 20.86-5.33 25.45-15.59 1.98-4.43 2.79-7.42 5.97-11.27 2.24-2.7 4.74-6.09 6.23-9.46 1.38-3.15 7.74-25.27 10.03-23.79l1.85 0.46c1.44 7.54-0.89 18.05-3.51 24.83-2.79 7.22-4.64 14.13-6.27 21.87z" stroke-width="2" fill="url(#SVGID_15_)"/>
<radialGradient id="SVGID_16_" gradientUnits="userSpaceOnUse" cy="366.73" cx="-2374.6" gradientTransform="matrix(.9423 -.3346 -.3346 -.9423 2636.1 -34.59)" r="142.41">
<stop stop-color="#6D150E" offset=".0056"/>
<stop stop-color="#6E150F" offset=".3346"/>
<stop stop-color="#741610" offset=".5093"/>
<stop stop-color="#7E1712" offset=".6477"/>
<stop stop-color="#8C1814" offset=".767"/>
<stop stop-color="#9F1916" offset=".8741"/>
<stop stop-color="#B61817" offset=".971"/>
<stop stop-color="#BF1818" offset="1"/>
</radialGradient>
<path d="m289.92 292.97c-3.49 2.4-6.64 1.37-10.5 1.08-4.96-0.38-9.87-0.99-15.03-1.21-12.41-0.52-24.54 0.79-36.81 2.13-8.99 0.98-19.11 2.78-25.9 9.27-4.66 4.44-10.11 12.93-3.95 17.8 1.78 1.41 5.39 4.58 7.49 4.05l1.24 0.31c-4.05 1.44-8.79 2.5-12.41 4.76-3.09 1.92-5.7 4.7-8.67 6.73-3 2.05-6.06 3.65-9.08 5.57-7.3 4.64-10.17 12.47-16 18.12-7.56 7.32-13.24 16.53-21.7 23.03-4.81 3.7-10.95 10.35-16.76 12.26-3.75 1.23-5.67-0.13-7.64-3.68-2.5-4.51-1.19-9.61 0.29-14.22 2.21-6.87 4.42-14.22 7.17-20.89 6.09-14.76 17.64-24.54 28-36.2 11.36-12.78 25.07-25.4 39.12-35.21 11.76-8.2 26.07-6.46 38.47-12.53 2.95-1.45 5.91-3.38 9.21-3.96 3.65-0.64 7.33 0.07 10.98-0.52 7.73-1.25 18.83-3.54 26.29-0.46-1.64 3.39 1.13 8.84 3.08 12 3.41 5.5 10.84 5.17 13.11 11.77z" stroke-width="2" fill="url(#SVGID_16_)"/>
<radialGradient id="SVGID_17_" gradientUnits="userSpaceOnUse" cy="346.65" cx="-2402.6" gradientTransform="matrix(.9423 -.3346 -.3346 -.9423 2636.1 -34.59)" r="169.33">
<stop stop-color="#8F1913" offset=".0056"/>
<stop stop-color="#911913" offset=".3962"/>
<stop stop-color="#971914" offset=".6036"/>
<stop stop-color="#A21915" offset=".7678"/>
<stop stop-color="#B11817" offset=".9087"/>
<stop stop-color="#BF1818" offset="1"/>
</radialGradient>
<path d="m280.29 266.53c0.79-2.17 2.15-5.23 3.69-6.94 2.26-2.54 7.18-3.09 8.92-5.78l4.2-1.87c6.51-1.24 16.16 7.79 20.81 11.56 7.21 5.85 13.88 12.2 21.16 18 8.96 7.13 19.06 12.32 28.27 19.11 18.55 13.69 19.78 39.03 20.6 60.16 0.11 2.74 1.71 26.07-1.66 25.62-3.59-0.48-7.22-16.36-8.18-19.07-2.73-7.69-5.17-15.44-8.9-22.68-5.89-11.45-12.51-22.43-23.36-29.75-11.09-7.49-24.12-14.09-37.27-16.9-4.11-0.87-10.2-0.11-13.35-2.63-2.36-1.89-2.57-5.17-4.52-7.5-3.44-4.11-12.45-7.61-12.7-13.82-0.09-2.09 1.61-5.64 2.29-7.51z" stroke-width="2" fill="url(#SVGID_17_)"/>
<radialGradient id="SVGID_18_" gradientUnits="userSpaceOnUse" cy="-187.39" cx="-1963.4" gradientTransform="matrix(.9829 .1839 .1839 -.9829 2239.9 578.36)" r="141.57">
<stop stop-color="#6D150E" offset=".0056"/>
<stop stop-color="#6E150F" offset=".3346"/>
<stop stop-color="#741610" offset=".5093"/>
<stop stop-color="#7E1712" offset=".6477"/>
<stop stop-color="#8C1814" offset=".767"/>
<stop stop-color="#9F1916" offset=".8741"/>
<stop stop-color="#B61817" offset=".971"/>
<stop stop-color="#BF1818" offset="1"/>
</radialGradient>
<path d="m379.59 496.58c-6.99 14.2-26.37 25.31-40.57 31.17-12.32 5.09-25.34 11.21-36.4 18.45-5.1 3.33-8.77 8.04-13.96 11.38-6.97 4.48-9.03 2.44-15.27-1.63-6.72-4.39-10.19-0.18-16.51-1.7-2.96-0.71-6.26-4.06-9.66-4.97-5.72-1.52-11.28-1.86-17.13-1.19-14.75 1.72-30.52 9.36-44.02-0.42-8.85-6.4-15.41-16.2-19.91-25.9-3.24-6.98-7.87-13.73-10.05-21.11-2.01-6.79-2.36-13.66-5.57-20.32-4.29-8.94-14.92-16.96-14.87-27.36 0.02-5.55 1.78-13.67 4.41-18.42 4.14-7.46 13.3-13.55 21.5-14.25l4.02-1.4c5.23-7.78 11.59 12.17 11.61 15.62 0.01 5.06-1.95 10.03-1.89 15.12 0.06 4.9 0.91 9.76 2.31 14.42 3.16 10.57 12.36 19.55 22.55 23.73 4.32 1.77 9.4 2.61 13.56 4.64 3.15 1.53 5.99 4.8 8.9 6.92 9.5 6.91 18.99 11.23 30.87 13.46 11.18 2.09 17.77 0.89 27.86-2.48 4.29-1.43 8.77-1.97 13.23-1.79 5.81 0.24 12.54 3.46 18.3 2.91 11.6-1.1 23.3-11.2 32.46-17.52 7.23-4.98 15.42-10.26 21.34-17.62 2.84-3.53 3.96-7.84 8.47-9.47 3.85-1.38 8.06-1.19 9.17 2.66 1.05 3.62-1.5 9.89-2 13.61-0.61 4.43-0.72 9.33-2.75 13.46z" stroke-width="2" fill="url(#SVGID_18_)"/>
<radialGradient id="SVGID_19_" gradientUnits="userSpaceOnUse" cy="382.6" cx="-2399.9" gradientTransform="matrix(.9423 -.3346 -.3346 -.9423 2636.1 -34.59)" r="123.22">
<stop stop-color="#8F1913" offset=".0056"/>
<stop stop-color="#911913" offset=".3962"/>
<stop stop-color="#971914" offset=".6036"/>
<stop stop-color="#A21915" offset=".7678"/>
<stop stop-color="#B11817" offset=".9087"/>
<stop stop-color="#BF1818" offset="1"/>
</radialGradient>
<path d="m111.37 402.74c2.73-2.9 8.84 0.14 12.55-0.63 8.16-1.7 17.23-6.34 20.48-13.46l1.99-0.7c0.89 7.55 1.89 13.22 4.55 20.7 4 11.28 6.8 22.61 12.49 33.16 3.24 6.03 4.38 9.16 1.14 14.42-2.92 4.73-6.35 8.53-9.47 13.21-6.12 9.19-6.72 21.73-3.18 32.04 2.23 6.49 9.54 20.37 4.49 26.51-6.07-4.59-8.39-12.22-10.87-19.19-4.16-11.72-7.93-23.7-12.51-35.27-4.59-11.57-14.15-19.83-16.06-32.89-0.5-3.44 0.51-6.74-0.34-10.12-0.82-3.25-3.14-5.86-4.33-8.99-1.51-3.97-4.42-15.09-0.93-18.79z" stroke-width="2" fill="url(#SVGID_19_)"/>
<radialGradient id="SVGID_20_" gradientUnits="userSpaceOnUse" cy="409.61" cx="-2382.1" gradientTransform="matrix(.9423 -.3346 -.3346 -.9423 2636.1 -34.59)" r="213.98">
<stop stop-color="#6D150E" offset=".0056"/>
<stop stop-color="#6E150F" offset=".3346"/>
<stop stop-color="#741610" offset=".5093"/>
<stop stop-color="#7E1712" offset=".6477"/>
<stop stop-color="#8C1814" offset=".767"/>
<stop stop-color="#9F1916" offset=".8741"/>
<stop stop-color="#B61817" offset=".971"/>
<stop stop-color="#BF1818" offset="1"/>
</radialGradient>
<path d="m163.3 554.06c-1.72-5.89-2.75-12.3-1.68-18.5 0.58-3.37 1.21-10.36 2.77-13.17l1-0.35c5.05-3.12 17.94 7.88 22.38 10.44 9.03 5.2 17.49 10.66 24.82 18.23 15.13 15.61 34.47 23.12 55.51 15.65 10.45-3.71 17.9-8.87 26.45-15.59 3.53-2.77 7.43-4.68 11.97-5.81 4.96-1.24 8.7-3.29 13.62-5.49 6.09-2.73 11.2-4.11 17.41-3.51 5.18 0.5 10.01 2.69 14.24-1.41 3.32-3.21 6.29-10.45 8.21-14.39 2.32-4.77 4.84-9.44 6.64-14.59 2.78-7.93 6.38-17.99 11.39-24.79 2.46-3.35 7.59-6.44 12.25-4.99 4.12 1.29 5.85 5.84 8.19 8.91 2.66 3.51 7.24 5.59 9.56 9.52 3.05 5.16 4.38 14.29 3.14 19.99-0.93 4.31-4.3 7.88-6.92 11.21-4.6 5.83-8.5 12.17-13.53 17.61-11.14 12.06-25.18 20.88-39.18 29.21-11.04 6.56-22.47 15.27-34.35 19.89-13.27 5.17-27.4 10.44-41.53 12.4-13.9 1.92-28.84 0.12-42.39 4.49-3.63 1.17-6.89 4.82-10.43 5.39-4.38 0.71-10.13-3.26-13.72-5.8-11.18-7.91-18.99-21.05-27.98-31.17-6.57-7.39-14.98-13.56-17.84-23.38z" stroke-width="2" fill="url(#SVGID_20_)"/>
<radialGradient id="SVGID_21_" gradientUnits="userSpaceOnUse" cy="-156.52" cx="-2012.3" gradientTransform="matrix(.9896 .1437 .1437 -.9896 2279.3 537.83)" r="173.53">
<stop stop-color="#8F1913" offset=".0056"/>
<stop stop-color="#911913" offset=".3962"/>
<stop stop-color="#971914" offset=".6036"/>
<stop stop-color="#A21915" offset=".7678"/>
<stop stop-color="#B11817" offset=".9087"/>
<stop stop-color="#BF1818" offset="1"/>
</radialGradient>
<path d="m362.53 564.86c1.12-5.79 0.81-11.87-0.67-17.35-1.26-4.62-2.16-9.29-3.46-13.83-1.09-3.86-6.44-8.62-0.32-11.81l2.33-1.26c0.93-1.34 2.03-2.1 3.17-3.16 5.61-5.24 11.34-8.76 15.96-15.58 5.22-7.68 10.22-16.41 11.93-25.91 1.05-5.8 0.63-12.85 2.66-18.32 1.54-4.12 4.78-8.11 6.74-12.34 4.83-10.45 10.77-20.27 15.64-30.47 5.99-12.54 5.18-24.83 7.03-38.28 1.73-12.58 6.19-21.5 17.44-9.08 5.91 6.53 11.4 14.44 15.76 22.34 6.91 12.52 7.86 22.83 5.47 36.88-5.75 33.85-25.34 64.78-40.02 95.21-4.97 10.3-8.6 21.81-17.11 29.67-7.63 7.05-17.31 12.62-25.9 18.25-6.81 4.46-12.07 10.99-18.54 15.48-5.73 3.97-5.36-0.58-3.99-5.93 1.33-5.17 4.81-9 5.88-14.51z" stroke-width="2" fill="url(#SVGID_21_)"/>
<radialGradient id="SVGID_22_" gradientUnits="userSpaceOnUse" cy="-340.68" cx="-2307.6" gradientTransform="matrix(.996 -.0897 -.0897 -.996 2520.1 -141.69)" r="60.892">
<stop stop-color="#6D150E" offset=".0056"/>
<stop stop-color="#70150F" offset=".1742"/>
<stop stop-color="#7B1711" offset=".3752"/>
<stop stop-color="#8C1814" offset=".5927"/>
<stop stop-color="#A61916" offset=".8203"/>
<stop stop-color="#BF1818" offset="1"/>
</radialGradient>
<path d="m301.78 400.81c-1.02 6.63-7.26 12.31-11.61 16.59-9.48 9.32-20.78 24.25-35.32 15.66l-1.15-0.96c-3.28-4.62 6.15-3.36 8.53-3.6 4.92-0.5 7.18-1.89 10.39-5.55 2.52-2.87 5.95-4.59 7.97-7.68 1.96-3 2.84-6.75 2.88-10.27 0.06-5.52-0.39-13.2-3-17.8-0.89-1.57-1.38-2.02-1.85-3.71-0.36-1.31-0.32-2.32-0.86-3.55-1.12-2.58-2.78-4.42-5.24-5.9-2.21-1.33-4.88-1.66-7.31-2.78-2.37-1.1-4.44-3.05-7.03-3.55-2.74-0.54-6.51 0.01-9.15 0.75-1.37 0.38-3.08 1.66-4.43 1.83-1.74 0.22-2.93-0.98-4.45-1.3-2.75-0.57-5.99 0.19-8.34 1.64-1.95 1.2-3.19 4.31-5.11 5.17-1.98 0.88-6.48 0.21-8.82 0.42-3.42 0.3-5.79 0.54-8.24 2.8-3.64 3.37-4.08 9.13-4.42 13.91-0.22 2.98-0.77 5.81-0.18 8.87 0.55 2.88 2.16 5.62 1.33 8.69-2.16-2.33-3.63-6.77-5.33-9.85-3.24-5.88-3-12.77-3.6-19.48-0.26-2.81-2.27-12.41-1.02-15.04 0.74-1.56 1.25-0.75 2.69-1.67 1.73-1.11 3.48-2.17 4.99-3.92 1.72-2 2.92-4.27 4.06-6.38 5.47-3.74 15.19-0.63 19.24-6.02 1.35-1.79-0.54-2.16 2.16-3.05 2.33-0.77 4.52 1.2 6.82 0.8 3.79-0.64 6.25-6.19 10.39-6.6 4.76-0.46 8.47 5.06 11.68 7.98 3.9 3.54 8.82 5.73 12.7 9.11 3.86 3.37 3.93 6.04 9.35 6.8 6.01 0.84 10.73 2.55 14.67 7.59 6.16 7.86 8.13 20.21 6.61 30.05z" stroke-width="2" fill="url(#SVGID_22_)"/>
<radialGradient id="SVGID_23_" gradientUnits="userSpaceOnUse" cy="368.81" cx="-2379.1" gradientTransform="matrix(.9423 -.3346 -.3346 -.9423 2636.1 -34.59)" r="52.283">
<stop stop-color="#8F1913" offset=".0056"/>
<stop stop-color="#911913" offset=".3962"/>
<stop stop-color="#971914" offset=".6036"/>
<stop stop-color="#A21915" offset=".7678"/>
<stop stop-color="#B11817" offset=".9087"/>
<stop stop-color="#BF1818" offset="1"/>
</radialGradient>
<path d="m272.32 376.1c-2.75-0.1-4.92-0.78-7.7-0.35-3.95 0.62-7.91 1.6-11.82 2.51-6.64 1.56-12.87 3.84-17.55 8.84-9.8 10.48-8.11 25.32-2.72 38.14 3.81 9.08 11.52 14.32 20.34 18.32 8.32 3.77 15.78 3.41 24.46 2.02 2.17-0.35 7.75-2.63 9.88-1.48 2.65 1.42-1.17 2.77-2.55 3.1-3.61 0.86-7.61 0.15-11.3 0.41-6.12 0.43-12.3 0.23-18.37-0.42-6.51-0.69-13.06-0.92-19.51-2.17-3.58-0.69-7.34-1.37-9.1-4.69-0.84-1.59-1.02-3.52-1.82-5.13-0.77-1.57-1.86-2.21-3-3.54-1.69-1.97-1.74-4.44-3.34-6.6-1.96-2.64-4.48-4.83-6.18-7.71-1.49-2.55-2.46-5.38-3.48-8.23-2-5.64-4.36-10.87-2.19-16.83 2.57-7.06 7.81-8.56 14.26-9.88 0.79-0.17 1.58-0.16 2.32-0.61 0.14-1.31 2.24-2.8 3.09-3.88 1.11-1.38 2.18-3.18 3.99-3.92 2.37-0.96 4.83 0.1 7.31 0.01 2.84-0.11 4.5-1.58 7-2.78 6.75-3.25 13.47-2.27 20.02-0.16 2.46 0.8 7.43 1.71 7.96 5.03z" stroke-width="2" fill="url(#SVGID_23_)"/>
<radialGradient id="SVGID_24_" gradientUnits="userSpaceOnUse" cy="1795.1" cx="-1987" gradientTransform="matrix(.6669 -.7452 -.7452 -.6669 2928.5 101.31)" r="201.49">
<stop stop-color="#6D150E" offset=".0056"/>
<stop stop-color="#6E150F" offset=".3346"/>
<stop stop-color="#741610" offset=".5093"/>
<stop stop-color="#7E1712" offset=".6477"/>
<stop stop-color="#8C1814" offset=".767"/>
<stop stop-color="#9F1916" offset=".8741"/>
<stop stop-color="#B61817" offset=".971"/>
<stop stop-color="#BF1818" offset="1"/>
</radialGradient>
<path d="m401.15 467.81c4.11 4.57-4.46 13.14-7.31 17.95-4.82 8.13-9.65 16.34-8.83 26.25 1.13 13.51 4.93 26.57 5.53 40.27 0.65 14.94-0.23 47.98-24.1 43.34-6.98-1.36-13.03-5.97-20.43-5.29-6.41 0.6-12.22 5.87-17.92 8.86-23.02-16.79-46.64 6.96-69.99 5.87-24.01-1.12-49.24-6.69-68.59-21.19-7.59-5.69-18-8.35-24.19-15.48-5.87-6.76-6.32-12.33-15.39-16.66-9.77-4.68-23.14-6.22-30.34-15.52-7.36-9.5-1.02-19.85-2.23-31.01-1.36-12.55-15.11-19.06-18.21-31.15-2.813-10.95-3.908-23.96-5.461-35.48-1.543-11.46 1.622-20.4 10.981-27.51 4.15-3.16 13.49-9.32 17.93-3.06l0.65 1.65c-2.47 16.14-9.19 25.91-2.15 41.66 7.35 16.42 7.15 32.38 18.87 47.59 9.34 12.12 23.84 24.05 36.83 31.92 15.49 9.39 34.73 21.31 53.14 22.22 14.58 0.73 24.86-5.46 37.76-9.35 12.6-3.81 26.7-1.88 39.76-4.55 31.25-6.4 52.53-39.52 72.76-62.21 3.76-4.22 14.53-16.25 20.93-9.12z" stroke-width="2" fill="url(#SVGID_24_)"/>
<radialGradient id="SVGID_25_" gradientUnits="userSpaceOnUse" cy="383.66" cx="-2381.3" gradientTransform="matrix(.9423 -.3346 -.3346 -.9423 2636.1 -34.59)" r="50.623">
<stop stop-color="#6D150E" offset=".0056"/>
<stop stop-color="#6E150F" offset=".3346"/>
<stop stop-color="#741610" offset=".5093"/>
<stop stop-color="#7E1712" offset=".6477"/>
<stop stop-color="#8C1814" offset=".767"/>
<stop stop-color="#9F1916" offset=".8741"/>
<stop stop-color="#B61817" offset=".971"/>
<stop stop-color="#BF1818" offset="1"/>
</radialGradient>
<path d="m305.82 442.91c-4.82 4.45-13.48 6.87-19.92 6.88-4.09 0.01-8.01-1.26-12.06-1.06-3.53 0.17-6.88 0.63-10.26-0.84-3.33-1.45-13.43-9.87-9.66-14.15 2.83 0.18 4.2 2.08 6.36 3.44 2.65 1.66 4.99 1.5 7.9 1.94 4.73 0.72 6.06 0.97 9.58-2.27 2.18-1.99 3.88-4.05 5.74-6.23 2.34-2.75 4.78-5.17 7.46-7.4 3.26-2.72 7.39-4.4 10.46-7.17 4.91-4.42 4.09-15.66 3.62-21.7-0.55-6.98-4.38-14.33-5.96-21.12 23.23-3.95 14.26 35.91 12.85 47.96-0.75 6.48-1.15 17.14-6.11 21.72z" stroke-width="2" fill="url(#SVGID_25_)"/>
<radialGradient id="SVGID_26_" gradientUnits="userSpaceOnUse" cy="389.67" cx="-2382.9" gradientTransform="matrix(.9423 -.3346 -.3346 -.9423 2636.1 -34.59)" r="71.959">
<stop stop-color="#6D150E" offset=".0056"/>
<stop stop-color="#6E150F" offset=".3346"/>
<stop stop-color="#741610" offset=".5093"/>
<stop stop-color="#7E1712" offset=".6477"/>
<stop stop-color="#8C1814" offset=".767"/>
<stop stop-color="#9F1916" offset=".8741"/>
<stop stop-color="#B61817" offset=".971"/>
<stop stop-color="#BF1818" offset="1"/>
</radialGradient>
<path d="m307.7 412c-0.38 9.65 1.27 19.33-1.69 28.68-2.51 7.91-9.08 12.32-15.33 16.93-9.43 6.95-21.29 13.95-33.46 15.44-14.07 1.72-23.43-8.71-36.45-10.64-9.68-1.44-18.2-11.55-23.16-19.93-4.64-7.85-5.79-15.68-6.24-24.41-0.34-6.55 5.39-11.78 10.24-15.15l0.03 1.11c5.34-1.31 6.36 10.53 8.42 14.01 5.6 9.49 6.43 21.45 12.3 30.65 3.39 5.31 12.69 8.6 18.82 9.77 7.04 1.33 14.3 0.98 21.48 1.33 14.36 0.7 27.94-5.73 33.49-18.23 2.33-5.26 3.95-11.89 5.33-17.61 1.1-4.55 0.27-14.77 6.23-16.01 0.35 1.31 0.04 2.65-0.01 4.06z" stroke-width="2" fill="url(#SVGID_26_)"/>
<radialGradient id="SVGID_27_" gradientUnits="userSpaceOnUse" cy="1824.7" cx="-2034.6" gradientTransform="matrix(.6669 -.7452 -.7452 -.6669 2928.5 101.31)" r="224.99">
<stop stop-color="#6D150E" offset=".0056"/>
<stop stop-color="#70150F" offset=".1489"/>
<stop stop-color="#791611" offset=".304"/>
<stop stop-color="#891813" offset=".4647"/>
<stop stop-color="#A01916" offset=".6292"/>
<stop stop-color="#BE1818" offset=".7951"/>
<stop stop-color="#BF1818" offset=".7978"/>
<stop stop-color="#DB0D15" offset="1"/>
</radialGradient>
<path d="m428.52 302.86c6.04 6.76 3.03 21.61 1.19 30.85-4.01 20.08-13.78 37.59-9.59 58.23 2.94 14.51 0.43 29.35 0.68 44.46 0.3 17.62 0.73 35.19-14.35 46.89-16.39 12.73-39.17 17.92-57.94 26.76-6.64 3.12-12.4 6.72-17.94 11.66-3.8 3.38-7.48 8.17-13.01 8.9-7.19 0.95-16.02-6.38-14.26-14.11l-1.9-3.83c1.94-4.04 8.71-6.64 12.36-10.23 4.03-3.99 7.29-8.68 9.91-13.5 3.25-5.97 5.41-13.07 9.62-19.1 3.71-5.32 9.33-9.33 13.12-14.6 3.89-5.43 7.25-13.4 9.03-19.83 1.98-7.17-0.23-13.32 1.34-20.03 1.92-8.2 5.58-12.82 5.54-21.66-0.04-7.89 0.49-15.76-0.3-23.71-2.22-22.18-10.36-40.13-27.2-55.2-10.3-9.22-18.73-18.87-31.14-24.71-4.41-2.06-18.19-4.86-9.37-10.72 7.66-5.1 28.1 1.49 36.96 1.92 13.93 0.68 27.93-4.24 42.11-3.67 11.49 0.47 15.51 8.91 24.2 14.58 9.14 5.97 23.46 2.3 30.94 10.65z" stroke-width="2" fill="url(#SVGID_27_)"/>
<radialGradient id="SVGID_28_" gradientUnits="userSpaceOnUse" cy="1772" cx="-2001.9" gradientTransform="matrix(.6669 -.7452 -.7452 -.6669 2928.5 101.31)" r="181.4">
<stop stop-color="#6D150E" offset=".0056"/>
<stop stop-color="#6E150F" offset=".3346"/>
<stop stop-color="#741610" offset=".5093"/>
<stop stop-color="#7E1712" offset=".6477"/>
<stop stop-color="#8C1814" offset=".767"/>
<stop stop-color="#9F1916" offset=".8741"/>
<stop stop-color="#B61817" offset=".971"/>
<stop stop-color="#BF1818" offset="1"/>
</radialGradient>
<path d="m236.3 221.74c-0.02 4.18-0.21 9.32 2.65 12.88 2.44 3.04 9.91 3.57 10.96 7.24 1.25 4.36-9.79 14.28-12.54 17.34-4.92 5.51-8.33 11.26-12.47 16.95-5.5 7.57-13.86 11.91-19.06 19.87-5.83 8.92-15.91 16.2-23.33 24.49-4.12 4.6-8.12 8.95-11.19 14.11-2.44 4.09-3.82 8.84-6.24 12.71-3.08 4.95-8.95 8.09-12.96 12.69-4.83 5.54-8.35 11.39-12.14 17.55-3.04 4.92-7.12 9.44-7.22 15.35-0.06 4.21 1.1 7.66 1.04 11.94-0.14 9.47-6.16 18.93-6.27 28.76-0.11 10.54 4.61 19.1 7.94 29.11 2.67 8.05 5.05 16.57 6.48 25.13-3.8 0.44-9.25-7.8-11.77-10.53-5.23-5.64-6.22-11.75-7.79-19.01-1.65-7.6-4.08-14.44-5-22.41-0.8-6.98-0.02-13.88-0.41-20.77l-0.04-0.74c-0.77-0.49-1.58-0.67-2.31-1.24-4 0.41-5.54 3.17-8.3 5.95-3.53 3.57-5.17 4.26-10.204 5.01-0.933-4.46 1.413-6.29-1.324-10.34-1.869-2.76-4.564-5.52-7.907-6.28 2.878-8.53 13.405-13.26 12.811-23.79-0.372-6.55-3.29-12.32-2.733-19.16 0.806-9.9 8.377-20.72 1.079-29.61 5.098-10.24 10.918-19.65 18.228-28.44 2.54-3.05 3.66-5.48 5.22-8.8 2.1-4.48 4.05-4 7.57-7.18-1.35-1.27-2.77-2.6-4.11-3.88 2.14-4.76 5.93-8.42 9.43-12.26 4.72-5.18 9.91-10.02 15.37-14.43 2.74-2.21 8.67-5.3 8.52-8.79 6.41-1.8 13.15-3.16 19.67-5 11.22-3.16 14.26-5.43 17.29-16.61 2.61-9.61 5.28-11.5 14.78-12.88 6.32-0.91 12.39-1.89 18.58-2.63 7.81-0.93 7.74 0.82 7.7 7.7z" stroke-width="2" fill="url(#SVGID_28_)"/>
<radialGradient id="SVGID_29_" gradientUnits="userSpaceOnUse" cy="-200.96" cx="-1962.6" gradientTransform="matrix(.9829 .1839 .1839 -.9829 2239.9 578.36)" r="123.79">
<stop stop-color="#8F1913" offset=".0056"/>
<stop stop-color="#911913" offset=".3962"/>
<stop stop-color="#971914" offset=".6036"/>
<stop stop-color="#A21915" offset=".7678"/>
<stop stop-color="#B11817" offset=".9087"/>
<stop stop-color="#BF1818" offset="1"/>
</radialGradient>
<path d="m309.88 315.16c-4.69-2.12-10.23-3.57-15.35-4.47-11.27-1.98-21.45-1.02-32.15 1.97-8.27 2.3-15.2 7.46-23.1 10.74-6.38 2.65-13.93 3.15-20.65 4.73-24.28 5.68-39.48 27.91-46.07 51.34-3.83 13.64-2.88 27.64-4.65 41.5-0.99 7.73-0.11 25.92-8.25 29.7-7.08-8.28-9.62-22.69-10.85-33.27-1.38-11.82-2.39-23.65-3.62-35.24-2.25-21.35 9.85-40.04 24.98-53.88 10.13-9.25 24.16-17.78 37.2-21.1 6.07-1.55 12.01-3.1 18.17-4.57 5.92-1.4 11.24-4.4 17.15-5.38 13.63-2.26 29.55 2.14 42.43 6.47 6.1 2.05 11.61 4.33 17.48 6.92 5.2 2.28 11.01 6.27 16.28 7.86l-0.29 1.56c-3.53-0.15-5.75-3.54-8.71-4.88z" stroke-width="2" fill="url(#SVGID_29_)"/>
<radialGradient id="SVGID_30_" gradientUnits="userSpaceOnUse" cy="362.51" cx="-2380.4" gradientTransform="matrix(.9423 -.3346 -.3346 -.9423 2636.1 -34.59)" r="134.67">
<stop stop-color="#6D150E" offset=".0056"/>
<stop stop-color="#6E150F" offset=".3346"/>
<stop stop-color="#741610" offset=".5093"/>
<stop stop-color="#7E1712" offset=".6477"/>
<stop stop-color="#8C1814" offset=".767"/>
<stop stop-color="#9F1916" offset=".8741"/>
<stop stop-color="#B61817" offset=".971"/>
<stop stop-color="#BF1818" offset="1"/>
</radialGradient>
<path d="m388.11 373.38c1.58 2.45 4.4 3.87 6.13 6.07 2.69 3.44 2.34 6.1 0.33 9.71-2.62 4.72-1.99 3.65-2.31 8.55-0.44 6.61-6.51 13.04-8.96 19.43-2.76 7.19-2.62 12.79-9.83 17.47-3.37-6.34-2.79-15.93-4.89-23.01-2.95-9.92-7-19.12-8.7-29.18-2.77-16.44-0.21-35.73-10.36-49.78l0.75-4.19c-3.66 1.62-8.22 0.73-11.9-0.23-6.12-1.6-12.39-2.74-18.77-4-17.69-3.5-35.51-8.37-53.62-7.5-13.57 0.66-27.5 1.13-41.11 2.8-11 1.35-19.07 8.32-29.95 9 2.3-8.9 13.31-12.61 20.24-18.3 4.56-3.76 7.17-8.54 12.35-11.7 7.86-4.77 18.1-6.7 26.79-9.5 8.39-2.69 16.96-3.22 25.35-6.19 5.95-2.11 12.13-5.06 18.36-5.83 9.07-1.12 21.03-1.61 27.13 5.93 9.96 12.33 22.01 21.19 33.78 30.82 7.63 6.24 17.09 14.76 20.23 24.93 2.87 9.27 0 18.39 4.59 26.73 1.35 2.46 2.82 5.57 4.37 7.97z" stroke-width="2" fill="url(#SVGID_30_)"/>
<radialGradient id="SVGID_31_" gradientUnits="userSpaceOnUse" cy="373.09" cx="-2373.2" gradientTransform="matrix(.9423 -.3346 -.3346 -.9423 2636.1 -34.59)" r="172.61">
<stop stop-color="#8F1913" offset=".0056"/>
<stop stop-color="#911913" offset=".3962"/>
<stop stop-color="#971914" offset=".6036"/>
<stop stop-color="#A21915" offset=".7678"/>
<stop stop-color="#B11817" offset=".9087"/>
<stop stop-color="#BF1818" offset="1"/>
</radialGradient>
<path d="m396.09 264.1c-0.02 1.8-2.16 2.29-2.21 3.88-0.05 1.86 1.95 3.27 1.97 4.21 0.15 6.06-2.78 13.42-3.05 20.62-0.25 6.63 2.71 9.88 5.38 14.88 3.38 6.35 2.55 10.22 3.41 17.26-9.57-1.45-19.44-19.97-27.28-26.26-11.49-9.22-25.83-15.56-39.21-21.53-9.63-4.3-14.68-4.94-24.87-1.31-11.16 3.97-19.25 7.63-30.56 4.98-22.39-5.25-48.1 0.6-70.7 4.86-9.23 1.74-26.54 10.15-21.93-4.81 2.14-6.97 8.6-9.79 12.59-14.82 1.31-1.65 2.21-3.45 3.45-5.18l0.7-2.78c7.39-5.51 8.88-17.9 16.96-24.58 7.03-5.82 16.64-9.24 23.72-3.46 11.37-3.49 21.27-17.85 34.06-16.8 5.63 0.46 11.62 7.27 17.72 8.5 6.62 1.33 13.24-1.32 19.54-3.39 3.67 11.04 9.34 5.35 16.36 4.9 8.14-0.52 19.72 7.06 27.9 10.25 9.16 3.58 13.51 5.49 19.55 12.67 4.37 5.19 8.48 7.06 13.45 10.96 4.73 3.71 3.13 1.3 3.05 6.95z" stroke-width="2" fill="url(#SVGID_31_)"/>
<radialGradient id="SVGID_32_" gradientUnits="userSpaceOnUse" cy="2308.6" cx="-1585.9" gradientTransform="matrix(.4735 -.8808 -.8808 -.4735 3039.9 97.085)" r="18.452">
<stop stop-color="#6D150E" offset=".0056"/>
<stop stop-color="#6E150F" offset=".3346"/>
<stop stop-color="#741610" offset=".5093"/>
<stop stop-color="#7E1712" offset=".6477"/>
<stop stop-color="#8C1814" offset=".767"/>
<stop stop-color="#9F1916" offset=".8741"/>
<stop stop-color="#B61817" offset=".971"/>
<stop stop-color="#BF1818" offset="1"/>
</radialGradient>
<path fill="url(#SVGID_32_)" d="m274.09 391.43c3.9 6.14 4.65 11.74 1.07 18.39-2.4 4.48-5.48 7.64-9.8 10.23-3.94 2.38-7.53 0.99-11.51-0.48-5.07-1.88-11.27-6.16-9.84-12.06 1.19 0.44 1.66 1.71 2.36 2.64 0.92 1.23 1.83 1.99 3.3 2.78 3.75 2 7.97 1.63 11.51-0.56 2.27-1.41 4.59-3.2 6.26-5.29 0.84-1.06 2.47-3.07 2.58-4.42 0.25-3.22-3.45-5.14-6.17-5.97-3.66-1.13-10.88-1.61-12.82 2.56-0.8 1.74-0.62 3.98 1.36 4.93 2.25 1.08 3-0.93 4.03-2.6 0.5-0.07 0.49 0.15 0.68 0.53l0.38 0.4c-1.43 2.67-3.05 3.91-6.11 3.72-1.8-0.11-5.37-1.88-5.43-3.89-7.9-6.66 5.86-19.66 13.11-19.6 5.44 0.04 12.17 4.17 15.04 8.69z"/>
<radialGradient id="SVGID_33_" gradientUnits="userSpaceOnUse" cy="-189.21" cx="-1974.5" gradientTransform="matrix(.9829 .1839 .1839 -.9829 2239.9 578.36)" r="91.449">
<stop stop-color="#6D150E" offset=".0056"/>
<stop stop-color="#6E150F" offset=".3346"/>
<stop stop-color="#741610" offset=".5093"/>
<stop stop-color="#7E1712" offset=".6477"/>
<stop stop-color="#8C1814" offset=".767"/>
<stop stop-color="#9F1916" offset=".8741"/>
<stop stop-color="#B61817" offset=".971"/>
<stop stop-color="#BF1818" offset="1"/>
</radialGradient>
<path d="m349.84 454.48c-6.68 16.37-13.79 21.28-30.12 27.44-16.29 6.13-29.19 13.18-46.63 15.28-13.06 1.58-32.43-0.08-43.57-8.88-4.97-3.93-23.87-27.2-10.73-28.65l-1.27-1.85c2.94-3.2 5.48-1.99 9.12-1.34 6.61 1.17 12.1 4.58 19.42 4.08 7.02-0.49 12.08-1.79 19.55-1.01 12.04 1.27 24.83-5.59 34.99-11.14 10.81-5.91 22.41-16.86 23.01-30.45 0.71-15.95-6.16-26.43-15.61-38.38-2.92-3.7-10.64-10.22-7.1-15.09 4.2-5.76 13.22 0.95 18.46 1.83 8 1.37 15.12-3.81 22.32-2.9 7 0.89 7.94 9.14 12.88 13.38 6.83 5.88 9.18 3.84 7.31 13.66-1.1 5.7-4.01 12.03-5.41 18.13-1.82 7.86 3.58 14.35 2.46 22.4-1.04 7.49-6.32 16.73-9.08 23.49z" stroke-width="2" fill="url(#SVGID_33_)"/>
<radialGradient id="SVGID_34_" gradientUnits="userSpaceOnUse" cy="374.5" cx="-2388" gradientTransform="matrix(.9423 -.3346 -.3346 -.9423 2636.1 -34.59)" r="87.192">
<stop stop-color="#6D150E" offset=".0056"/>
<stop stop-color="#6E150F" offset=".3346"/>
<stop stop-color="#741610" offset=".5093"/>
<stop stop-color="#7E1712" offset=".6477"/>
<stop stop-color="#8C1814" offset=".767"/>
<stop stop-color="#9F1916" offset=".8741"/>
<stop stop-color="#B61817" offset=".971"/>
<stop stop-color="#BF1818" offset="1"/>
</radialGradient>
<path d="m339.52 405.19c-3.58 10.51-7.93 20.64-11.93 30.91-2.83 7.26-4.33 10.57-12.47 13.47-4.66 1.65-9.32 3.31-13.98 4.96-3.46 1.23-7.11 4.06-10.48 4.67-2.25-5.16 8.24-10.13 11.45-12.12 5.01-3.11 9.37-6.46 12.44-11.44 5.51-8.93 6.54-17.41 3.3-27.87-1.74-5.62-1.41-10.17-2.29-15.91-0.96-6.22-3.32-12.14-5.45-18.15-4.21-11.9-12.97-16.93-24.99-17.81-4.41-0.32-2.44-1.94-4.78-4.75-1.23-1.48-4.52-2.24-6.61-2.61-4.83-0.84-9.17-0.53-13.47-2.88-2.36-1.3-3.3-3.74-5.45-5.19s-5.11 0.49-6.84-0.55c-1.64-1-2.05-4.89-3.43-6.43-1.68-1.87-3.75-2.32-3.18-5.59 2.84-2.68 8.21-3.29 12.02-4.64l0.97-1.02c5.25-2.59 10.49 0.33 15.23 2.29 2.97 1.23 5.74 2.8 8.96 3.43 2.87 0.55 5.99 0.76 8.91 0.52 1.79-0.15 4.21-1.26 5.89-1.04 3.59 0.48 5.76 4.42 9.23 5.52 4.53 1.44 7.32 0.66 11.17 3.82 4.05 3.32 9.3 5.32 13.35 8.57 3.13 2.51 3.6 6.71 4.67 10.38 0.9 3.09 2.05 6.18 3.04 9.29 0.74 2.35 1.22 4.63 1.57 7.05 0.38 2.65-0.36 4.85-0.31 7.43 0.09 4.49 4.31 6.2 5.83 10.2 1.93 5.11-0.7 10.6-2.37 15.49z" stroke-width="2" fill="url(#SVGID_34_)"/>
<radialGradient id="SVGID_35_" gradientUnits="userSpaceOnUse" cy="-347.75" cx="-2306.1" gradientTransform="matrix(.996 -.0897 -.0897 -.996 2520.1 -141.69)" r="94.565">
<stop stop-color="#6D150E" offset=".0056"/>
<stop stop-color="#6E150F" offset=".3346"/>
<stop stop-color="#741610" offset=".5093"/>
<stop stop-color="#7E1712" offset=".6477"/>
<stop stop-color="#8C1814" offset=".767"/>
<stop stop-color="#9F1916" offset=".8741"/>
<stop stop-color="#B61817" offset=".971"/>
<stop stop-color="#BF1818" offset="1"/>
</radialGradient>
<path d="m162.16 446.31c0-3.92 2.67-5.63 2.99-9.05 0.34-3.58-0.71-7.93-1.03-11.49-1.16-12.82-1.43-23.81 3.68-35.87 4.41-10.42 9.17-18.63 20.3-22.78 1.78-0.66 7.07-3.03 8.8-2 1.66 0.99 1.71 4.86 1.26 6.23l-1.49 1.08c0.45 2.83-2.48 3.58-3.98 5.02-2.19 2.1-3.01 4.76-3.5 7.62-1 5.9-0.34 13.85 1.54 19.63 2.9 8.9 5.86 17.92 9.42 26.63 2.7 6.61 4.66 15.42 9.9 20.4 9.49 9.01 18.94 20.24 32.83 22.59 3.83 0.65 12.86 0.16 14.89 3.42 2.07 3.34 0.6 3.95 5.18 4.84 3.46 0.68 6.51 0.9 10.12 0.74 3-0.13 7.9-1.3 10.81-0.64 3.8 0.86 2.43 4.02-0.78 5.39-4.56 1.95-10.23 1.89-15.04 2.69-6.47 1.09-14.48 4.4-21.12 3.25-4.95-0.85-8.74-5.03-14.02-5.87-8.63-1.37-16.85-2.69-25.21-5.5-11.02-3.69-21.13-10.66-30.58-17.37-6.27-4.45-14.97-10.38-14.97-18.96z" stroke-width="2" fill="url(#SVGID_35_)"/>
</g>
</svg>
