<?xml version="1.0" encoding="UTF-8" standalone="no"?>
<!-- Created with Inkscape (http://www.inkscape.org/) -->

<svg
   xmlns:dc="http://purl.org/dc/elements/1.1/"
   xmlns:cc="http://creativecommons.org/ns#"
   xmlns:rdf="http://www.w3.org/1999/02/22-rdf-syntax-ns#"
   xmlns:svg="http://www.w3.org/2000/svg"
   xmlns="http://www.w3.org/2000/svg"
   xmlns:sodipodi="http://sodipodi.sourceforge.net/DTD/sodipodi-0.dtd"
   xmlns:inkscape="http://www.inkscape.org/namespaces/inkscape"
   id="svg2"
   version="1.1"
   inkscape:version="0.48.2 r9819"
   width="1296"
   height="1014"
   sodipodi:docname="Cat_02812.svg">
  <metadata
     id="metadata8">
    <rdf:RDF>
      <cc:Work
         rdf:about="">
        <dc:format>image/svg+xml</dc:format>
        <dc:type
           rdf:resource="http://purl.org/dc/dcmitype/StillImage" />
        <dc:title />
      </cc:Work>
    </rdf:RDF>
  </metadata>
  <defs
     id="defs6" />
  <sodipodi:namedview
     pagecolor="#ffffff"
     bordercolor="#666666"
     borderopacity="1"
     objecttolerance="10"
     gridtolerance="10"
     guidetolerance="10"
     inkscape:pageopacity="0"
     inkscape:pageshadow="2"
     inkscape:window-width="1440"
     inkscape:window-height="838"
     id="namedview4"
     showgrid="false"
     inkscape:zoom="0.61045365"
     inkscape:cx="648"
     inkscape:cy="507"
     inkscape:window-x="-8"
     inkscape:window-y="-8"
     inkscape:window-maximized="1"
     inkscape:current-layer="svg2" />
  <rect
     style="fill:#808080;fill-opacity:1;fill-rule:nonzero;stroke:none"
     id="rect2983"
     width="68.801292"
     height="32.76252"
     x="168.72697"
     y="260.46204" />
  <rect
     style="fill:#d3bc5f;fill-opacity:1;fill-rule:nonzero;stroke:none"
     id="rect2989"
     width="147.43134"
     height="67.16317"
     x="119.5832"
     y="190.02261" />
  <path
     style="fill:#000000"
     d="m 290.3693,925.7332 c -1.66761,-1.71926 -3.04113,-2.88678 -3.05222,-2.59449 -0.0111,0.29219 -1.15967,-0.27866 -2.55234,-1.26868 -3.04989,-2.16799 -4.29217,-5.3835 -2.97061,-7.68905 0.75144,-1.31096 0.6221,-1.57345 -0.57442,-1.16562 -0.84929,0.28951 -1.52438,0.002 -1.50006,-0.63883 0.0243,-0.64084 -0.38288,-0.92308 -0.90487,-0.62726 -1.34712,0.76357 -1.99125,-2.27833 -1.98756,-9.38631 0.002,-3.38336 -0.33399,-6.16529 -0.74615,-6.18203 -1.3816,-0.0524 -0.54974,-5.76719 1.01493,-6.96853 0.85037,-0.65293 1.59133,-2.37868 1.64659,-3.83493 0.16892,-4.4523 5.5112,-9.30104 13.89658,-12.61269 6.2127,-2.45372 7.82616,-3.55614 8.85342,-6.04929 0.69087,-1.67691 1.94937,-4.50137 2.79678,-6.27669 0.84732,-1.77531 1.58267,-4.33678 1.63409,-5.69214 0.0514,-1.35537 0.54317,-2.44724 1.09278,-2.42638 0.5496,0.0208 1.05069,-1.31721 1.11354,-2.97348 0.0628,-1.65627 0.57617,-3.77583 1.1407,-4.71014 1.86721,-3.09043 3.47322,-16.75189 3.61944,-30.78929 0.0793,-7.6101 0.2036,-23.29108 0.27627,-34.84663 0.0727,-11.55555 0.38115,-27.1926 0.68546,-34.749 0.30471,-7.55638 0.16027,-13.75381 -0.31998,-13.77203 -0.48036,-0.0182 -0.71939,-2.16633 -0.5312,-4.77357 0.18799,-2.60725 0.0403,-10.83126 -0.32874,-18.27561 -0.88006,-17.75779 -1.0966,-20.13996 -2.10141,-23.12094 -0.46521,-1.38007 -0.8045,-4.30895 -0.75397,-6.50862 0.0523,-2.27403 -0.93467,-6.11392 -2.28738,-8.90089 -1.86655,-3.84543 -2.21423,-5.73046 -1.61335,-8.74898 0.58852,-2.95664 0.3245,-4.51993 -1.14043,-6.75178 -1.0485,-1.59737 -2.1314,-5.503 -2.40647,-8.67918 -0.27498,-3.17617 -0.88782,-6.03536 -1.36179,-6.35375 -0.47397,-0.31839 -0.82402,-1.5765 -0.77776,-2.79578 0.0463,-1.21928 -0.4869,-3.12682 -1.18474,-4.23894 -0.69793,-1.11214 -1.73327,-4.26947 -2.30084,-7.01629 -0.56746,-2.74681 -2.08516,-6.13066 -3.37262,-7.51964 -1.28747,-1.38899 -2.31872,-3.10832 -2.29169,-3.82075 0.0631,-1.66192 -3.06268,-2.79375 -5.53707,-2.00496 -2.32092,0.73986 -5.53438,3.67951 -5.58875,5.11254 -0.0217,0.57258 -0.71401,1.01547 -1.53842,0.98419 -0.82441,-0.0313 -1.51598,0.39281 -1.53684,0.94241 -0.0208,0.54961 -0.52506,0.9808 -1.12043,0.95821 -1.03636,-0.0393 -2.94343,1.68053 -11.54619,10.41288 -2.13323,2.16532 -5.35207,4.62941 -7.15295,5.47574 -3.59922,1.69152 -6.94105,4.95484 -7.06682,6.90088 -0.0441,0.68632 -0.53035,1.23078 -1.07995,1.20992 -0.54961,-0.0208 -1.02227,0.5678 -1.05035,1.30811 -0.0558,1.47105 -3.50826,5.52397 -4.66813,5.47996 -1.17755,-0.0447 -4.70173,4.08421 -6.38543,7.48117 -1.77516,3.58134 -2.22028,9.00417 -1.02246,12.45526 0.44475,1.28116 1.23275,5.49774 1.7512,9.37018 0.80352,6.00193 2.15762,12.13357 4.12302,18.66974 1.17162,3.89635 1.19829,9.53678 0.12894,27.2553 -0.25072,4.15527 0.66138,9.9989 3.18518,20.40462 1.49697,6.17204 -1.47304,25.46246 -3.90599,25.37015 -0.50354,-0.0191 -1.285,1.63996 -1.73663,3.68681 -1.62186,7.35071 -14.10013,20.06106 -20.65035,21.03445 -5.1477,0.76495 -8.45805,-1.09258 -16.10055,-9.03437 -6.09206,-6.33061 -6.71101,-7.38267 -7.60934,-12.93262 -0.53781,-3.32278 -1.27016,-7.69518 -1.62728,-9.71644 -0.35723,-2.02127 -0.30407,-9.59421 0.11812,-16.82875 0.59141,-10.13287 0.39865,-15.16234 -0.83939,-21.89981 -2.68642,-14.62045 -3.72291,-19.76495 -4.30326,-21.35738 -0.4549,-1.24822 -1.35717,-10.37097 -1.68898,-17.07632 -0.0407,-0.82713 -0.32595,-2.18893 -0.63322,-3.02618 -0.8941,-2.43563 -2.24758,-13.84564 -2.80227,-23.62323 -0.28169,-4.96425 -0.89863,-11.90649 -1.37098,-15.42721 -0.72027,-5.36874 -0.59813,-6.76809 0.75745,-8.67513 0.88905,-1.25059 1.38306,-2.95843 1.09778,-3.79519 -0.28518,-0.83675 0.18664,-2.75632 1.04828,-4.26571 0.86175,-1.50939 2.42756,-5.18847 3.47958,-8.17573 1.78258,-5.06158 9.04171,-19.54978 10.33293,-20.62307 0.3166,-0.26319 1.51511,-2.46933 2.66329,-4.90255 1.14817,-2.43322 2.94403,-5.58687 3.99097,-7.0081 1.04684,-1.42123 1.92996,-3.28563 1.96249,-4.14309 0.0325,-0.85746 1.26838,-3.54405 2.74623,-5.97019 1.47785,-2.42614 2.71365,-5.66009 2.74624,-7.18653 0.0329,-1.52644 0.68081,-5.76084 1.4405,-9.40977 1.76242,-8.46543 -0.0555,-18.76104 -4.04919,-22.93161 -1.40642,-1.46882 -4.03643,-4.60172 -5.84444,-6.96203 -1.80791,-2.36029 -5.17256,-5.32418 -7.47696,-6.5864 -2.3044,-1.26222 -5.01268,-3.42684 -6.01836,-4.81024 -1.00567,-1.38341 -2.11934,-2.52633 -2.47468,-2.53981 -0.71019,-0.027 -5.40369,-3.48939 -9.53185,-7.03173 -1.45307,-1.24689 -4.04296,-2.63097 -5.75523,-3.07573 -1.7196,-0.44665 -4.89027,-2.76535 -7.08271,-5.17963 -2.18313,-2.40404 -5.50308,-5.4909 -7.37753,-6.8597 -1.87445,-1.36879 -4.06103,-3.08293 -4.85907,-3.80918 -7.39235,-6.72748 -10.66203,-10.36658 -11.89308,-13.23712 -0.7973,-1.85896 -2.13955,-3.99826 -2.98291,-4.75399 -2.22133,-1.99044 -4.20429,-6.62884 -4.09259,-9.57297 0.0597,-1.57435 -0.46403,-2.5691 -1.37088,-2.60351 -0.89026,-0.0338 -1.22026,-0.63346 -0.839,-1.52448 0.35885,-0.83862 -0.0491,-1.75874 -0.95078,-2.14458 -0.86863,-0.37168 -1.55875,-1.21772 -1.53362,-1.88009 0.0251,-0.66238 -0.71572,-3.0065 -1.64628,-5.20918 -1.42827,-3.38033 -2.89887,-11.68203 -3.78149,-21.34655 -0.11357,-1.24269 0.29362,-2.24737 0.9047,-2.23261 0.79864,0.0193 0.81173,-0.19129 0.0464,-0.74878 -1.51621,-1.10466 -1.32437,-9.49464 0.23838,-10.42395 0.96168,-0.57191 0.99733,-0.9604 0.14333,-1.56214 -0.82943,-0.58442 -0.82217,-2.13957 0.027,-5.75311 0.64012,-2.72369 1.23773,-6.41294 1.32808,-8.1983 0.0907,-1.78534 0.49395,-3.23359 0.89696,-3.2183 0.77584,0.0294 1.01223,-0.97848 1.45409,-6.19933 0.15071,-1.78307 0.68858,-3.49189 1.19493,-3.7974 0.50625,-0.3055 1.02999,-1.63661 1.16369,-2.958 0.13419,-1.32139 0.72852,-2.75615 1.32173,-3.18833 0.73235,-0.53353 0.68373,-0.96373 -0.1513,-1.34003 -1.39133,-0.62701 -1.52898,-5.40241 -0.15417,-5.35025 1.57257,0.0597 2.16027,-2.77509 1.21462,-5.85911 -0.63957,-2.08617 -0.56971,-3.58966 0.23012,-4.95754 0.82774,-1.41485 0.85701,-2.76135 0.10484,-4.82037 -0.57414,-1.57141 -0.90495,-3.86674 -0.73514,-5.10074 0.16971,-1.23401 -0.27722,-2.49461 -0.99331,-2.80134 -0.80401,-0.34446 -1.22726,-2.17649 -1.10672,-4.79167 0.10737,-2.32869 -0.2896,-5.37818 -0.88191,-6.77665 -1.57595,-3.72099 -2.09078,-18.23669 -0.67524,-19.03904 0.79894,-0.45282 0.61259,-2.19832 -0.62719,-5.87537 -0.97012,-2.87714 -1.49505,-6.11989 -1.16653,-7.20612 0.32862,-1.08621 0.17851,-1.99083 -0.33342,-2.01025 -1.40079,-0.0532 -4.07729,-6.9063 -3.35574,-8.5925 0.40267,-0.9411 -0.24768,-1.91226 -1.80406,-2.69396 -1.88349,-0.94598 -2.79045,-2.7392 -4.01149,-7.93104 -0.86783,-3.68978 -1.44184,-7.26643 -1.27547,-7.94811 0.16626,-0.68169 -0.16715,-1.25724 -0.74084,-1.27901 -0.57359,-0.0218 -1.01624,-0.74621 -0.98347,-1.60988 0.0328,-0.86365 -0.62664,-2.31072 -1.46554,-3.2157 -0.86936,-0.938 -1.29457,-2.64437 -0.98883,-3.96892 0.33151,-1.43668 0.0588,-2.34162 -0.71582,-2.37101 -1.43177,-0.0543 -2.99324,-5.89804 -3.23359,-12.10201 -0.0313,-0.81066 -0.83773,-2.37825 -1.79181,-3.48353 -0.95408,-1.10529 -2.1834,-3.6419 -2.73195,-5.63692 -0.54846,-1.99503 -1.52624,-4.09772 -2.17271,-4.67264 -1.394,-1.23962 -3.154401,-13.75916 -3.075771,-21.87423 0.0308,-3.15913 -0.281506,-5.76034 -0.69354,-5.78045 -0.412051,-0.0196 -0.704932,-1.27326 -0.650985,-2.7848 0.05734,-1.51141 -0.524781,-4.06176 -1.286062,-5.66714 -0.761281,-1.60539 -1.317215,-4.68515 -1.235309,-6.84392 0.202812,-5.34543 -2.084892,-18.55013 -4.073989,-23.5149 -0.895685,-2.23556 -2.031249,-7.9077 -2.52352,-12.60474 -0.492271,-4.69704 -1.546143,-13.7435 -2.341993,-20.10325 -2.910729,-23.25966 -2.974195,-25.35862 -1.276347,-42.223905 1.579169,-15.686436 2.742993,-21.681286 4.772456,-24.582687 1.032927,-1.47662 14.18942,-1.984041 14.13483,-0.545147 -0.0565,1.48836 6.27117,5.012448 10.29012,5.730949 2.18675,0.390939 4.07359,0.731511 4.19302,0.756837 0.11932,0.02534 -0.067,0.710741 -0.41505,1.523124 -0.40025,0.935338 -0.0429,1.499453 0.97379,1.538026 0.88316,0.03351 1.58868,0.5106 1.56783,1.060205 -0.0208,0.549605 0.7709,1.029969 1.75939,1.067473 0.98849,0.0375 3.60092,1.937918 5.80546,4.223144 2.20444,2.285221 4.31873,4.166735 4.69835,4.181138 1.49253,0.05663 8.00785,8.891473 7.48707,10.152503 -0.3524,0.85317 -0.0311,1.16306 0.88295,0.85153 0.79038,-0.26938 2.19056,0.4091 3.11147,1.50771 0.92091,1.09862 1.41446,1.98762 1.09679,1.97556 -0.31777,-0.0121 0.57719,1.26654 1.9887,2.84131 1.41151,1.57477 4.25961,5.06026 6.32909,7.74553 2.06948,2.68527 4.37606,4.90558 5.12562,4.93401 0.74956,0.0284 1.11314,0.42353 0.80789,0.87797 -0.85879,1.27854 5.07443,7.29873 8.99417,9.12598 5.4969,2.56247 13.17014,4.09942 14.0355,2.81128 0.40273,-0.59957 1.63703,-0.76368 2.74552,-0.36503 2.49605,0.89776 7.40162,-0.0449 6.69751,-1.28704 -0.28475,-0.50249 -1.44567,-0.94883 -2.57975,-0.99186 -1.71956,-0.0652 -1.84592,-0.3193 -0.76114,-1.52995 1.86421,-2.08039 5.35096,-1.64896 8.5334,1.05588 1.51275,1.28565 2.42911,1.77074 2.0365,1.07799 -0.78328,-1.38183 0.59193,-1.53789 4.07114,-0.46198 1.22185,0.37786 2.26794,1.61389 2.39446,2.82916 0.31626,3.04 4.83769,3.13825 6.29264,0.13674 1.18146,-2.43748 2.62481,-2.90464 2.54587,-0.82403 -0.0641,1.6886 6.40634,1.84259 8.1842,0.19479 0.69274,-0.64212 2.12814,-1.13452 3.18978,-1.09424 1.67519,0.0636 1.8795,-0.45774 1.54585,-3.94423 -0.33209,-3.46959 -0.12495,-4.00762 1.51897,-3.94525 1.31016,0.0497 1.93013,-0.63156 1.9891,-2.1856 0.0794,-2.0914 3.35838,-4.96054 5.69295,-4.9814 1.99822,-0.0179 11.6497,-4.63464 11.7207,-5.60655 0.0398,-0.54888 1.12091,-1.91785 2.40206,-3.04216 1.28105,-1.12432 3.03336,-3.30946 3.89401,-4.85586 0.86055,-1.5464 3.37088,-5.603664 5.57844,-9.016131 2.20757,-3.412476 4.02722,-6.560109 4.04371,-6.994736 0.0165,-0.434628 0.71432,-1.023484 1.55073,-1.308557 0.83641,-0.285074 1.54014,-1.029618 1.56385,-1.654528 0.0237,-0.62492 1.10232,-2.34803 2.3969,-3.829132 1.29459,-1.481113 3.76703,-4.334124 5.49433,-6.340038 3.85594,-4.477926 6.89076,-7.208618 7.96608,-7.167818 0.44598,0.01692 0.83641,-0.643752 0.86769,-1.468159 0.0313,-0.824407 0.73139,-1.473329 1.55579,-1.44205 0.82441,0.03128 1.51599,-0.392806 1.53684,-0.942411 0.0209,-0.549604 0.66436,-0.975512 1.43001,-0.946463 0.76555,0.02905 1.64654,-0.542083 1.95763,-1.269181 0.68707,-1.605695 6.93212,-4.397849 9.60929,-4.296274 2.0904,0.07931 4.54286,4.629186 3.40672,6.320436 -0.37377,0.556509 -0.12555,1.383715 0.5506,1.838197 0.67656,0.454498 1.29992,2.566841 1.38513,4.694091 0.0852,2.12724 0.46963,7.883963 0.85429,12.792717 0.38457,4.908735 0.46662,9.271392 0.18227,9.694776 -0.28446,0.423379 -0.0745,1.066942 0.46591,1.430103 1.07831,0.724343 0.63492,16.293118 -0.48208,16.926228 -0.38086,0.21591 -0.61357,2.12137 -0.51712,4.23435 0.0965,2.11299 0.23148,5.42006 0.29999,7.34904 0.0685,1.92898 0.69129,4.77936 1.38394,6.33415 0.96341,2.16239 0.97347,3.09197 0.0429,3.95447 -0.66909,0.62016 -1.23607,1.82482 -1.2599,2.67703 -0.0378,1.36535 0.0784,1.3757 0.982,0.0873 0.76712,-1.09372 0.99511,-0.55641 0.90451,2.13218 -0.065,1.97696 0.53659,5.04807 1.34031,6.82482 1.33396,2.94881 1.29807,3.85513 -0.41143,10.39551 -2.52265,9.65166 -3.1722,13.2621 -3.39115,18.84815 -0.10126,2.66905 -0.7361,5.04239 -1.44973,5.44895 -2.37746,1.35436 -6.42284,15.67816 -6.78596,24.02774 -0.10783,2.47269 0.0629,6.9824 0.37882,10.02157 0.3159,3.03916 0.51969,6.76206 0.45296,8.27312 -0.0673,1.51103 0.18852,2.75913 0.56745,2.77351 0.37893,0.0144 0.48955,4.29658 0.24589,9.51601 -0.24407,5.21942 -0.0756,9.50389 0.37369,9.52101 0.44917,0.0171 0.4964,0.92186 0.10485,2.0105 -0.46853,1.30279 -0.19655,2.19985 0.79567,2.62444 0.82914,0.35479 1.74859,1.51821 2.04324,2.58536 0.81165,2.93937 5.90395,5.41493 9.91312,4.81915 1.87008,-0.27789 3.41639,-0.93457 3.4363,-1.45926 0.0199,-0.52471 0.37143,-0.88796 0.78116,-0.80724 1.85419,0.36532 3.25549,-0.083 3.29231,-1.05337 0.0221,-0.58204 -0.42007,-0.7974 -0.98256,-0.47858 -0.5625,0.31883 -1.00465,0.10347 -0.98257,-0.47857 0.0221,-0.58204 0.52191,-1.03998 1.11079,-1.01764 0.58887,0.0223 1.77083,-0.6083 2.62652,-1.40143 0.85568,-0.79312 2.68987,-1.39902 4.07608,-1.34642 1.67529,0.0636 2.71994,-0.56417 3.11551,-1.87198 0.32727,-1.08219 0.9843,-1.70617 1.46002,-1.38663 0.47573,0.31954 0.88219,0.12514 0.90333,-0.43199 0.0211,-0.55714 1.6235,-1.24853 3.56081,-1.53641 2.01742,-0.29979 3.54488,-1.11636 3.57503,-1.91115 0.029,-0.76324 0.97369,-1.35276 2.09948,-1.31005 1.12579,0.0427 3.94241,-0.75107 6.25918,-1.76396 2.31687,-1.01288 4.80243,-1.81923 5.52361,-1.79186 0.72118,0.0274 1.32932,-0.42647 1.3514,-1.00851 0.0221,-0.58204 0.52837,-0.73029 1.1251,-0.32946 0.59674,0.40083 1.45553,0.17714 1.90842,-0.4971 0.48609,-0.72362 1.34672,-0.87438 2.10066,-0.36795 1.7175,1.15369 11.07421,0.95371 12.67148,-0.27084 0.7014,-0.53774 1.89153,-0.71397 2.64485,-0.39163 0.75332,0.32234 1.80135,0.18591 2.32907,-0.30318 0.52763,-0.4891 3.5942,-1.0131 6.81455,-1.16447 3.22026,-0.15135 7.49287,-0.63772 9.49461,-1.08081 2.00173,-0.44308 7.15786,-0.8735 11.4579,-0.95649 4.30014,-0.083 8.10294,-0.41462 8.45072,-0.73697 0.34777,-0.32236 1.45668,-0.55482 2.46435,-0.51659 2.33962,0.0888 2.49199,-1.87259 0.16265,-2.0977 -1.80448,-0.1744 4.16088,-1.76955 6.82409,-1.82475 0.82625,-0.0172 1.981,-0.37636 2.56611,-0.79828 1.20161,-0.86638 3.39122,-0.61124 5.18094,0.60372 0.75257,0.51085 2.58438,-0.46213 4.88519,-2.59477 3.10017,-2.87346 4.37461,-3.38579 8.07335,-3.24546 2.67987,0.10168 5.03427,-0.42851 6.03921,-1.35999 2.3816,-2.2075 14.11762,-0.8091 19.46545,2.31939 3.03673,1.77654 7.50751,1.19728 7.41838,-0.96116 -0.0645,-1.5619 0.86364,-2.13962 2.87409,-1.78894 0.36386,0.0634 3.16968,0.29273 6.23517,0.50948 3.06555,0.21675 5.55976,0.76163 5.54272,1.21085 -0.017,0.4492 2.41002,0.66131 5.39348,0.47135 4.65693,-0.29652 5.49823,-0.0836 5.94568,1.50488 0.66891,2.3746 10.74604,6.0064 17.79969,6.41502 3.93671,0.22802 6.23778,1.03399 9.36909,3.28142 2.2829,1.63851 4.4207,2.72888 4.75066,2.42304 0.32997,-0.30584 1.63613,0.1805 2.90259,1.08075 1.26647,0.90024 3.74211,1.8775 5.50144,2.17169 11.49215,1.92162 14.5413,3.34167 14.4566,6.73268 -0.0167,0.65028 0.85636,1.50097 1.93911,1.89039 1.08275,0.38942 2.58127,1.36898 3.33002,2.1768 0.74875,0.80781 4.97838,2.23873 9.39917,3.17983 6.00298,1.2779 8.91882,2.46989 11.51789,4.70848 4.51479,3.88862 9.35538,6.72754 10.76998,6.31644 0.61611,-0.17905 2.38855,0.58143 3.93876,1.68994 1.55021,1.10851 3.54407,2.04598 4.43079,2.08325 0.88671,0.0376 2.7593,1.30532 4.1613,2.8179 1.402,1.51258 2.83298,2.48699 3.17997,2.16536 0.347,-0.32162 2.1805,0.69294 4.07446,2.25459 1.89396,1.56165 3.59956,2.62011 3.79023,2.35215 0.19067,-0.26797 1.90293,0.85422 3.80502,2.49374 1.9021,1.63951 3.7092,2.74842 4.01581,2.46425 0.30659,-0.28419 1.46063,0.3911 2.56452,1.50062 1.10388,1.10954 2.59679,2.0397 3.31756,2.06705 0.72077,0.0273 1.29377,0.49072 1.27332,1.02972 -0.0204,0.53901 2.16334,2.08541 4.85287,3.43647 3.45601,1.73608 4.87825,3.04294 4.84983,4.45637 -0.0297,1.47995 0.19261,1.6617 0.85528,0.69907 0.721,-1.04734 1.00213,-0.98792 1.44278,0.30493 0.30101,0.88317 1.4057,1.63832 2.45486,1.67813 1.04917,0.0398 2.44013,0.76599 3.09105,1.61375 0.65092,0.84777 3.00948,2.16483 5.24125,2.92682 2.23177,0.76199 4.82522,2.21344 5.76323,3.22542 1.47105,1.58709 4.31731,2.47096 6.9472,2.15737 0.41467,-0.0494 0.72836,0.58462 0.69708,1.40902 -0.055,1.44841 1.04734,1.95863 3.70109,1.71313 0.69781,-0.0646 1.52233,0.62661 1.83225,1.53594 0.4418,1.29621 0.74838,1.37807 1.41947,0.37902 0.66402,-0.98853 0.9894,-0.88279 1.45099,0.47151 0.32726,0.96019 1.02872,1.76224 1.55877,1.78235 0.53006,0.0201 1.56921,0.62244 2.30922,1.33851 3.02792,2.92997 4.00039,3.59374 6.96854,4.75644 1.70802,0.66907 3.37854,0.96341 3.71227,0.65409 0.33372,-0.30932 0.58872,-0.0866 0.56665,0.49492 -0.0221,0.58153 1.71392,1.83755 3.85775,2.79113 4.40875,1.9611 7.86152,4.83558 7.79866,6.49254 -0.0233,0.61299 2.40177,2.05009 5.38895,3.19355 4.80755,1.84028 6.7313,3.19052 13.30073,9.33563 0.87771,0.82101 2.52869,1.82825 3.66884,2.23831 1.14015,0.41008 2.50506,1.63212 3.03313,2.71567 0.52806,1.08357 1.44702,1.98858 2.04214,2.01116 0.59511,0.0226 2.5673,1.44837 4.38263,3.16844 1.81534,1.72006 3.95948,3.15238 4.76477,3.18294 0.88124,0.0334 1.42774,1.01493 1.37271,2.46533 -0.0659,1.73579 0.40065,2.34981 1.66797,2.19538 2.03925,-0.2485 4.61665,2.33187 5.49059,5.49691 0.33376,1.20874 1.02407,2.26984 1.53404,2.35799 0.50995,0.0882 1.37261,0.28975 1.917,0.448 0.54439,0.15826 1.32467,0.36363 1.73395,0.45638 0.40927,0.0928 0.0531,0.57896 -0.79154,1.08046 -1.02378,0.60787 -1.1195,0.93271 -0.28715,0.9745 0.6867,0.0341 2.01302,0.87976 2.9474,1.87841 0.93439,0.99864 2.93588,2.6867 4.44774,3.75123 1.51187,1.06453 2.50262,2.16376 2.20166,2.44271 -0.30096,0.27896 0.50546,1.73252 1.79206,3.23014 1.28659,1.49763 2.32628,3.0648 2.31043,3.48262 -0.0159,0.41782 0.6598,0.7858 1.50145,0.81774 0.84167,0.0319 1.78907,0.85594 2.10534,1.83114 0.31628,0.97519 2.27415,3.36726 4.35082,5.31569 2.07667,1.94845 4.15926,4.67929 4.62798,6.06852 0.46871,1.38924 1.13198,2.26659 1.47391,1.94966 0.78359,-0.72631 9.03456,8.34988 8.97671,9.87452 -0.0235,0.6201 0.22878,0.87575 0.56069,0.56812 0.59465,-0.55119 8.13976,7.49784 8.09653,8.63726 -0.0122,0.32231 1.07913,1.23033 2.42524,2.0178 1.34611,0.78749 2.43407,1.78503 2.41769,2.21679 -0.039,1.02735 3.85152,5.19663 8.1779,8.76391 1.89472,1.56226 3.25274,3.0186 3.01784,3.23632 -0.23489,0.21772 1.03365,2.06735 2.81897,4.11028 1.78533,2.04291 3.22285,4.32602 3.19449,5.07355 -0.0284,0.74753 0.62295,1.38473 1.44736,1.41601 0.8244,0.0313 1.48282,0.48118 1.46314,0.99977 -0.0197,0.5186 2.55799,3.79408 5.72815,7.27883 3.17016,3.48476 5.74587,6.81201 5.72379,7.39388 -0.0452,1.18988 6.64706,8.08628 7.89272,8.13354 0.4422,0.0168 0.78858,0.43684 0.76974,0.93347 -0.0308,0.81149 2.39953,4.09324 8.14314,10.99595 1.0813,1.29952 2.59034,2.52843 3.35341,2.73092 1.80683,0.47942 5.81924,4.64806 5.76822,5.99282 -0.0218,0.57459 0.43202,1.06258 1.00849,1.08445 0.57648,0.0219 1.78439,1.86701 2.68424,4.1003 0.89985,2.23328 1.98019,3.74158 2.40076,3.35176 0.42057,-0.38981 1.17324,0.091 1.67261,1.06861 0.49938,0.97755 1.50769,1.80012 2.24068,1.82793 1.20051,0.0455 2.54968,2.82736 2.76268,5.6963 0.0446,0.60024 0.83116,1.90063 1.748,2.88979 0.91685,0.98915 1.65457,2.12567 1.63939,2.52562 -0.0152,0.39994 1.53158,1.35878 3.43723,2.13077 1.90565,0.77198 3.20844,1.78528 2.89509,2.25175 -0.74476,1.10874 4.31309,6.15363 6.2635,6.24745 1.06972,0.0515 1.15308,0.28005 0.28656,0.78588 -0.90048,0.52564 -0.71722,1.58175 0.69651,4.01398 1.05518,1.81536 2.32403,3.31605 2.81966,3.33485 0.49564,0.0188 0.88171,0.54671 0.85794,1.17313 -0.0238,0.62641 0.71925,1.81381 1.65115,2.63865 0.93189,0.82485 1.14306,1.19368 0.46926,0.81961 -1.88153,-1.04454 1.42768,1.5832 3.65763,4.98049 1.10345,1.6811 2.02717,4.26245 2.05271,5.73632 0.0255,1.47387 1.11738,3.90313 2.42633,5.39836 6.49853,7.42336 8.34946,10.03598 8.87528,12.5276 0.31514,1.49335 1.04063,2.7329 1.6122,2.75459 0.57157,0.0217 0.74424,0.47856 0.38372,1.01528 -0.36053,0.53671 -0.14076,0.99538 0.48836,1.01925 0.62914,0.0239 2.51618,1.43137 4.19345,3.12778 5.88876,5.956 7.8186,10.14386 8.46162,10.17299 0.83567,0.0377 7.57182,7.28873 7.56925,8.14762 -10e-4,0.35771 1.42234,1.41554 3.16315,2.35073 1.7408,0.93518 3.71792,2.95074 4.39359,4.47902 0.67566,1.5283 2.29658,3.31517 3.60204,3.97084 1.30545,0.65566 2.35069,1.79446 2.32276,2.53065 -0.0279,0.73618 0.36029,1.35411 0.86271,1.37318 0.50242,0.0191 2.43361,1.62724 4.29153,3.57374 1.85793,1.9465 4.30035,3.87082 5.42762,4.27625 1.12727,0.40543 2.03434,1.13901 2.01571,1.63017 -0.0493,1.29861 3.98003,5.13791 4.86548,4.63604 0.41336,-0.2343 0.96161,0.52287 1.21833,1.68259 0.25671,1.15973 0.90788,1.85858 1.44696,1.55301 0.53907,-0.30557 2.5338,1.30094 4.43253,3.57001 1.89884,2.26906 3.87287,4.14153 4.3869,4.16103 0.51403,0.0195 1.21256,1.04213 1.55225,2.27251 0.6142,2.22456 4.72967,6.34938 6.66492,6.68012 0.55739,0.0953 1.53692,0.24501 2.17665,0.33277 0.63984,0.0877 2.09222,1.7985 3.22759,3.80163 1.17317,2.06973 2.63249,3.44846 3.38019,3.19359 0.72367,-0.24666 1.52602,0.16815 1.78283,0.92179 0.25691,0.75364 1.70901,2.0367 3.22699,2.85124 1.576,0.84566 2.6208,2.15493 2.4356,3.05195 -0.2169,1.05124 0.6838,1.81263 2.7228,2.30149 3.1465,0.7544 8.2194,1.7791 8.1525,3.54399 -0.046,1.22271 4.9558,1.69303 5.5106,0.42099 0.2094,-0.47987 0.9916,-0.32504 1.7382,0.34405 0.9246,0.82841 1.7684,0.91012 2.645,0.2561 1.5508,-1.15698 13.3853,0.73938 15.2954,2.45093 0.6995,0.62685 2.8292,1.24307 4.7325,1.36937 1.9034,0.12626 3.2237,0.58252 2.934,1.01382 -0.2897,0.4313 -0.01,0.80383 0.625,0.82787 0.6336,0.024 1.3993,-0.77452 1.7017,-1.77458 0.5304,-1.7533 0.6875,-1.7436 4.3993,0.27149 2.1171,1.14938 3.8357,2.44847 3.8191,2.88687 -0.05,1.32644 6.0395,3.43544 11.8121,4.09071 2.9916,0.33958 5.7099,1.09492 6.0406,1.67852 0.7161,1.26335 12.0489,0.89697 14.8763,-0.48092 1.0457,-0.50961 3.8732,-1.09648 6.2834,-1.30415 2.4101,-0.20767 5.2923,-0.63146 6.4049,-0.94175 2.0347,-0.56746 5.0694,-0.85049 9.3488,-0.87194 1.3659,-0.007 2.0582,-0.4578 1.6927,-1.10269 -0.3402,-0.60012 -0.016,-0.95492 0.7213,-0.78844 2.9604,0.66875 12.2162,-0.97485 13.8219,-2.45442 0.9416,-0.86759 3.0625,-1.68141 4.7132,-1.8085 1.6507,-0.12709 3.1665,-0.63248 3.3686,-1.12309 0.2021,-0.49061 1.0045,-0.86785 1.783,-0.83831 0.7787,0.0296 1.4328,-0.39596 1.4536,-0.94557 0.021,-0.5496 0.6608,-0.97564 1.4221,-0.94676 2.6279,0.0997 11.7319,-2.86385 11.7686,-3.83091 0.02,-0.53342 0.7742,-0.32382 1.6755,0.46577 0.9012,0.78957 1.3489,0.90752 0.9946,0.26209 -0.3916,-0.71343 1.4521,-2.40896 4.7025,-4.32481 2.9407,-1.73323 5.5841,-3.20288 5.8742,-3.26592 3.5388,-0.76869 5.1366,-1.74135 5.7617,-3.50752 0.4117,-1.16335 1.2642,-2.46764 1.8944,-2.89842 0.826,-0.56471 1.4726,-1.07193 1.7923,-2.0076 0.7914,-1.5214 -0.6223,0.33626 2.5279,-2.51782 1.905,-1.72589 4.0584,-2.61423 6.354,-2.62122 1.9098,-0.006 2.7344,-3.78304 3.6343,-3.80724 1.6188,-0.0436 1.9406,-1.0291 2.7951,-5.61781 0.1056,-0.56533 1.6579,-1.82071 3.4502,-2.78974 4.4379,-2.39933 20.2952,-2.1105 22.4064,0.40812 0.765,0.91262 1.0938,2.35383 0.7305,3.20268 -0.3808,0.88993 0.1911,2.46207 1.3508,3.71326 1.23,1.32697 1.8888,3.23968 1.6961,4.92379 -0.1734,1.51463 -0.015,3.28418 0.3527,3.93234 0.3674,0.64816 0.2277,1.42798 -0.3104,1.73296 -0.6133,0.34767 -0.6157,1.73696 -0.01,3.72444 0.8277,2.69993 0.6913,3.35917 -0.9202,4.44621 -1.0405,0.70196 -1.5262,1.29016 -1.079,1.30712 0.4472,0.017 0.2319,0.67933 -0.4783,1.47192 -0.7102,0.79258 -1.6807,1.17951 -2.1566,0.85983 -0.4759,-0.31967 -0.8833,-0.10507 -0.9054,0.47702 -0.022,0.58205 0.3068,1.70594 -0.4158,1.67852 -1.6453,-0.0624 -4.9177,6.03956 -5.0456,9.40841 -0.054,1.42773 -0.2514,4.38305 -0.8035,4.01215 -0.5368,-0.36053 -1.0025,0.0455 -1.035,0.90239 -0.033,0.85684 0.2595,1.94155 -1.1378,1.51697 -0.072,3.04422 -2.0502,0.29477 -0.763,5.58359 0.2609,1.07225 0.054,1.62077 -0.4767,1.2642 -0.5157,-0.34644 -1.4856,0.46101 -2.1553,1.79434 -0.6697,1.33332 -1.9283,2.39726 -2.7969,2.3643 -0.8686,-0.033 -1.3218,0.39434 -1.0072,0.94955 0.3147,0.55521 -0.3127,1.88998 -1.3944,2.96614 -1.0817,1.07617 -2.6269,3.16241 -3.4338,4.6361 -0.8068,1.47369 -2.2813,3.54918 -3.2766,4.61221 -1.8286,1.95318 -1.9419,2.22597 -2.0443,4.92603 -0.031,0.82441 -0.5542,1.48005 -1.1622,1.45698 -0.6078,-0.0231 -2.0322,1.04871 -3.1652,2.38171 -1.1328,1.33301 -2.8714,2.39285 -3.8634,2.35522 -0.9921,-0.0376 -2.3891,0.58484 -3.1046,1.38328 -0.7155,0.79845 -2.1452,1.41969 -3.177,1.38054 -1.032,-0.0391 -1.8922,0.34819 -1.9116,0.86076 -0.02,0.51257 -0.9456,1.18326 -2.058,1.49043 -1.1125,0.30718 -2.0515,1.31937 -2.0868,2.24934 -0.071,1.87223 -3.9692,4.58795 -5.9104,4.11754 -0.6817,-0.16522 -1.2573,0.169 -1.2791,0.7427 -0.022,0.57369 -1.0559,1.00452 -2.2981,0.95739 -1.2422,-0.0471 -3.4166,0.8836 -4.8319,2.06829 -1.4153,1.1847 -3.8341,2.74515 -5.3751,3.46769 -1.541,0.72253 -2.817,1.71392 -2.8356,2.20309 -0.019,0.48917 -0.49,0.58292 -1.0477,0.20833 -0.5576,-0.37459 -2.5164,0.81021 -4.3529,2.63287 -3.1186,3.09513 -3.7934,3.31113 -10.2208,3.27153 -3.7849,-0.0233 -7.9932,0.33262 -9.3518,0.79098 -2.936,0.99058 -10.2709,0.72774 -15.7964,-0.56611 -3.1408,-0.7354 -4.8171,-0.52628 -8.0438,1.00338 -2.2419,1.06281 -4.3803,2.31955 -4.752,2.79274 -0.3716,0.47319 -1.948,0.47915 -3.503,0.0132 -4.4192,-1.32411 -22.2812,-2.43059 -22.321,-1.3827 -0.08,2.10186 -36.3056,-1.91709 -37.7947,-4.19299 -0.2983,-0.456 -3.8735,-2.05021 -7.9449,-3.54269 -4.0713,-1.49247 -7.6181,-2.96319 -7.8817,-3.26827 -2.0821,-2.40935 -6.3663,-3.51014 -12.8196,-3.29384 -5.00819,0.16787 -7.55959,-0.17052 -8.76917,-1.16305 -0.93829,-0.7699 -2.49235,-1.44397 -3.45349,-1.49795 -0.98042,-0.055 -1.72511,-0.86598 -1.69648,-1.84744 0.0439,-1.50074 -0.0996,-1.54174 -1.00879,-0.28846 -0.93303,1.28602 -1.20301,1.25933 -2.25576,-0.22302 -1.73027,-2.43647 -9.7958,-5.36869 -10.79675,-3.92518 -0.52869,0.76244 -0.76936,0.64125 -0.75149,-0.37842 0.0155,-0.88292 -0.29139,-1.10042 -0.7458,-0.52865 -1.2805,1.61112 -3.31066,1.4952 -3.89606,-0.22248 -0.3547,-1.04078 -0.80342,-1.23853 -1.26193,-0.55608 -0.46635,0.69427 -1.42467,0.34211 -2.78222,-1.02238 -1.13897,-1.14472 -2.50903,-2.09799 -3.04459,-2.11831 -0.53554,-0.0203 -1.22504,-0.94712 -1.53221,-2.05957 -0.40999,-1.48479 -1.43612,-2.05593 -3.85897,-2.14785 -3.13967,-0.11912 -4.77521,-1.19093 -19.0186,-12.46337 -1.2905,-1.02132 -2.82558,-2.36765 -3.41129,-2.99184 -2.72571,-2.9048 -10.10299,-7.15144 -12.90477,-7.42849 -3.54077,-0.35011 -5.59704,-1.45184 -4.83291,-2.5894 0.84453,-1.25726 -10.63174,-11.47947 -12.98813,-11.56887 -0.57186,-0.0217 -1.02268,-0.48913 -1.00183,-1.03873 0.0208,-0.54961 -0.86144,-1.0334 -1.96065,-1.07511 -1.09921,-0.0417 -1.97464,-0.70635 -1.9454,-1.47699 0.0292,-0.77064 -1.28387,-1.92492 -2.91803,-2.56506 -1.63416,-0.64013 -3.23926,-1.98349 -3.5669,-2.98521 -0.32762,-1.00172 -3.73406,-5.16253 -7.56986,-9.24624 -3.83579,-4.0837 -6.69653,-7.68225 -6.3572,-7.99677 0.33933,-0.31453 -0.095,-0.59887 -0.96524,-0.63188 -0.8702,-0.033 -1.78768,-0.63074 -2.03883,-1.32826 -0.33637,-0.93421 -0.48941,-0.95261 -0.5811,-0.0698 -0.0684,0.65912 -1.27249,0.0505 -2.67562,-1.35242 -1.40313,-1.40299 -3.42522,-2.58402 -4.49353,-2.62455 -2.12342,-0.0806 -7.5762,-5.1014 -7.50748,-6.91277 0.0236,-0.62085 -1.62266,-3.03732 -3.65825,-5.36992 -2.0356,-2.33259 -3.52373,-4.40547 -3.30696,-4.6064 0.21678,-0.20091 -2.26717,-1.68305 -5.51987,-3.29361 -3.25271,-1.61056 -5.89862,-3.33381 -5.87982,-3.82946 0.0188,-0.49564 -1.66115,-2.82438 -3.73324,-5.17496 -2.07209,-2.35059 -4.41284,-5.77868 -5.20165,-7.61799 -0.86261,-2.01133 -2.71346,-3.93184 -4.64389,-4.81862 -1.76531,-0.81095 -3.26108,-1.26254 -3.32391,-1.00356 -0.0629,0.25899 -0.79279,-0.13716 -1.62213,-0.88032 -1.83928,-1.64814 -6.39435,-0.92194 -9.31234,1.48464 -1.13634,0.93719 -3.16115,1.81449 -4.49957,1.94957 -2.67949,0.2704 -9.20083,7.75762 -9.42838,10.82483 -0.0807,1.08708 -1.37342,2.24724 -3.17676,2.85085 -1.67242,0.5598 -3.05675,1.43888 -3.07627,1.95352 -0.0663,1.74745 -5.37946,7.42653 -6.89426,7.36906 -0.82887,-0.0314 -1.24729,0.40109 -0.92983,0.96119 0.31746,0.5601 -0.70484,1.49967 -2.27178,2.08795 -4.49581,1.68784 -12.51722,6.75225 -12.59104,7.94949 -0.0799,1.29542 -4.48091,3.24296 -7.10351,3.14346 -1.36602,-0.0518 -1.73968,0.46395 -1.41119,1.94789 0.24981,1.12848 -0.0452,1.99973 -0.66902,1.97606 -0.61371,-0.0233 -1.15666,1.03375 -1.20656,2.34895 -0.0872,2.29777 -2.40242,4.02762 -4.77582,3.5683 -0.62129,-0.12024 -1.48578,1.01433 -1.9211,2.52126 -0.43531,1.50693 -1.64673,3.60807 -2.69203,4.6692 -1.04531,1.06113 -2.09815,2.82248 -2.33964,3.91411 -0.2415,1.09163 -0.98046,1.96424 -1.64211,1.93913 -0.66167,-0.0251 -2.03045,0.60672 -3.04173,1.40405 -1.01129,0.79733 -2.60624,1.26934 -3.54434,1.0489 -1.15468,-0.27132 -2.18759,0.6533 -3.1977,2.86246 -1.76103,3.85152 -1.97685,11.97517 -0.33455,12.59272 0.63129,0.23739 1.13098,0.87522 1.1104,1.4174 -0.0206,0.54218 1.23724,2.99772 2.79513,5.45674 1.55789,2.45902 2.80983,5.06906 2.7821,5.80004 -0.0277,0.731 1.02776,2.58414 2.34555,4.11807 1.31779,1.53395 2.36112,3.70797 2.3185,4.83117 -0.0426,1.12319 0.25979,2.05462 0.67201,2.06985 1.16024,0.043 0.0396,11.05388 -1.27427,12.52008 -1.3731,1.53234 0.24779,8.1976 2.49152,10.24536 0.81838,0.74691 1.13691,2.28836 0.78658,3.80643 -0.32383,1.40317 -0.20852,2.80662 0.25621,3.11881 0.46474,0.31218 0.80472,1.62881 0.75551,2.92584 -0.091,2.39813 2.55022,8.85129 3.89224,9.50976 0.40526,0.19885 0.71578,0.91627 0.69005,1.5943 -0.0257,0.67801 1.12379,3.753 2.55449,6.83329 1.43068,3.08028 2.48394,6.01718 2.34056,6.52644 -1.4394,5.11266 -4.292,12.28125 -4.87823,12.25901 -0.40567,-0.0154 -1.05857,1.3108 -1.45088,2.94708 -0.39232,1.63629 -1.78175,5.07358 -3.08763,7.63843 -1.30587,2.56485 -2.34093,5.67786 -2.30013,6.91779 0.0408,1.23994 -0.37046,2.23757 -0.91391,2.21695 -0.54345,-0.0206 -1.00807,0.4892 -1.0325,1.13293 -0.0244,0.64372 -0.75367,1.89679 -1.62057,2.78458 -2.35422,2.41098 -7.97689,12.79174 -8.05585,14.873 -0.0379,0.99861 -0.51857,1.79861 -1.06817,1.77775 -0.54961,-0.0208 -1.02403,0.61426 -1.05427,1.41136 -0.0302,0.79709 -0.6775,1.78576 -1.43835,2.19704 -1.75586,0.94913 -3.30942,3.66318 -5.56755,9.72643 -2.58067,6.9293 -4.22206,10.21644 -5.08507,10.1837 -0.41544,-0.0158 -0.78668,0.53305 -0.82496,1.21959 -0.0383,0.68655 -0.99162,2.33909 -2.11852,3.67232 -1.1269,1.33324 -2.08876,3.21062 -2.13747,4.17196 -0.0487,0.96135 -0.45368,1.73405 -0.89993,1.71712 -0.94265,-0.0358 -5.48902,5.44712 -5.91196,7.12978 -0.62483,2.48588 -2.72892,6.39344 -3.75616,6.97568 -0.59719,0.33849 -1.12176,1.5632 -1.16571,2.72157 -0.0439,1.15837 -0.34361,1.82163 -0.66592,1.47391 -0.67943,-0.73303 -5.67972,7.52243 -5.7548,9.50114 -0.0277,0.73123 -0.95643,1.53006 -2.06374,1.77518 -1.10732,0.24513 -2.30433,1.26546 -2.66003,2.26741 -0.72943,2.05468 -1.2415,2.88226 -4.10365,6.63222 -1.10992,1.45416 -2.80988,4.71776 -3.77768,7.25228 -1.92523,5.04195 -8.59244,14.80988 -10.08945,14.7817 -1.78383,-0.0336 -7.7143,4.23348 -7.77267,5.59243 -0.22732,5.29229 -29.06784,19.04652 -39.13661,18.6645 -1.36071,-0.0516 -3.74429,0.33468 -5.29685,0.85849 -2.74755,0.92701 -4.39262,1.07634 -18.8075,1.70677 -7.9513,0.34768 -13.60054,-0.67204 -13.53335,-2.44296 0.0256,-0.67502 -1.05819,-1.7821 -2.40845,-2.46028 -1.35026,-0.67818 -2.44012,-1.62569 -2.42192,-2.10553 0.0182,-0.47996 -1.15111,-2.3002 -2.5985,-4.04504 -1.44739,-1.74492 -3.15918,-3.87475 -3.80397,-4.73301 -0.75832,-1.00949 -0.98298,-4.40304 -0.63613,-9.60944 0.62159,-9.33014 1.6143,-8.75379 -12.01353,-6.9743 -17.66917,2.30717 -34.2148,3.24924 -52.03103,2.96264 l -18.38329,-0.2958 -3.91315,-3.34236 c -5.22646,-4.46407 -10.25709,-10.29139 -10.23132,-11.85163 0.0115,-0.69497 0.59422,-2.10869 1.29499,-3.14146 1.00991,-1.48838 1.00346,-2.43311 -0.0311,-4.55586 -1.0365,-2.12682 -1.04064,-2.82808 -0.0201,-3.40661 0.70682,-0.40059 1.22362,-1.13975 1.14847,-1.64256 -0.33578,-2.24652 0.40505,-3.33521 3.51394,-5.1638 1.82962,-1.07616 2.73823,-1.98655 2.01913,-2.0231 -3.83815,-0.19516 3.64964,-4.44596 9.14529,-5.1918 1.86286,-0.25283 3.55307,-0.8799 3.75601,-1.39351 0.20296,-0.5136 0.79085,-0.91781 1.30644,-0.89825 0.51559,0.0196 2.84911,-1.12778 5.18559,-2.54964 2.47193,-1.50429 4.38164,-2.12763 4.56739,-1.49084 0.21669,0.74286 1.84484,0.87915 5.06903,0.42435 9.31721,-1.31429 10.81771,-1.28161 13.95787,0.3039 2.33426,1.1786 3.70734,1.34842 5.16376,0.63864 1.09118,-0.53178 2.902,-0.93204 4.02407,-0.88947 3.00626,0.11406 8.37979,-3.11892 7.23564,-4.35332 -1.29777,-1.40013 1.1079,-5.79941 3.7398,-6.83902 1.14363,-0.45173 2.1085,-1.27056 2.14413,-1.8196 0.0356,-0.54905 2.50123,-3.22135 5.47909,-5.93844 2.97787,-2.7171 5.43205,-5.40816 5.45375,-5.98014 0.0217,-0.57198 0.94964,-1.29128 2.06209,-1.59846 1.11244,-0.30716 2.0556,-1.42754 2.0959,-2.48971 0.0403,-1.06217 0.72544,-1.90648 1.52254,-1.87624 0.7971,0.0302 1.93747,-0.71455 2.53416,-1.65511 0.5967,-0.94055 1.0837,-1.31726 1.08221,-0.83713 -0.005,1.75195 3.09169,-1.55752 3.16074,-3.37747 0.0391,-1.03191 0.52086,-1.85915 1.07046,-1.8383 0.54961,0.0209 1.02428,-0.62078 1.05482,-1.42585 0.0306,-0.80507 1.01631,-1.93199 2.19058,-2.50427 1.17428,-0.57228 3.04789,-2.90923 4.1636,-5.19322 1.1157,-2.284 2.99207,-4.96041 4.16969,-5.94756 1.17764,-0.98717 1.93698,-2.39392 1.68742,-3.1261 -0.24955,-0.7322 -0.077,-1.31697 0.38343,-1.2995 0.46045,0.0175 1.16346,-1.58784 1.56225,-3.56736 0.3988,-1.97951 1.53077,-4.42423 2.51549,-5.43271 1.38603,-1.41944 1.81548,-3.46587 1.9014,-9.06039 0.19097,-12.43401 -0.7472,-16.96562 -4.30764,-20.80689 -0.92606,-0.9991 -2.63211,-4.06943 -3.79124,-6.82296 -1.44205,-3.42564 -5.4723,-8.53081 -12.76415,-16.16847 -5.86116,-6.13913 -11.24346,-11.18432 -11.96065,-11.21153 -0.71718,-0.0272 -1.28692,-0.49915 -1.26607,-1.04876 0.038,-1.00259 -3.38842,-5.13216 -4.28661,-5.16624 -0.26349,-0.01 -2.31896,-2.21247 -4.56772,-4.89438 -2.24876,-2.68192 -5.06072,-5.96135 -6.24879,-7.28762 -1.18807,-1.32627 -2.14283,-2.86716 -2.1217,-3.42422 0.0211,-0.55706 -0.42179,-0.75199 -0.98428,-0.43316 -0.5625,0.31882 -1.00093,0.005 -0.97429,-0.69659 0.0513,-1.35344 -4.50331,-6.01592 -5.92967,-6.07003 -0.46412,-0.0176 -0.81963,-0.6704 -0.79003,-1.45064 0.0296,-0.78025 -5.13621,-7.05492 -11.47959,-13.94372 -6.34338,-6.88881 -11.50995,-13.14379 -11.48126,-13.89995 0.0287,-0.75618 -1.45651,-3.15284 -3.30044,-5.32592 -1.84394,-2.1731 -3.33966,-4.29243 -3.32383,-4.70965 0.0158,-0.41722 -1.05276,-1.92543 -2.37464,-3.35157 -1.32188,-1.42614 -2.3892,-2.96767 -2.37183,-3.42562 0.0174,-0.45795 -1.24009,-2.44 -2.79437,-4.40456 -1.55428,-1.96457 -2.8307,-3.92952 -2.83649,-4.36655 -0.006,-0.43705 -1.08871,-2.04966 -2.4065,-3.58361 -1.31779,-1.53393 -2.37448,-3.35567 -2.3482,-4.04829 0.0263,-0.69262 -0.33805,-1.27395 -0.80963,-1.29184 -1.00595,-0.0382 -5.77397,-9.8159 -5.70269,-11.69446 0.0268,-0.7064 -0.56182,-1.83145 -1.30804,-2.50012 -0.74622,-0.66869 -1.61533,-2.441 -1.93135,-3.93849 -0.31602,-1.49749 -0.87221,-2.96367 -1.23598,-3.25818 -0.36376,-0.29452 -1.62812,-3.04894 -2.80969,-6.12095 -1.18157,-3.07201 -2.72402,-6.8026 -3.42765,-8.29021 -0.70364,-1.4876 -1.20414,-4.68676 -1.11223,-7.10922 0.14171,-3.73515 -0.27568,-4.75858 -2.74664,-6.73463 -1.6026,-1.28158 -2.88871,-2.99119 -2.85806,-3.79915 0.0307,-0.80795 -0.29821,-1.48243 -0.73089,-1.49885 -0.43259,-0.0164 -0.82031,-0.93326 -0.86148,-2.03744 -0.0412,-1.10418 -2.44941,-4.5695 -5.35168,-7.70073 l -5.27695,-5.69313 -6.06531,0.40223 c -3.33588,0.22122 -5.84076,0.79819 -5.56651,1.28216 0.70045,1.23568 -4.35406,0.91077 -6.64059,-0.42687 -1.04145,-0.60927 -1.90844,-0.71827 -1.9265,-0.24219 -0.034,0.89646 -1.754,1.78396 -8.67596,4.47646 -4.31819,1.67973 -8.25723,5.12191 -9.35549,8.17543 -0.36662,1.01959 -1.33788,1.82831 -2.15829,1.79719 -1.10061,-0.0418 -1.39624,0.74475 -1.12788,3.00069 0.19999,1.6815 -0.31801,4.25121 -1.15113,5.71046 -0.89712,1.57133 -1.62957,5.61274 -1.79637,9.91129 -0.15146,3.99209 -0.71242,8.02372 -1.23918,8.95946 -2.72255,4.83727 -3.56204,8.28943 -4.13735,17.01424 -0.70311,10.66377 -3.26603,25.85569 -4.62078,27.3901 -1.64785,1.86633 -3.24732,8.88798 -4.07532,17.89032 -0.45399,4.93633 -1.14103,9.69575 -1.5267,10.57648 -0.38567,0.88073 -0.98351,5.58644 -1.32852,10.45715 -1.05883,14.94627 -2.02752,22.12014 -3.16699,23.4535 -0.59974,0.70185 -1.17552,1.94836 -1.27944,2.77001 -1.0804,8.54107 -1.54591,11.17264 -2.56517,14.50178 -0.65145,2.12809 -1.39658,7.12606 -1.65578,11.1066 -0.2593,3.98053 -0.78291,7.22551 -1.16374,7.21106 -0.9645,-0.0366 -3.63998,15.56073 -4.51948,26.34759 -0.40272,4.93829 -1.02759,10.54362 -1.38877,12.45631 -1.0128,5.36402 -2.49646,17.66536 -3.06389,25.4021 -1.98633,27.08511 -3.38984,36.2401 -5.87231,38.3049 -1.51589,1.26082 -2.97078,6.75598 -2.1922,8.28 0.54382,1.06459 0.27252,3.15116 -0.76141,5.85702 -0.88339,2.31181 -2.01699,6.43931 -2.51917,9.17223 -0.50218,2.73293 -1.29782,5.41979 -1.76824,5.97075 -0.47044,0.55106 -0.46322,1.67715 0.0159,2.50241 1.30296,2.24411 0.90598,6.13676 -0.95896,9.4048 -0.91419,1.60179 -1.4367,3.96068 -1.16382,5.25365 0.57467,2.72295 -2.03035,14.17131 -3.2143,14.12639 -0.43968,-0.0167 -0.85798,1.51296 -0.92954,3.3991 -0.10273,2.70746 -0.81177,3.87691 -3.36813,5.5549 -1.7809,1.16892 -3.95746,2.15791 -4.8368,2.1976 -0.87933,0.0397 -2.7465,0.64953 -4.14925,1.35496 -1.40276,0.70542 -4.57869,1.32916 -7.05762,1.3859 -5.93363,0.13614 -14.05196,1.77662 -16.741,3.38293 -1.18314,0.70674 -5.70995,1.32787 -10.05957,1.38039 -4.82187,0.0581 -9.99121,0.8317 -13.24466,1.98197 -2.93486,1.03768 -5.7142,1.8723 -6.17647,1.85476 -0.46216,-0.0175 -2.20474,-1.43852 -3.87226,-3.15778 z m 322.70113,-55.84934 c 5.71001,-1.25777 8.48684,-2.67219 9.21369,-4.69311 0.34597,-0.96195 2.70226,-3.84013 5.23619,-6.39597 2.53394,-2.55583 4.89964,-5.76938 5.25712,-7.1412 0.35748,-1.37183 3.22761,-5.48839 6.37806,-9.14791 5.52621,-6.41917 7.00379,-9.34095 4.76676,-9.42583 -2.69114,-0.1021 -7.59631,3.35817 -15.14457,10.6835 -2.5926,2.51601 -5.20187,4.56845 -5.79839,4.56097 -0.59653,-0.008 -2.26756,1.49285 -3.71341,3.33407 -1.44585,1.84123 -3.19138,3.33874 -3.87896,3.3278 -0.68758,-0.011 -1.26606,0.3995 -1.2855,0.91206 -0.0195,0.51257 -0.94555,1.18326 -2.05799,1.49043 -1.11245,0.30718 -2.04298,1.09488 -2.06786,1.75047 -0.0249,0.65558 -1.21541,2.36171 -2.64564,3.79138 -3.79673,3.79525 -3.47935,7.26395 0.70738,7.73129 0.54808,0.0611 2.81298,-0.2889 5.03312,-0.77795 z M 193.69747,271.85658 c 0.67824,-1.82382 -3.37005,-1.66626 -4.15221,0.16159 -0.49469,1.15608 -0.1134,1.48541 1.51618,1.30843 1.1975,-0.13009 2.38363,-0.7916 2.63603,-1.47002 z m 17.56836,0.66656 c 0.26516,-0.40273 -0.1003,-1.31276 -0.81211,-2.02228 -1.41591,-1.41139 -3.00902,-0.0933 -2.01247,1.66494 0.68442,1.20736 2.14327,1.39194 2.82458,0.35734 z m -45.37436,-33.95756 c 3.69525,-2.06514 7.62659,-8.65147 7.79375,-13.0572 0.1288,-3.39479 -4.86943,-8.84297 -8.25421,-8.99731 -2.16232,-0.0986 -4.54019,3.33191 -4.66936,6.73645 -0.0382,1.00604 -0.71599,2.32565 -1.50627,2.93246 -1.90976,1.46635 -4.96886,-1.63022 -3.89386,-3.94148 3.77098,-8.10689 3.56452,-8.82151 -2.76665,-9.5754 -6.80108,-0.80984 -10.21184,0.53816 -12.72106,5.02762 -2.16427,3.8722 -2.19135,4.17461 -0.70286,7.84036 1.79974,4.43248 5.75367,9.37035 9.13933,11.41379 1.3038,0.78693 4.60789,1.80711 7.34242,2.26706 2.73453,0.45994 5.41921,0.91496 5.96596,1.01114 0.54674,0.0962 2.4695,-0.64968 4.27281,-1.65749 z m 89.78417,-4.20731 c 1.6371,-1.2747 3.29878,-2.30541 3.69269,-2.29046 0.39392,0.0149 1.27669,-1.79278 1.96172,-4.01716 1.64317,-5.33552 -0.294,-11.30742 -4.39615,-13.55195 -3.79579,-2.07692 -6.55111,-0.54604 -7.51041,4.17285 -1.09009,5.3623 -2.86108,8.90751 -4.42006,8.84836 -0.77724,-0.0295 -2.16244,-2.0023 -3.07809,-4.38402 -0.91566,-2.38171 -0.35365,-5.1531 -1.22477,-5.93375 -1.39637,-1.25123 -3.61946,-0.9334 -3.70472,1.31383 -0.0532,1.40205 -0.68136,3.12207 -1.39592,3.82226 -2.94961,2.89038 -1.01624,11.53947 3.09234,13.83346 3.48827,1.94764 13.53014,0.87541 16.98337,-1.81342 z"
     id="path2987"
     inkscape:connector-curvature="0"
     sodipodi:nodetypes="cccsccccccscccccccssccccccccscscccscsccccscccscccsscscsssscssscccscccscsccscsccsscsssssccccccccccccscccccccscccccccscccccsccccccccscccccssssssccsccscscscsscsscssccccccccccccccscccccscscssscscscsccscccccscsccccscccscccccccscccsccsccscscscccscssscsssccsccccsscscscsssscsscsssssscscscscsccscssssssccccsscssccccsscccsccsscccscsscscccssscccscscscccscccscscsscccscscccsscssscsscccsccsssccssccsscsccccccscsccccccsccccscsssccccssccsccccccccsccccsccccccccscccccccccsccsccccccscccccccssccssccsccccscscccccsccscccssssssscscscscssccccscssscscssccsccssccscssssscscsscscscccsccsccsscsssccscccssccsccsscccsscscscsscssccssscscsccsscsccsssssssscsscsccccccsssccssssssccsssccccsscscscscsccscscsssccccscscssscccsccsssssccccsccssccscccscsccscscccccssssssscsccscscscscccsccssscccsscsscsscssscscscss" />
</svg>
