<svg xmlns="http://www.w3.org/2000/svg" width="1296" height="1014"><rect id="rect2983" width="68.8" height="32.76" x="168.73" y="260.46" fill="#808080"/><rect id="rect2989" width="147.43" height="67.16" x="119.58" y="190.02" fill="#d3bc5f"/><path id="path2987" d="M290.37 925.73c-1.67-1.72-3.04-2.88-3.05-2.6 0 .3-1.16-.27-2.56-1.26-3.05-2.17-4.3-5.38-2.97-7.7.75-1.3.62-1.56-.58-1.15-.85.28-1.52 0-1.5-.64.02-.64-.38-.93-.9-.63-1.35.76-2-2.28-2-9.4 0-3.37-.33-6.15-.74-6.17-1.38-.05-.55-5.77 1.02-6.97.85-.64 1.6-2.37 1.64-3.82.17-4.45 5.5-9.3 13.9-12.62 6.2-2.45 7.83-3.55 8.85-6.04.68-1.68 1.94-4.5 2.8-6.28.84-1.78 1.57-4.34 1.62-5.7.05-1.35.55-2.44 1.1-2.42.55.02 1.05-1.32 1.1-2.97.07-1.66.6-3.78 1.15-4.7 1.87-3.1 3.47-16.77 3.62-30.8.07-7.6.2-23.3.27-34.85s.38-27.2.68-34.75c.3-7.55.16-13.75-.32-13.77-.48-.02-.72-2.17-.53-4.77.2-2.6.04-10.83-.33-18.27-.88-17.76-1.1-20.14-2.1-23.12-.46-1.37-.8-4.3-.75-6.5.05-2.27-.94-6.1-2.3-8.9-1.86-3.85-2.2-5.73-1.6-8.75.58-2.96.32-4.52-1.14-6.75-1.05-1.6-2.14-5.5-2.4-8.68-.3-3.18-.9-6.04-1.37-6.35-.47-.32-.82-1.58-.77-2.8.05-1.22-.5-3.13-1.2-4.24-.68-1.1-1.72-4.27-2.3-7-.55-2.76-2.07-6.15-3.36-7.53-1.3-1.4-2.32-3.1-2.3-3.83.07-1.66-3.05-2.8-5.53-2-2.32.74-5.53 3.68-5.6 5.1 0 .6-.7 1.03-1.52 1-.83-.03-1.52.4-1.54.94-.02.56-.53 1-1.12.97-1.04-.04-2.95 1.68-11.55 10.4-2.12 2.18-5.34 4.64-7.14 5.5-3.6 1.68-6.94 4.94-7.07 6.9-.05.67-.54 1.22-1.1 1.2-.54-.02-1 .56-1.04 1.3-.05 1.48-3.5 5.53-4.67 5.48-1.18-.04-4.7 4.1-6.4 7.5-1.77 3.57-2.2 9-1 12.44.43 1.27 1.22 5.5 1.74 9.36.8 6 2.15 12.14 4.12 18.67 1.17 3.9 1.2 9.54.13 27.26-.26 4.14.65 10 3.17 20.4 1.5 6.16-1.47 25.45-3.9 25.36-.5-.02-1.3 1.64-1.74 3.7-1.62 7.34-14.1 20.05-20.65 21.02-5.15.77-8.46-1.1-16.1-9.03-6.1-6.33-6.7-7.38-7.6-12.93-.55-3.33-1.28-7.7-1.64-9.72-.35-2.02-.3-9.6.12-16.83.6-10.13.4-15.16-.84-21.9-2.68-14.62-3.72-19.76-4.3-21.36-.46-1.24-1.36-10.36-1.7-17.06-.03-.83-.32-2.2-.62-3.03-.9-2.42-2.25-13.83-2.8-23.6-.3-4.98-.9-11.92-1.38-15.44-.72-5.37-.6-6.77.76-8.67.9-1.27 1.38-2.97 1.1-3.8-.3-.85.2-2.77 1.05-4.28.86-1.5 2.42-5.18 3.48-8.17 1.8-5.06 9.05-19.55 10.34-20.62.32-.27 1.5-2.47 2.66-4.9 1.15-2.44 2.95-5.6 4-7.02 1.04-1.4 1.92-3.27 1.96-4.13.03-.86 1.26-3.54 2.74-5.97 1.48-2.42 2.72-5.66 2.75-7.2.03-1.5.68-5.75 1.44-9.4 1.75-8.46-.07-18.76-4.06-22.93-1.4-1.47-4.04-4.6-5.84-6.96-1.8-2.35-5.18-5.3-7.48-6.57-2.3-1.27-5-3.43-6.02-4.82-1-1.37-2.12-2.5-2.47-2.52-.7-.03-5.4-3.5-9.54-7.04-1.46-1.24-4.05-2.63-5.76-3.07-1.72-.45-4.9-2.77-7.08-5.18-2.2-2.42-5.5-5.5-7.38-6.87s-4.06-3.08-4.86-3.8c-7.4-6.74-10.66-10.38-11.9-13.25-.8-1.86-2.13-4-2.98-4.75-2.22-2-4.2-6.63-4.1-9.57.07-1.58-.45-2.57-1.36-2.6-.9-.04-1.22-.64-.84-1.53.36-.84-.05-1.76-.95-2.15-.88-.37-1.57-1.22-1.54-1.88.02-.66-.72-3-1.65-5.2-1.42-3.4-2.9-11.7-3.77-21.35-.1-1.25.3-2.25.9-2.24.8.03.82-.18.05-.73-1.52-1.1-1.32-9.5.24-10.43.96-.57 1-.96.14-1.56-.83-.6-.82-2.14.03-5.75.63-2.73 1.23-6.42 1.32-8.2.1-1.8.5-3.24.9-3.22.77.04 1-.97 1.45-6.2.15-1.77.7-3.48 1.2-3.8.5-.3 1.02-1.62 1.16-2.95.13-1.32.72-2.75 1.32-3.18.73-.54.68-.97-.15-1.34-1.4-.63-1.53-5.4-.16-5.35 1.58.06 2.16-2.78 1.22-5.86-.64-2.1-.57-3.6.23-4.96.82-1.42.84-2.76.1-4.82-.58-1.57-.9-3.87-.74-5.1.17-1.24-.28-2.5-1-2.8-.8-.35-1.22-2.18-1.1-4.8.1-2.32-.3-5.37-.88-6.77-1.58-3.72-2.1-18.24-.68-19.04.8-.45.6-2.2-.63-5.88-.97-2.87-1.5-6.12-1.16-7.2.33-1.1.18-2-.33-2-1.4-.07-4.07-6.92-3.35-8.6.4-.95-.25-1.92-1.8-2.7-1.9-.94-2.8-2.74-4.02-7.93-.87-3.7-1.44-7.27-1.27-7.95.16-.68-.17-1.25-.74-1.28-.6-.03-1.03-.75-1-1.62.03-.86-.62-2.3-1.46-3.2-.87-.95-1.3-2.66-1-3.98.34-1.44.07-2.34-.7-2.37-1.44-.06-3-5.9-3.24-12.1-.03-.8-.84-2.38-1.8-3.5-.95-1.1-2.18-3.63-2.73-5.62-.54-2-1.52-4.1-2.17-4.67-1.4-1.24-3.15-13.76-3.07-21.87.03-3.16-.3-5.76-.7-5.78-.4-.02-.7-1.28-.65-2.8.06-1.5-.52-4.05-1.28-5.65-.77-1.6-1.32-4.7-1.24-6.85.2-5.34-2.1-18.55-4.07-23.5-.9-2.25-2.05-7.92-2.54-12.62-.5-4.7-1.54-13.74-2.34-20.1-2.9-23.26-2.97-25.36-1.28-42.22 1.58-15.7 2.75-21.7 4.78-24.6 1.03-1.46 14.2-1.97 14.13-.53-.06 1.5 6.27 5.02 10.3 5.74l4.18.76c.12.02-.06.7-.4 1.52-.4.93-.05 1.5.96 1.54.88.03 1.58.5 1.56 1.06-.02.55.77 1.03 1.76 1.06 1 .04 3.6 1.94 5.8 4.23 2.2 2.3 4.32 4.17 4.7 4.2 1.5.05 8 8.88 7.5 10.14-.36.85-.04 1.16.87.85.78-.28 2.18.4 3.1 1.5.93 1.1 1.42 2 1.1 1.98-.32-.02.58 1.26 2 2.84 1.4 1.57 4.25 5.06 6.32 7.74 2.07 2.7 4.38 4.9 5.13 4.94.75.02 1.1.42.8.87-.86 1.28 5.08 7.3 9 9.13 5.5 2.56 13.17 4.1 14.03 2.8.4-.6 1.64-.75 2.75-.35 2.5.9 7.4-.05 6.7-1.3-.3-.5-1.45-.94-2.58-.98-1.72-.07-1.85-.32-.76-1.53 1.85-2.08 5.34-1.65 8.52 1.05 1.5 1.28 2.43 1.76 2.04 1.07-.8-1.38.6-1.54 4.07-.46 1.22.4 2.26 1.62 2.4 2.84.3 3.04 4.83 3.14 6.28.14 1.2-2.44 2.64-2.9 2.56-.83-.06 1.7 6.4 1.84 8.18.2.7-.65 2.13-1.14 3.2-1.1 1.67.07 1.87-.46 1.54-3.94-.33-3.46-.13-4 1.52-3.94 1.3.05 1.93-.63 2-2.18.07-2.1 3.35-4.96 5.68-4.98 2-.02 11.65-4.64 11.72-5.6.04-.56 1.12-1.93 2.4-3.05 1.28-1.13 3.04-3.3 3.9-4.86.86-1.56 3.37-5.6 5.58-9.02 2.2-3.42 4.02-6.57 4.04-7 .02-.43.7-1.02 1.55-1.3.84-.3 1.54-1.04 1.56-1.66.03-.63 1.1-2.35 2.4-3.83l5.5-6.35c3.85-4.48 6.9-7.2 7.96-7.17.44.02.83-.64.86-1.47.03-.8.73-1.46 1.55-1.43.84.03 1.53-.4 1.55-.94.02-.55.67-.98 1.43-.95.77.03 1.65-.54 1.96-1.27.7-1.6 6.93-4.4 9.6-4.28 2.1.08 4.55 4.62 3.42 6.32-.38.55-.13 1.38.55 1.83.68.46 1.3 2.57 1.4 4.7.08 2.13.46 7.88.85 12.8.38 4.9.46 9.26.18 9.7-.3.4-.08 1.05.46 1.42 1.07.7.63 16.28-.5 16.9-.37.23-.6 2.13-.5 4.25.1 2.1.23 5.42.3 7.35.06 1.92.7 4.78 1.38 6.33.96 2.16.97 3.1.04 3.95-.67.62-1.24 1.83-1.26 2.68-.04 1.37.08 1.38.98.1.77-1.1 1-.57.9 2.12-.06 1.98.54 5.05 1.35 6.83 1.32 2.95 1.3 3.86-.42 10.4-2.53 9.65-3.18 13.26-3.4 18.85-.1 2.67-.73 5.04-1.44 5.45-2.38 1.35-6.43 15.68-6.8 24.03-.1 2.47.07 6.98.4 10.02.3 3.04.5 6.76.44 8.27-.07 1.5.2 2.76.57 2.77.38 0 .5 4.3.24 9.5-.25 5.23-.08 9.5.37 9.53.45.02.5.92.1 2-.47 1.3-.2 2.2.8 2.64.83.35 1.75 1.5 2.04 2.58.82 2.94 5.92 5.42 9.93 4.82 1.87-.28 3.4-.93 3.43-1.46.02-.5.37-.88.78-.8 1.86.37 3.26-.08 3.3-1.05.02-.58-.42-.8-1-.48-.55.32-1 .1-.97-.48.02-.6.52-1.05 1.1-1.02.6.02 1.78-.6 2.64-1.4.86-.8 2.7-1.4 4.08-1.35 1.68.06 2.72-.57 3.12-1.87.33-1.1.98-1.7 1.46-1.4.47.33.88.13.9-.42.02-.56 1.63-1.25 3.56-1.54 2.02-.3 3.55-1.12 3.58-1.9.03-.77.97-1.36 2.1-1.32 1.12.04 3.94-.75 6.26-1.76 2.3-1.02 4.8-1.82 5.52-1.8.72.03 1.33-.42 1.35-1 .02-.6.53-.73 1.13-.33.6.4 1.45.16 1.9-.5.5-.73 1.35-.9 2.1-.38 1.72 1.15 11.08.95 12.68-.27.7-.54 1.9-.7 2.64-.4.76.33 1.8.2 2.33-.3.54-.48 3.6-1 6.83-1.16 3.22-.16 7.5-.65 9.5-1.1 2-.43 7.15-.86 11.45-.95 4.3-.08 8.1-.4 8.45-.73.35-.33 1.46-.56 2.46-.52 2.33.1 2.5-1.87.16-2.1-1.8-.17 4.16-1.77 6.82-1.82.83-.02 1.98-.38 2.57-.8 1.2-.87 3.4-.6 5.18.6.75.5 2.58-.46 4.88-2.6 3.1-2.87 4.4-3.38 8.1-3.24 2.67.1 5.02-.43 6.02-1.36 2.4-2.2 14.12-.8 19.47 2.32 3.03 1.78 7.5 1.2 7.4-.96-.06-1.56.87-2.14 2.88-1.8.37.08 3.17.3 6.24.52 3.06.22 5.56.76 5.54 1.2-.02.46 2.4.67 5.4.48 4.65-.3 5.5-.08 5.94 1.5.67 2.38 10.75 6.02 17.8 6.42 3.94.23 6.24 1.04 9.37 3.3 2.28 1.62 4.42 2.7 4.75 2.4.33-.3 1.64.2 2.9 1.1 1.27.9 3.74 1.87 5.5 2.16 11.5 1.92 14.54 3.34 14.46 6.73-.02.65.86 1.5 1.94 1.9 1.08.38 2.58 1.36 3.33 2.17.75.8 4.98 2.24 9.4 3.18 6 1.28 8.92 2.47 11.52 4.7 4.5 3.9 9.35 6.74 10.77 6.33.6-.18 2.38.58 3.93 1.7 1.56 1.1 3.55 2.03 4.44 2.07.9.04 2.77 1.3 4.17 2.82 1.4 1.5 2.83 2.48 3.18 2.16.34-.32 2.18.7 4.07 2.26 1.9 1.56 3.6 2.62 3.8 2.35.18-.28 1.9.84 3.8 2.48 1.9 1.64 3.7 2.75 4 2.47.32-.3 1.47.4 2.58 1.5 1.1 1.1 2.6 2.04 3.3 2.06.74.04 1.3.5 1.3 1.04-.03.54 2.15 2.1 4.84 3.44 3.46 1.74 4.88 3.04 4.85 4.46-.04 1.48.18 1.66.85.7.72-1.05 1-1 1.44.3.3.88 1.4 1.64 2.44 1.68 1.05.04 2.44.76 3.1 1.6.65.86 3 2.18 5.24 2.94 2.23.76 4.82 2.2 5.76 3.22 1.47 1.6 4.32 2.48 6.95 2.16.4-.05.7.6.68 1.4-.05 1.46 1.05 1.97 3.7 1.72.7-.06 1.53.63 1.84 1.54.44 1.3.75 1.38 1.42.38.66-1 1-.88 1.45.47.3.96 1.02 1.76 1.55 1.78.53.02 1.57.63 2.3 1.34 3.03 2.93 4 3.6 6.97 4.76 1.7.67 3.38.96 3.72.65.33-.3.58-.08.56.5-.02.58 1.72 1.83 3.86 2.8 4.4 1.95 7.86 4.82 7.8 6.48-.02.6 2.4 2.05 5.4 3.2 4.8 1.83 6.72 3.18 13.3 9.33.87.8 2.52 1.82 3.66 2.23 1.14.4 2.5 1.63 3.03 2.7.53 1.1 1.45 2 2.04 2.03.6.02 2.56 1.44 4.38 3.16 1.8 1.72 3.95 3.16 4.76 3.2.88.02 1.43 1 1.37 2.45-.05 1.74.4 2.35 1.68 2.2 2.04-.25 4.62 2.33 5.5 5.5.33 1.2 1.02 2.26 1.53 2.35.52.1 1.38.3 1.92.45.55.16 1.33.36 1.74.46.4.1.05.58-.8 1.08-1.02.6-1.1.94-.28.98.68.04 2 .88 2.95 1.88.93 1 2.93 2.7 4.44 3.75 1.5 1.08 2.5 2.17 2.2 2.45-.3.28.5 1.74 1.8 3.23 1.28 1.5 2.32 3.07 2.3 3.5 0 .4.67.77 1.5.8.85.04 1.8.86 2.1 1.84.33.97 2.3 3.36 4.36 5.3 2.08 1.96 4.16 4.7 4.63 6.08.47 1.4 1.13 2.27 1.48 1.95.78-.73 9.03 8.35 8.97 9.87 0 .62.24.88.57.57.6-.56 8.14 7.5 8.1 8.63 0 .32 1.08 1.23 2.43 2.02 1.34.78 2.43 1.78 2.4 2.2-.03 1.04 3.86 5.2 8.2 8.78 1.9 1.56 3.24 3.02 3 3.23-.23.22 1.04 2.07 2.83 4.1 1.78 2.06 3.22 4.34 3.2 5.1-.04.74.62 1.37 1.44 1.4.82.04 1.48.48 1.46 1-.02.52 2.56 3.8 5.73 7.28 3.17 3.5 5.75 6.8 5.73 7.4-.06 1.2 6.63 8.08 7.88 8.13.44.02.8.44.77.93-.03.8 2.4 4.1 8.14 11 1.07 1.3 2.58 2.53 3.34 2.73 1.8.48 5.82 4.65 5.77 6 0 .57.44 1.06 1.02 1.08.58.03 1.8 1.87 2.7 4.1.88 2.24 1.97 3.75 2.4 3.36.4-.4 1.16.1 1.66 1.07.5.98 1.5 1.8 2.24 1.83 1.2.04 2.55 2.82 2.76 5.7.05.6.83 1.9 1.75 2.88.92 1 1.65 2.13 1.64 2.53-.02.4 1.53 1.36 3.44 2.13 1.9.77 3.2 1.78 2.9 2.25-.74 1.1 4.3 6.15 6.26 6.25 1.07.05 1.16.28.3.78-.9.53-.73 1.6.7 4.02 1.04 1.8 2.3 3.3 2.8 3.33.5.02.9.55.87 1.18-.03.63.7 1.82 1.65 2.64.93.83 1.14 1.2.47.82-1.9-1.04 1.42 1.6 3.65 4.98 1.1 1.7 2.03 4.27 2.06 5.74.02 1.47 1.1 3.9 2.42 5.4 6.5 7.42 8.35 10.03 8.88 12.53.3 1.5 1.04 2.74 1.6 2.76.58.02.75.48.4 1.02-.37.53-.15 1 .48 1.02.63.02 2.52 1.43 4.2 3.12 5.88 5.96 7.8 10.15 8.46 10.18.83.03 7.57 7.3 7.57 8.14 0 .36 1.42 1.42 3.16 2.35 1.74.93 3.72 2.95 4.4 4.47.67 1.53 2.3 3.32 3.6 3.97 1.3.66 2.35 1.8 2.32 2.54-.03.73.36 1.35.86 1.37.5.02 2.44 1.63 4.3 3.57 1.86 1.95 4.3 3.87 5.43 4.28 1.13.4 2.03 1.14 2.02 1.63-.05 1.3 3.98 5.14 4.86 4.63.42-.23.97.53 1.23 1.7.26 1.15.9 1.85 1.45 1.54.54-.3 2.53 1.3 4.43 3.57 1.9 2.27 3.88 4.14 4.4 4.16.5.02 1.2 1.04 1.55 2.27.6 2.23 4.73 6.35 6.66 6.68.57.1 1.55.25 2.2.34.63.08 2.08 1.8 3.22 3.8 1.17 2.07 2.63 3.45 3.38 3.2.72-.25 1.52.16 1.78.9.26.77 1.7 2.05 3.23 2.87 1.58.83 2.63 2.14 2.44 3.04-.2 1.05.7 1.8 2.73 2.3 3.14.75 8.22 1.78 8.15 3.54-.05 1.23 4.95 1.7 5.5.42.22-.48 1-.32 1.75.35.92.83 1.77.9 2.64.25 1.56-1.15 13.4.74 15.3 2.45.7.63 2.84 1.25 4.74 1.37 1.9.13 3.22.6 2.93 1.02-.3.43 0 .8.63.83.63.02 1.4-.78 1.7-1.78.53-1.76.7-1.75 4.4.26 2.12 1.15 3.84 2.45 3.82 2.9-.05 1.32 6.04 3.42 11.8 4.08 3 .34 5.72 1.1 6.05 1.68.72 1.26 12.05.9 14.88-.48 1.04-.5 3.87-1.1 6.28-1.3 2.4-.2 5.3-.64 6.4-.95 2.04-.58 5.08-.86 9.36-.88 1.35 0 2.04-.46 1.68-1.1-.34-.6-.02-.96.72-.8 2.96.68 12.22-.97 13.82-2.45.94-.86 3.06-1.68 4.7-1.8 1.66-.13 3.18-.64 3.38-1.13.2-.5 1-.87 1.8-.84.76.03 1.42-.4 1.44-.94.02-.55.66-.98 1.42-.95 2.63.1 11.73-2.85 11.77-3.82.02-.53.77-.32 1.68.47.9.8 1.35.9 1 .26-.4-.7 1.45-2.4 4.7-4.32 2.94-1.73 5.6-3.2 5.88-3.26 3.54-.77 5.13-1.74 5.76-3.5.4-1.17 1.26-2.48 1.9-2.9.82-.57 1.47-1.08 1.8-2.02.78-1.52-.64.34 2.5-2.5 1.92-1.74 4.07-2.63 6.37-2.63 1.92 0 2.74-3.8 3.64-3.8 1.62-.06 1.94-1.04 2.8-5.63.1-.56 1.65-1.82 3.45-2.8 4.42-2.4 20.28-2.1 22.4.42.76.9 1.1 2.35.72 3.2-.38.9.2 2.46 1.35 3.7 1.23 1.34 1.9 3.25 1.7 4.94-.17 1.5 0 3.28.35 3.93.37.65.23 1.43-.3 1.73-.62.35-.62 1.74-.02 3.73.83 2.7.7 3.35-.92 4.43-1.04.7-1.52 1.3-1.08 1.3.45.03.24.7-.47 1.48-.7.8-1.7 1.2-2.16.87-.48-.32-.88-.1-.9.48-.03.58.3 1.7-.42 1.68-1.65-.06-4.92 6.04-5.05 9.4-.05 1.44-.25 4.4-.8 4.02-.54-.36-1 .05-1.04.9-.03.86.26 1.94-1.13 1.52-.08 3.04-2.05.3-.77 5.58.26 1.07.06 1.62-.47 1.27-.53-.35-1.5.46-2.17 1.8-.67 1.32-1.93 2.4-2.8 2.36-.86-.04-1.32.4-1 .94.3.56-.32 1.9-1.4 2.97-1.08 1.07-2.62 3.15-3.43 4.63-.8 1.47-2.28 3.55-3.28 4.6-1.83 1.96-1.94 2.24-2.04 4.94-.03.82-.56 1.48-1.16 1.45-.6-.02-2.04 1.05-3.17 2.38-1.13 1.34-2.87 2.4-3.86 2.36-1-.04-2.4.58-3.12 1.38-.7.8-2.14 1.42-3.17 1.38-1.03-.04-1.9.35-1.9.86-.03.52-.95 1.2-2.06 1.5-1.12.3-2.06 1.3-2.1 2.24-.06 1.88-3.96 4.6-5.9 4.12-.68-.16-1.26.17-1.28.74-.02.58-1.06 1-2.3.96-1.24-.05-3.42.88-4.83 2.07-1.42 1.2-3.83 2.75-5.38 3.48-1.54.72-2.8 1.7-2.83 2.2-.02.5-.5.58-1.05.2-.56-.37-2.52.82-4.35 2.64-3.12 3.1-3.8 3.3-10.22 3.27-3.8-.03-8 .33-9.35.78-2.94 1-10.28.73-15.8-.56-3.14-.74-4.82-.53-8.04 1-2.24 1.06-4.38 2.32-4.75 2.8-.37.47-1.94.47-3.5 0-4.42-1.32-22.28-2.42-22.32-1.38-.08 2.1-36.3-1.9-37.8-4.2-.3-.44-3.87-2.04-7.94-3.53-4.08-1.48-7.63-2.95-7.9-3.26-2.07-2.4-6.36-3.5-12.8-3.3-5.02.17-7.57-.16-8.78-1.16-.94-.77-2.5-1.44-3.45-1.5-.98-.05-1.73-.86-1.7-1.84.04-1.5-.1-1.54-1-.3-.94 1.3-1.2 1.27-2.27-.2-1.73-2.45-9.8-5.38-10.8-3.94-.52.76-.76.64-.74-.38 0-.88-.3-1.1-.75-.53-1.27 1.6-3.3 1.5-3.9-.23-.34-1.04-.8-1.24-1.25-.55-.46.7-1.42.34-2.78-1.03-1.14-1.15-2.5-2.1-3.04-2.12-.54-.02-1.23-.95-1.54-2.06-.42-1.5-1.44-2.06-3.87-2.15-3.14-.12-4.77-1.2-19-12.47-1.3-1.02-2.84-2.36-3.43-3-2.72-2.9-10.1-7.14-12.9-7.42-3.54-.35-5.6-1.45-4.83-2.6.84-1.24-10.63-11.46-13-11.55-.56-.03-1-.5-1-1.04.03-.56-.85-1.05-1.95-1.1-1.1-.03-1.98-.7-1.95-1.46.03-.78-1.28-1.93-2.92-2.57-1.63-.64-3.24-1.98-3.56-3-.34-1-3.75-5.15-7.58-9.23-3.84-4.08-6.7-7.68-6.36-8 .34-.3-.1-.6-.97-.63-.88-.02-1.8-.62-2.05-1.32-.33-.93-.48-.95-.58-.07-.06.67-1.27.06-2.67-1.34-1.4-1.4-3.43-2.58-4.5-2.62-2.12-.1-7.57-5.1-7.5-6.92.02-.62-1.63-3.04-3.66-5.37-2.04-2.33-3.52-4.4-3.3-4.6.2-.2-2.28-1.7-5.53-3.3-3.24-1.6-5.9-3.33-5.87-3.83.02-.5-1.66-2.82-3.73-5.17-2.07-2.35-4.4-5.78-5.2-7.62-.87-2-2.72-3.93-4.65-4.82-1.76-.8-3.26-1.25-3.32-1-.06.27-.8-.13-1.62-.87-1.83-1.65-6.4-.92-9.3 1.48-1.14.95-3.17 1.83-4.5 1.96-2.68.27-9.2 7.76-9.43 10.83-.08 1.07-1.38 2.23-3.18 2.84-1.68.56-3.07 1.44-3.1 1.95-.05 1.74-5.37 7.42-6.88 7.36-.83-.03-1.25.4-.93.96.3.56-.7 1.5-2.28 2.1-4.5 1.68-12.52 6.74-12.6 7.94-.07 1.3-4.47 3.24-7.1 3.14-1.36-.05-1.74.47-1.4 1.95.24 1.13-.05 2-.68 1.98-.6-.03-1.15 1.03-1.2 2.34-.1 2.3-2.4 4.03-4.78 3.57-.62-.12-1.48 1.02-1.92 2.52-.44 1.5-1.65 3.6-2.7 4.67-1.04 1.06-2.1 2.83-2.33 3.92-.23 1.1-.97 1.96-1.63 1.94-.67-.04-2.03.6-3.05 1.4-1 .8-2.6 1.26-3.54 1.04-1.15-.27-2.2.65-3.2 2.86-1.76 3.85-1.97 11.98-.33 12.6.63.23 1.13.87 1.1 1.4 0 .55 1.25 3 2.8 5.47 1.56 2.46 2.8 5.07 2.8 5.8-.04.73 1 2.58 2.33 4.12 1.32 1.52 2.36 3.7 2.32 4.82-.04 1.12.26 2.05.67 2.07 1.16.03.04 11.04-1.27 12.5-1.38 1.54.25 8.2 2.5 10.25.8.75 1.13 2.3.78 3.8-.33 1.4-.2 2.82.25 3.13.47.3.8 1.63.76 2.92-.1 2.4 2.54 8.86 3.88 9.5.4.2.72.93.7 1.6-.04.7 1.1 3.76 2.54 6.84 1.43 3.08 2.5 6.02 2.34 6.53-1.43 5.1-4.3 12.28-4.87 12.26-.42-.02-1.07 1.3-1.46 2.94-.4 1.64-1.8 5.08-3.1 7.64-1.3 2.58-2.33 5.7-2.3 6.93.05 1.24-.36 2.24-.9 2.22-.55-.02-1 .5-1.04 1.13-.02.64-.75 1.9-1.62 2.8-2.35 2.4-7.98 12.78-8.06 14.86-.03 1-.5 1.8-1.06 1.78-.55-.02-1.03.6-1.06 1.4-.03.8-.68 1.8-1.44 2.2-1.75.95-3.3 3.67-5.56 9.73-2.58 6.93-4.23 10.22-5.1 10.18-.4 0-.78.54-.8 1.22-.05.7-1 2.34-2.13 3.68-1.13 1.33-2.1 3.2-2.14 4.17-.05.96-.45 1.73-.9 1.72-.94-.04-5.5 5.44-5.9 7.13-.64 2.48-2.74 6.4-3.77 6.97-.6.34-1.12 1.56-1.16 2.72-.05 1.16-.35 1.82-.67 1.48-.68-.74-5.68 7.52-5.75 9.5-.03.73-.96 1.53-2.07 1.77-1.1.24-2.3 1.26-2.65 2.26-.73 2.05-1.24 2.88-4.1 6.63-1.1 1.45-2.8 4.7-3.78 7.24-1.92 5.05-8.6 14.8-10.1 14.8-1.77-.05-7.7 4.22-7.76 5.58-.22 5.3-29.06 19.05-39.13 18.66-1.36-.05-3.74.34-5.3.86-2.74.93-4.4 1.08-18.8 1.7-7.95.36-13.6-.66-13.54-2.43.03-.67-1.05-1.78-2.4-2.45-1.35-.68-2.44-1.63-2.43-2.1.02-.5-1.15-2.3-2.6-4.06-1.44-1.75-3.15-3.88-3.8-4.74-.76-1-.98-4.4-.63-9.6.62-9.34 1.6-8.76-12.02-6.98-17.67 2.3-34.2 3.25-52.03 2.96l-18.38-.3-3.92-3.34c-5.22-4.46-10.25-10.3-10.23-11.85 0-.7.6-2.1 1.3-3.14 1-1.48 1-2.42-.04-4.55-1.04-2.12-1.04-2.82-.02-3.4.7-.4 1.22-1.14 1.15-1.65-.35-2.24.4-3.33 3.5-5.16 1.83-1.08 2.74-2 2.02-2.02-3.84-.2 3.65-4.45 9.14-5.2 1.87-.25 3.56-.87 3.76-1.4.2-.5.8-.9 1.3-.9.52.03 2.86-1.1 5.2-2.54 2.46-1.5 4.37-2.12 4.56-1.5.22.76 1.84.9 5.07.44 9.32-1.32 10.82-1.28 13.96.3 2.34 1.18 3.7 1.35 5.17.64 1.1-.53 2.9-.93 4.02-.9 3 .13 8.37-3.1 7.23-4.34-1.3-1.4 1.1-5.8 3.74-6.84 1.14-.45 2.1-1.27 2.14-1.82.05-.55 2.5-3.22 5.5-5.94 2.97-2.72 5.42-5.4 5.45-5.98.02-.57.95-1.3 2.06-1.6 1.12-.3 2.06-1.43 2.1-2.5.04-1.05.73-1.9 1.53-1.86.8.03 1.93-.72 2.53-1.66.6-.94 1.08-1.32 1.08-.84 0 1.76 3.1-1.55 3.16-3.37.04-1.03.52-1.85 1.07-1.83.55.02 1.03-.62 1.06-1.43.03-.8 1.02-1.93 2.2-2.5 1.16-.57 3.04-2.9 4.15-5.2 1.12-2.28 3-4.96 4.17-5.94 1.18-1 1.94-2.4 1.7-3.13-.26-.73-.1-1.32.37-1.3.46.02 1.17-1.6 1.57-3.57.38-1.98 1.52-4.42 2.5-5.43 1.4-1.42 1.82-3.46 1.9-9.06.2-12.42-.74-16.95-4.3-20.8-.93-1-2.64-4.07-3.8-6.82-1.44-3.42-5.47-8.53-12.76-16.17-5.86-6.13-11.24-11.17-11.96-11.2-.72-.03-1.3-.5-1.27-1.05.05-1-3.38-5.13-4.27-5.16-.27-.02-2.32-2.23-4.57-4.9-2.25-2.7-5.06-5.97-6.25-7.3-1.18-1.32-2.13-2.86-2.1-3.42 0-.56-.43-.75-1-.43-.56.32-1 0-.97-.7.05-1.35-4.5-6.02-5.93-6.07-.46-.02-.82-.67-.8-1.45.04-.78-5.13-7.06-11.47-13.94-6.34-6.9-11.5-13.16-11.48-13.9.03-.77-1.46-3.17-3.3-5.34-1.85-2.17-3.34-4.3-3.32-4.7 0-.43-1.06-1.94-2.38-3.36-1.32-1.43-2.4-2.97-2.37-3.43.02-.45-1.24-2.44-2.8-4.4-1.55-1.97-2.83-3.93-2.83-4.37 0-.44-1.1-2.05-2.4-3.58-1.33-1.54-2.38-3.36-2.36-4.05.02-.7-.34-1.27-.82-1.3-1-.03-5.77-9.8-5.7-11.7.03-.7-.56-1.82-1.3-2.5-.75-.65-1.62-2.43-1.94-3.92-.3-1.5-.87-2.97-1.23-3.26-.36-.3-1.62-3.06-2.8-6.13-1.2-3.08-2.73-6.8-3.43-8.3-.7-1.48-1.2-4.68-1.1-7.1.13-3.74-.3-4.76-2.76-6.74-1.6-1.28-2.88-3-2.85-3.8.03-.8-.3-1.48-.73-1.5-.43 0-.82-.93-.86-2.03-.04-1.1-2.45-4.57-5.35-7.7l-5.27-5.7-6.07.4c-3.33.23-5.84.8-5.56 1.3.7 1.22-4.36.9-6.64-.44-1.04-.6-1.9-.72-1.93-.24-.03.9-1.75 1.78-8.67 4.47-4.32 1.67-8.26 5.12-9.36 8.17-.37 1.02-1.34 1.83-2.16 1.8-1.1-.04-1.4.74-1.13 3 .2 1.68-.3 4.25-1.14 5.7-.9 1.58-1.63 5.62-1.8 9.92-.15 3.98-.7 8-1.23 8.95-2.73 4.84-3.57 8.3-4.14 17-.7 10.68-3.28 25.87-4.63 27.4-1.65 1.87-3.25 8.9-4.08 17.9-.46 4.93-1.15 9.7-1.53 10.57-.4.88-1 5.6-1.33 10.46-1.06 14.94-2.03 22.12-3.17 23.45-.6.7-1.17 1.95-1.28 2.77-1.1 8.54-1.55 11.17-2.57 14.5-.65 2.13-1.4 7.13-1.66 11.1-.26 4-.78 7.23-1.16 7.22-.96-.04-3.63 15.56-4.5 26.35-.42 4.94-1.04 10.54-1.4 12.45-1 5.37-2.5 17.67-3.07 25.4-1.98 27.1-3.38 36.25-5.87 38.3-1.5 1.27-2.97 6.77-2.2 8.3.55 1.06.28 3.14-.75 5.85-.87 2.3-2 6.44-2.5 9.17-.5 2.73-1.3 5.42-1.78 5.97-.47.56-.46 1.7.02 2.5 1.3 2.26.9 6.15-.96 9.42-.92 1.6-1.44 3.96-1.17 5.25.6 2.72-2.02 14.17-3.2 14.13-.44-.02-.86 1.5-.93 3.4-.1 2.7-.8 3.87-3.37 5.55-1.78 1.17-3.95 2.16-4.83 2.2-.88.04-2.75.65-4.15 1.35-1.4.7-4.58 1.33-7.06 1.4-5.93.13-14.05 1.77-16.74 3.37-1.2.7-5.7 1.33-10.06 1.38-4.82.06-10 .84-13.25 2-2.92 1.02-5.7 1.86-6.16 1.84-.46-.03-2.2-1.45-3.87-3.17zm322.7-55.85c5.7-1.25 8.5-2.67 9.2-4.7.36-.95 2.72-3.83 5.25-6.4 2.53-2.54 4.9-5.75 5.26-7.13.35-1.37 3.23-5.48 6.38-9.14 5.52-6.4 7-9.34 4.76-9.42-2.7-.1-7.6 3.36-15.14 10.68-2.6 2.52-5.2 4.57-5.8 4.56-.6 0-2.27 1.5-3.7 3.34-1.46 1.84-3.2 3.34-3.9 3.33-.68-.02-1.26.4-1.28.9-.02.5-.94 1.18-2.06 1.5-1.1.3-2.04 1.08-2.06 1.74-.03.65-1.22 2.36-2.65 3.8-3.8 3.8-3.48 7.25.7 7.72.56.06 2.82-.3 5.04-.78zM193.7 271.86c.68-1.83-3.37-1.67-4.15.16-.5 1.15-.12 1.48 1.5 1.3 1.2-.12 2.4-.8 2.65-1.46zm17.57.66c.26-.4-.1-1.3-.82-2.02-1.4-1.4-3-.1-2 1.67.68 1.2 2.13 1.4 2.82.35zm-45.38-33.95c3.7-2.07 7.62-8.66 7.8-13.06.1-3.4-4.88-8.83-8.27-9-2.16-.1-4.54 3.34-4.67 6.75-.04 1-.7 2.32-1.5 2.93-1.9 1.47-4.97-1.63-3.9-3.94 3.77-8.1 3.57-8.82-2.77-9.58-6.8-.8-10.22.54-12.73 5.03-2.16 3.86-2.2 4.17-.7 7.83 1.8 4.43 5.75 9.37 9.14 11.4 1.3.8 4.62 1.82 7.35 2.28l5.97 1.02c.55.1 2.47-.65 4.27-1.65zm89.78-4.2c1.63-1.3 3.3-2.32 3.7-2.3.38 0 1.27-1.8 1.95-4.02 1.64-5.33-.3-11.3-4.4-13.55-3.8-2.08-6.55-.55-7.5 4.17-1.1 5.36-2.87 8.9-4.43 8.85-.77-.03-2.16-2-3.07-4.38-.92-2.4-.36-5.16-1.23-5.94-1.4-1.25-3.62-.93-3.7 1.32-.06 1.4-.7 3.12-1.4 3.82-2.95 2.9-1.02 11.54 3.1 13.83 3.48 1.95 13.52.88 16.98-1.8z"/></svg>