<?xml version="1.0" encoding="UTF-8" standalone="no"?>
<!-- Generator: Adobe Illustrator 12.0.1, SVG Export Plug-In  -->

<svg
   xmlns:dc="http://purl.org/dc/elements/1.1/"
   xmlns:cc="http://creativecommons.org/ns#"
   xmlns:rdf="http://www.w3.org/1999/02/22-rdf-syntax-ns#"
   xmlns:svg="http://www.w3.org/2000/svg"
   xmlns="http://www.w3.org/2000/svg"
   xmlns:sodipodi="http://sodipodi.sourceforge.net/DTD/sodipodi-0.dtd"
   xmlns:inkscape="http://www.inkscape.org/namespaces/inkscape"
   version="1.1"
   width="1042"
   height="943"
   viewBox="-0.18 0.155 1042 943"
   enable-background="new -0.18 0.155 1042 943"
   xml:space="preserve"
   id="svg4008"
   inkscape:version="0.48.3.1 r9886"
   sodipodi:docname="Dog.svg"><metadata
   id="metadata4937"><rdf:RDF><cc:Work
       rdf:about=""><dc:format>image/svg+xml</dc:format><dc:type
         rdf:resource="http://purl.org/dc/dcmitype/StillImage" /><dc:title></dc:title><cc:license
         rdf:resource="http://creativecommons.org/licenses/publicdomain/" /><dc:source>//commons.wikimedia.org/wiki/File:Direcoes_anatomicas.svg</dc:source></cc:Work><cc:License
       rdf:about="http://creativecommons.org/licenses/publicdomain/"><cc:permits
         rdf:resource="http://creativecommons.org/ns#Reproduction" /><cc:permits
         rdf:resource="http://creativecommons.org/ns#Distribution" /><cc:permits
         rdf:resource="http://creativecommons.org/ns#DerivativeWorks" /></cc:License></rdf:RDF></metadata><sodipodi:namedview
   pagecolor="#ffffff"
   bordercolor="#666666"
   borderopacity="1"
   objecttolerance="10"
   gridtolerance="10"
   guidetolerance="10"
   inkscape:pageopacity="0"
   inkscape:pageshadow="2"
   inkscape:window-width="1280"
   inkscape:window-height="1000"
   id="namedview4935"
   showgrid="false"
   inkscape:zoom="0.87062566"
   inkscape:cx="181.58892"
   inkscape:cy="425.55603"
   inkscape:window-x="0"
   inkscape:window-y="24"
   inkscape:window-maximized="1"
   inkscape:current-layer="svg4008" />
<defs
   id="defs4010">
</defs>
















































































































<g
   id="XMLID_6_"><g
     id="g4013"><path
       inkscape:connector-curvature="0"
       d="m 525.023,296.155 c -0.012,0.06 -0.022,0.11 -0.045,0.16 -2.382,-0.39 -4.763,-0.77 -7.155,-1.05 v -1 c 0.674,0.02 1.303,0.07 1.898,0.15 1.719,0.62 3.482,1.2 5.302,1.74 z"
       id="path4015" /><path
       style="fill:#ffffff"
       inkscape:connector-curvature="0"
       d="m 528.055,297.085 c 0.057,0.02 0.124,0.05 0.18,0.07 -1.202,-0.07 -2.246,-0.28 -2.954,-0.79 0.539,0.09 1.09,0.18 1.629,0.27 0.37,0.14 0.753,0.3 1.145,0.45 z"
       id="path4017" /><path
       inkscape:connector-curvature="0"
       d="m 524.978,296.315 c -0.304,0.99 -1.809,0.93 -3.325,0.84 -24.891,-8.21 -47.522,-28.97 -85.364,-19 3.224,1.8 7.525,2.63 10.109,5 -5.155,1.6 -7.233,-0.28 -13.479,0 0.067,5.27 6.021,5.31 6.739,10 -8.199,-1.63 -1.595,4.73 -3.37,5 -1.235,-0.68 -5.829,-3.32 -3.37,-4 0.876,-0.22 1.303,-0.84 1.124,-2 0,-0.67 0,-1.33 0,-2 0.236,-4.21 -4.269,-4.2 -4.493,-8 2,-0.55 4.662,-0.51 5.616,-2 0,-0.33 0,-0.67 0,-1 -15.287,-13.73 -37.931,-20.9 -48.298,-39 2.291,0.29 2.201,2.71 4.493,3 16.399,11.4 26.014,28.84 53.914,30 6.009,1.66 19.824,1.66 25.834,0 18.442,5.1 31.404,15.07 48.612,21.26 -0.596,-0.08 -1.225,-0.13 -1.898,-0.15 v 1 c 2.393,0.28 4.774,0.66 7.156,1.05 z"
       id="path4019" /><path
       inkscape:connector-curvature="0"
       d="m 560.819,300.215 c 1.349,0.17 2.707,0.35 4.077,0.54 -8.289,-0.27 -17.196,-1.47 -24.216,-2.45 3.134,0.09 6.166,0.44 9.255,0.92 3.403,0.51 7.233,0.53 10.884,0.99 z"
       id="path4021" /><path
       style="fill:#fff197"
       inkscape:connector-curvature="0"
       d="m 392.484,478.155 c 0,-3.67 0,-7.33 0,-11 -1.864,1.4 -1.864,9.6 0,11 z m 215.656,8 c -0.753,0 -1.494,0 -2.247,0 0.169,3.181 2.55,4.4 2.247,8 14.377,-1.859 25.092,-6.989 30.326,-17 -3.481,-0.1 -5.369,1.221 -7.862,2 0,-0.33 0,-0.67 0,-1 -3.987,1.45 -8.75,2.21 -11.232,5 0.371,0 0.753,0 1.124,0 -1.304,3.511 -7.043,3.07 -12.356,3 z m 70.762,-38 c 0,0.33 0,0.67 0,1 3.527,-0.47 2.966,2.69 5.616,3 -2.819,-3.3 2.258,-1.43 4.493,-1 -1.921,-2.29 -6.335,-2.36 -10.109,-3 z m -34.819,16 c -2.853,-3.52 5.11,-4.319 6.739,-7 -4.234,0.23 -4.751,3.771 -8.985,4 -0.045,1.71 0.83,2.591 2.246,3 z m 197.684,139 c 2.628,2.66 3.044,7.29 6.739,9 3.324,2.38 7.907,3.62 11.232,6 -3.685,4.221 3.83,5.061 1.123,8 5.694,-0.89 6.952,-0.87 10.108,2 0.955,-0.18 1.056,0.391 1.123,1 -1.561,2.44 3.303,7.7 2.247,13 0,4.67 0,9.33 0,14 0,2 0,4 0,6 -4.83,-0.069 -8.188,-6.659 -12.355,-4 2.583,3.37 6.48,5.57 8.985,9 -1.64,0.87 -4.347,0.79 -3.369,4 6.425,2.94 5.537,12.4 7.862,19 -0.349,2.351 -5.324,0.591 -4.493,4 8.807,14.42 24.486,31.681 20.218,55 -1.179,6.471 -7.346,13.69 -5.616,22 0,2.61 0,5.23 0,7.841 1.102,2.17 1.898,4.369 2.55,6.739 0.719,2.57 1.741,5.141 2.09,7.79 0.595,4.48 -1.686,9.061 -4.213,12.62 -1.605,2.25 -3.628,4.38 -6.144,5.61 -2.561,1.24 -5.38,1.2 -8.154,1.1 -3.011,-0.12 -6.021,-0.27 -9.042,-0.21 -2.235,0.04 -4.504,0.23 -6.739,-0.03 -2.482,-0.29 -6.211,-0.899 -6.997,-3.77 -0.45,-1.65 0.472,-3.47 1.403,-4.79 0.843,-1.2 1.978,-2.021 3.19,-2.81 1.448,-0.94 2.65,-0.94 4.212,-1.471 -5.763,-0.06 -8.626,3.21 -12.108,7.33 -1.337,1.59 -3.932,2.95 -6.054,2.22 -2.135,-0.739 -3.583,-2.779 -5.156,-4.26 -1.561,-1.46 -0.954,-3.8 0.214,-5.399 3.358,-4.57 9.075,-5.83 14.489,-5.65 -0.764,-0.01 -1.572,-0.59 -2.336,-0.7 -0.978,-0.149 -1.775,0.101 -2.707,0.21 -1.819,0.221 -3.358,-0.02 -5.032,0.891 -1.359,0.729 -2.583,1.619 -3.942,2.38 -1.415,0.8 -2.785,1.67 -3.83,2.939 -1.19,-0.34 -0.629,-2.71 -0.741,-3.7 -0.102,-0.89 -0.741,-1.93 -0.382,-2.819 0.18,-0.431 0.809,-0.561 0.921,-1 0.067,-0.271 -0.292,-0.72 -0.304,-1.05 -0.033,-0.801 0.506,-1.61 0.944,-2.24 0.943,-1.38 2.189,-2.55 3.414,-3.68 1.898,-1.74 4.695,-3.761 7.301,-4.2 2.28,-0.38 4.459,-0.82 6.065,-2.61 1.595,-1.79 2.729,-3.68 3.819,-5.81 0.64,-1.25 1.101,-2.54 1.55,-3.891 0.719,-2.18 2.168,-4.17 2.595,-6.42 0.46,-2.46 0.449,-5.12 0.146,-7.6 -0.662,-5.46 -2.538,-10.69 -4.549,-15.78 -1.157,-2.939 -2.381,-5.84 -3.538,-8.78 -4.134,-10.55 -5.189,-21.29 -7.862,-31 -10.783,-39.069 -41.648,-65.729 -64.023,-93 -19.218,-23.42 -36.01,-50.3 -53.913,-73 -2.595,-4.02 -5.897,-7.409 -8.986,-11 -0.909,-0.189 -1.123,-1 -2.246,-1 -10.277,-17.229 -15.691,-64.46 -35.595,-71.13 -1.19,-0.41 -2.426,-0.67 -3.729,-0.76 0.629,0.36 1.258,0.81 1.887,1.32 9.783,8 19.802,33.12 18.342,37.569 -32.404,-8.479 -42.322,18.48 -73.009,18 -3.134,2.21 -5.874,4.771 -11.231,5 -4.931,1.051 -3.685,-3.38 -7.862,-3 -7.29,2.511 -9.626,9.431 -15.726,13 -14.253,-4.239 -17.084,15.71 -30.326,9 -2.988,12.051 -16.938,2.351 -21.341,12 -3.572,-1.489 -6.324,-3.699 -11.232,-4 -2.044,2.511 -0.843,7.91 -5.616,8 -5.47,1.21 -3.773,-3.979 -7.862,-4 -2.819,7.801 -10.906,-0.68 -15.725,4 0.022,-3.689 -0.506,-6.89 -4.493,-7 -1.011,5.761 -2.842,10.811 -10.108,11 1.37,-1.51 2.201,-8.609 0,-10 -3.752,2.32 -1.101,10.351 -7.862,10 -4.932,-1.279 -6.01,-5.979 -14.602,-4 -2.28,0.641 -0.741,4.67 -3.37,5 -3.976,0.54 -2.763,-3.54 -6.739,-3 -2.213,6.46 -15.22,15.73 -19.095,4 -1.134,-3.01 2.505,-1.77 4.493,-2 -5.538,-9.21 3.123,-11 3.37,-20 2.583,-2.37 0.404,-8.979 1.123,-13 0.752,0 1.494,0 2.247,0 2.381,1.221 3.257,3.761 6.739,4 5.47,3.67 3.561,8.23 6.739,13 1.977,-0.909 2.055,-3.5 3.37,-5 5.515,-0.909 4.279,4.19 8.986,4 -2.752,-4.55 -5.246,-9.33 -8.986,-13 -0.034,-0.97 -1.371,-0.779 -2.247,-1 0.382,2.011 -0.225,3.13 -2.247,3 -7.907,-1.96 -12.22,-7.12 -19.094,-10 -1.764,-0.52 -6.021,-3.85 -7.863,-1 4.179,7.28 7.278,15.521 7.863,26 -4.336,-0.199 -8.278,-0.04 -11.232,1 -4.706,-2.83 -8.581,-11.67 -12.355,-12 15.624,13.091 17.163,38.721 22.464,61 0.213,4.19 -5.515,3.091 -4.493,8 -1.415,22.07 0.382,44.04 -4.493,67 -1.865,3.03 -1.865,12.96 0,16 -1.55,18.221 -2.864,29.87 6.739,41 -3.729,-0.319 -6.908,-0.149 -7.863,2 -0.505,5.12 2.685,6.94 3.37,11 -9.491,25.551 -5.537,63.07 -15.725,88 -5.392,-0.47 -9.289,0.391 -10.109,4 -5.1,1.13 -10.861,1.66 -12.355,6 -5.515,4.13 -13.085,8.181 -22.464,6 -2.314,-4.609 -5.616,-8.33 -8.986,-12 -0.865,-11.77 10.895,-12.3 15.725,-19 -14.467,-3.12 -15.096,14.5 -23.587,20 -21.757,-14.6 13.681,-27.34 25.833,-30 16.118,-6.93 15.646,-27.55 12.355,-47 0,-5.67 0,-11.33 0,-17 0,-11 0,-22 0,-33 0,-7 0,-14 0,-21 -0.955,-9.109 -7.492,-17.6 -5.616,-26 1.865,-2.71 1.865,-12.29 0,-15 -6.369,-18.33 -3.684,-44.72 -12.355,-61 -0.742,-7.34 1.482,-17.319 -1.124,-23 0,-0.67 0,-1.33 0,-2 -2.662,-4.3 -8.199,-6.04 -11.232,-10 0.932,5.19 8.323,9.891 4.493,16 -12.119,-2.21 -12.535,-14.84 -17.971,-23 -5.021,0.75 -10.929,-1.75 -14.602,-5 -6.369,3.62 -11.356,2.13 -19.095,0 -3.471,1.57 -1.37,8.12 -5.616,9 -5.863,-2.72 -9.536,-7.37 -12.883,-12.319 0.831,-2.351 1.617,-3.94 0.079,-7.28 -1.663,-3.6 -4.65,-7.7 -7.132,-10.82 -4.392,-5.5 -3.943,-13.33 -11.625,-15.47 v 1.54 c -0.034,-0.13 -0.09,-0.26 -0.146,-0.39 -3.74,-1.101 -5.346,0.779 -5.751,3.89 -0.27,-0.39 -0.505,-0.78 -0.73,-1.15 -3.493,-5.89 -4.279,-18.51 -7.862,-30 -9.345,-29.96 -7.952,-63.72 -1.123,-93 1.864,-5.35 1.864,-17.65 0,-23 -2.932,-17.39 -4.021,-36.42 -14.602,-47 -1.123,12.4 12.165,22.4 6.739,32 -11.535,-30.4 -34.482,-50.63 -43.805,-83 1.494,0 2.999,0 4.493,0 8.233,0 16.478,0 24.71,0 3.437,-0.72 4.088,1.02 6.739,1 2.393,1.54 4.178,3.61 6.739,5 4.897,2.64 4.841,9.69 11.232,11 0.236,1.12 1.247,1.56 2.247,2 0.067,-0.61 0.168,-1.18 1.123,-1 -5.941,-7.04 -11.176,-14.72 -21.341,-18 -6.885,-2.2 -14.972,-3.34 -24.71,-3 -1.213,-1.66 -10.019,-1.66 -11.232,0 -26.474,1.43 -50.039,5.45 -74.132,9 -4.122,0 -8.233,0 -12.355,0 -2.28,-2.31 -8.963,-0.69 -7.862,-6 5.245,0 10.479,0 15.725,0 3.786,-0.63 10.435,1.29 12.355,-1 16.938,0.08 30.529,-2.82 43.805,-6 3.459,-0.59 7.952,-0.26 7.862,-4 -0.135,-0.24 -0.292,-0.45 -0.505,-0.64 -0.842,-0.87 -2.269,-1.24 -3.987,-1.36 -28.305,0.19 -50.32,17.22 -78.625,8 -5.773,-1.86 -9.547,-5.5 -14.602,-8 3.695,-0.77 3.987,-3.85 2.246,-7 -5.47,-1.53 -4.223,2.9 -7.862,3 -3.021,-2.97 -4.268,-7.53 -7.862,-10 -0.326,-4.71 -3.28,-7.08 -2.247,-13 2.909,-4.74 10.255,-9 13.939,-14.59 0.225,-0.14 0.438,-0.28 0.663,-0.41 -0.022,-0.19 -0.034,-0.39 -0.045,-0.59 2.022,-3.59 2.438,-7.74 -0.741,-12.88 -0.101,-0.19 -0.213,-0.36 -0.337,-0.53 0.73,-3.98 -2.977,-4.02 -2.247,-8 0.371,0 0.753,0 1.124,0 6.908,-2.18 12.928,-5.15 17.971,-9 7.548,-1.62 11.457,-6.47 17.971,-9 5.908,-1.74 11.277,-3.96 14.602,-8 0.371,0 0.753,0 1.124,0 4.448,-1.71 8.581,-3.7 10.109,-8 6.099,-9.57 9.783,-21.29 16.848,-30 9.659,-6.41 18.825,-13.24 26.957,-21 5.739,-1.55 10.861,-3.66 17.971,-4 4.122,0 8.233,0 12.355,0 2.875,0.11 5.358,0.57 6.739,2 -5.268,10.31 -9.861,21.22 -8.985,37 0.708,3.37 -1.449,9.29 1.123,11 0,5 0,10 0,15 -2.516,0.43 -0.46,4.93 -1.123,7 -4.763,19.09 -10.985,36.88 -11.232,60 -1.864,2.05 -1.864,10.95 0,13 -0.55,5.15 0.854,8.57 4.493,10 16.77,-3.74 27.878,-12.51 47.175,-14 0.966,3.47 1.583,7.26 5.616,8 0.326,-6.45 1.898,-14.9 5.616,-21 5.717,-7.24 12.265,-13.75 15.725,-23 6.582,-9.27 -0.82,-27.31 8.986,-35 4.695,0.16 4.212,4.91 5.616,8 1.494,0 2.999,0 4.493,0 6.245,-0.44 9.154,-3.85 8.986,-10 0.27,-8.57 -1.46,-15.36 -3.37,-22 0.371,0 0.752,0 1.123,0 4.335,1.14 4.234,6.23 7.862,8 5.189,7.38 12.704,12.69 16.848,21 5.414,6.18 7.424,15.39 13.479,21 -0.258,3.9 2.415,5.18 3.37,8 4.246,6.88 7.48,14.67 12.355,21 0,0.33 0,0.67 0,1 13.557,30.93 38.593,51.64 68.516,68 0,0.33 0,0.67 0,1 -4.111,-0.66 -4.313,2.16 -7.862,2 0.775,3.98 4.942,4.94 6.739,8 0,0.67 0,1.33 0,2 0.18,1.16 -0.247,1.78 -1.124,2 -2.459,0.68 2.134,3.32 3.37,4 1.775,-0.27 -4.83,-6.63 3.37,-5 -0.719,-4.69 -6.672,-4.73 -6.739,-10 6.245,-0.28 8.323,1.6 13.479,0 -2.583,-2.37 -6.885,-3.2 -10.109,-5 37.841,-9.97 60.473,10.79 85.364,19 1.517,0.09 3.021,0.15 3.325,-0.84 0.101,0.02 0.202,0.03 0.303,0.05 0.708,0.51 1.752,0.72 2.954,0.79 h 0.012 c 1.875,0.71 3.785,0.98 5.762,1.08 0.404,0.07 0.898,0.07 1.427,0.04 0.011,0 0.022,0 0.045,0 1.066,0.02 2.167,0.01 3.279,0 0.651,0 1.292,0.01 1.921,0.03 7.02,0.98 15.927,2.18 24.216,2.45 12.603,1.71 25.564,4.07 37.999,5.46 6.391,0.71 12.152,4.4 18.185,5.81 3.302,0.77 7.323,0.26 10.782,0.25 4.796,-0.03 9.256,0.79 13.962,0.99 7.783,0.34 15.41,0.37 22.98,0.98 7.391,0.6 13.636,3.39 20.993,3.99 8.479,0.7 17.858,0.73 25.991,3.26 7.806,2.43 15.286,6.31 22.879,7.45 2.112,1.12 3.74,2.67 4.258,5.21 22.778,2.08 35.291,21.9 50.544,34 1.617,0.56 2.74,1.56 3.369,3 0.775,4.99 8.784,12.169 11.232,19 0,0.33 0,0.67 0,1 2.078,0.15 0.686,3.391 2.246,4 -4.784,31.48 15.748,59.78 19.095,87 -0.752,0 -1.494,0 -2.246,0 -9.761,-5.64 -13.187,-16.93 -23.588,-22 5.212,11.36 13.333,20.13 24.711,26 1.146,10.66 5.807,16.391 3.37,28 -1.865,1.721 -1.865,10.28 0,12 -1.921,4.96 0.022,13.36 -3.37,17 -1.123,0 -1.337,0.811 -2.246,1 -1.618,-3.859 -5.751,-9.8 -11.232,-7 2.673,3.44 7.896,4.591 10.569,8.021 0.135,0.3 0.394,0.64 0.663,0.979 0,0.33 0,0.67 0,1 1.403,3.41 2.415,7.181 4.492,10 2.629,7.32 3.448,16.261 6.739,23 4.471,10.351 12.232,17.78 16.849,28 0,1 0,2 0,3 -2.707,0.41 -2.438,-1.83 -5.616,-1 -2.408,-2.19 -3.498,-5.56 -6.744,-7 z m 41.559,135 c 0.247,-0.779 0.943,-1.159 2.246,-1 -1.313,-4.159 -1.763,-9.1 -5.615,-11 -1.764,3.08 -0.18,10.45 3.369,12 z m -1.123,-15 c 0.247,-5.89 -1.876,-9.659 -7.862,-10 0.898,4.87 3.009,8.65 7.862,10 z m -21.341,-73 c -0.651,-5.26 -6.133,-6.3 -3.37,-12 -3.74,-3.34 -5.931,-8.05 -13.479,-8 -1.089,4.971 4.538,3.96 5.616,7 -3.481,4.58 2.82,12.9 11.233,13 z m -99.966,-214 c -8.57,-6.37 -18.466,-11.56 -26.957,-18 6.941,7.16 16.478,17.32 26.957,18 z m -32.573,-8 c 6.739,2.011 14.905,8.04 20.218,8 -4.819,-3.19 -17.624,-9.449 -20.218,-8 z m 13.478,15 c -3.863,0.38 -6.997,-5.02 -10.108,-2 3.324,0.091 7.132,4.91 10.108,2 z m -70.761,17 c -3.897,0.2 -8.638,-0.35 -8.985,3 4.514,0.35 8.221,-0.02 8.985,-3 z m -261.708,-180 c 0.686,-0.06 1.326,-0.15 1.124,-1 -0.034,-0.03 -0.056,-0.07 -0.09,-0.1 0.045,-3.89 -11.176,-16.6 -12.266,-14.9 5.223,3.96 7.986,10.11 12.266,14.9 -0.012,0.64 -0.326,1.04 -1.034,1.1 z m -20.218,257 c 4.201,1.601 5.964,5.351 11.232,6 -0.213,-5.02 -7.266,-10.44 -11.232,-6 z m 1.124,9 c 0.213,-5.06 -6.795,-11.8 -11.232,-16 -2.033,6.68 4.144,14.16 11.232,16 z m -5.616,4 c -1.258,-4.529 -5.088,-4.729 -7.862,-8 -6.537,-7.71 -6.245,-18.939 -12.355,-27 1.178,16.61 4.571,31.261 20.217,35 z m -24.711,-283 c 0.067,-15.73 0.696,-31.96 -4.493,-43 -1.124,-1.33 -1.067,-3.72 -3.37,-4 1.64,1.87 0.045,6.63 2.246,8 0.685,11.72 3.212,21.81 4.493,33 0,3.67 0,7.33 0,11 0.551,7.17 1.674,-2.23 1.124,-5 z m -7.862,-20 c -0.73,-5.02 1.471,-12.64 -1.124,-16 -7.065,5.35 -0.326,22.44 -1.123,32 7.031,-1.9 0.427,-9.72 2.247,-16 z m -3.37,-33 c 0.09,-3.75 0.854,-8.09 -4.493,-7 -0.966,4.53 1.236,6.23 4.493,7 z m -12.355,304 c 4.931,5.28 7.346,12.801 13.479,17 -3.921,-5.38 -5.954,-21.29 -13.479,-17 z m 6.739,-253 c 1.55,-0.49 2.729,-9.01 -1.123,-8 0,0.67 0,1.33 0,2 -1.46,2.41 -4.033,9.02 -1.124,12 1,-1.78 3.134,-2.54 2.247,-6 z m -14.602,4 c 6.414,-0.95 6.087,-7.91 6.739,-14 -4.47,2.68 -5.402,8.52 -6.739,14 z m 0,-22 c -3.291,-0.57 -7.031,7.05 -8.986,11 -0.348,1.35 -1.595,1.91 -1.123,4 5.571,-3.04 8.121,-8.77 10.109,-15 z m -11.232,-45 c 0.191,-2.5 -1.729,-3.13 -3.37,-4 -1.089,2.37 -1.965,4.91 -6.739,4 0.652,1.76 -1.359,5.88 1.124,6 0.528,4.2 1.471,8.03 5.616,9 0,-4 0,-8 0,-12 1.685,-0.17 4.145,0.36 4.493,-1 -0.877,-0.22 -1.304,-0.84 -1.124,-2 z m -12.355,32 c 1.864,-1.4 1.864,-9.6 0,-11 -0.056,-4.61 0.494,-9.78 -1.124,-13 -0.135,-2.55 -0.213,-5.15 -3.37,-5 0.663,2.07 -1.393,6.57 1.124,7 0,2.67 0,5.33 0,8 1.078,7.72 -2.415,24.8 2.246,26 1.495,-3 1.146,-7.65 1.124,-12 z m -11.232,5 c 2.359,-5.46 1.168,-16.35 0,-22 -3.707,2.88 -3.707,19.11 0,22 z m -6.74,-6 c 0.057,-1.28 1.438,-1.39 1.124,-3 0,-0.67 0,-1.33 0,-2 0.056,-1.72 -0.865,-2.56 -2.247,-3 -0.651,2.09 -2.786,2.85 -2.246,6 1.606,0.24 1.898,1.65 3.369,2 z m 0,203 c -1.965,2.15 -2.504,16.83 2.247,13 -4.852,-0.68 -1.033,-9.08 -2.247,-13 z m -34.819,-147 c -4.335,-7.8 -8.783,-15.52 -15.725,-21 0.461,7.27 8.334,16.57 15.725,21 z m -46.051,-160 c 5.526,-6.75 -4.909,-14.37 -12.355,-16 -1.808,-1.71 -5.784,-0.92 -6.739,1 3.156,0.85 4.605,3.23 8.986,3 1.123,1.99 4.964,1.58 4.493,5 -0.876,0.22 -1.303,0.84 -1.123,2 0,0.33 0,0.67 0,1 1.943,2.27 2.707,5.59 2.247,10 1.685,-0.17 4.145,0.36 4.493,-1 -0.002,-1.67 -0.002,-3.33 -0.002,-5 z m -14.602,1 c 0.82,-3.06 -1.943,-2.94 -1.124,-6 -1.123,0 -2.246,0 -3.37,0 -3.269,-3.43 -8.053,-5.49 -13.479,-7 -2.909,-1.07 -5.503,-2.43 -10.109,-2 -2.459,3.23 5.818,5.45 4.493,11 -1.045,2.4 -4.516,2.65 -3.37,7 -3.662,3.08 -8.694,4.93 -8.986,11 0,1.33 0,2.67 0,4 1.786,7.11 12.636,6.76 16.848,2 4.571,-0.26 7.626,-1.88 11.232,-3 0.483,-4.43 -1.875,-6.33 -5.616,-7 -2.269,-3.65 -10.491,-1.99 -8.986,-9 1.977,-3.24 4.021,-6.42 7.862,-8 3.246,1.96 12.996,12.86 14.422,8.36 0.011,-0.01 0.011,-0.01 0.011,-0.02 0.251,-0.29 0.329,-0.71 0.172,-1.34 z m 3.37,31 c -1.034,-4.08 -6.279,-4.41 -11.232,-5 -1.865,6.36 7.154,7.11 11.232,5 z m -89.857,54 c 1.775,2.02 6.256,2.88 7.863,0 -2.427,-0.64 -6.987,-3.75 -7.863,0 z m -16.848,4 c 1.112,-4.26 -4.246,-9.04 -5.616,-5 0,0.67 0,1.33 0,2 -0.517,3.12 2.403,3.2 5.616,3 z"
       id="path4023" /><path
       inkscape:connector-curvature="0"
       d="m 539.625,298.155 c 3.189,0 6.391,0 9.581,0 -2.415,0.12 -4.853,0.21 -7.335,0.17 -0.427,-0.01 -0.854,-0.02 -1.28,-0.03 -0.327,-0.05 -0.652,-0.1 -0.966,-0.14 z"
       id="path4025" /><path
       style="fill:#f7f2ef"
       inkscape:connector-curvature="0"
       d="m 553.541,297.875 c -1.438,0.1 -2.887,0.2 -4.335,0.28 -3.19,0 -6.392,0 -9.581,0 -0.573,-0.17 -1.359,-0.14 -2.202,-0.06 -1.482,-0.13 -2.954,-0.31 -4.425,-0.51 -0.067,-0.12 -0.102,-0.27 -0.112,-0.43 6.447,0.62 15.589,-1.15 20.655,0.72 z"
       id="path4027" /><path
       inkscape:connector-curvature="0"
       d="m 881.911,323.365 c -2.325,8.88 -12.974,11.73 -22.015,13.1 1.156,1.79 3.673,2.38 4.549,4.82 -2.887,1.81 -7.525,2.15 -10.682,2.92 -3.774,0.91 -6.347,2.1 -10.614,2.04 2.965,1.04 6.155,1.39 7.57,4.82 -9.896,0.01 -19.174,3.74 -28.799,5.4 1.415,1.93 4.189,6.08 1.438,7.82 -2.235,1.42 -7.178,-1.75 -9.401,-2.02 -3.797,-0.45 -7.525,-0.85 -11.288,-0.99 -3.875,-0.15 -7.223,1.46 -10.716,1.16 -0.864,3.81 11.108,3.99 12.872,7.83 l 1,-4 c -0.966,5.37 4.717,13.32 10.49,13.82 4.201,0.37 11.311,-5.32 15.04,-7.69 6.009,-3.82 12.142,-5.87 18.926,-8.15 5.471,-1.84 11.895,-7.66 17.41,-8.18 0.359,-2.97 -4.1,-3.64 -3.718,-6.6 4.402,-1.34 9.075,-3.73 13.344,-5.24 4.01,-1.42 11.142,-4.57 12.423,-8.76 -1.943,-1.38 -5.426,-0.49 -5.92,-3.27 -0.235,-1.33 0.551,-2.28 1.64,-3.04 10.828,-0.39 16.927,-5 22.577,-10 -0.843,-0.82 -2.404,-1 -3.673,-1.45 3.257,-2.62 6.447,-5.86 9.334,-9.27 9.188,-5.94 17.758,-13.42 15.68,-22.28 4.808,-1.38 6.11,-5.89 10.108,-8 -4.729,-10.32 5.605,-14.69 6.739,-23 -0.999,0.27 -1.943,0.6 -2.819,0.98 0.472,-1.94 0.719,-3.85 0.461,-5.52 -2.819,3.12 -4.773,6.4 -6.56,9.78 -5.055,5.23 -7.323,12.93 -10.963,19.42 -0.527,0.74 -1.111,1.43 -1.752,2.07 -1.539,1.51 -3.257,3.06 -4.92,4.5 -1.044,0.91 -5.402,3.17 -5.75,4.41 -0.461,1.67 2.594,3.79 1.92,6.33 -0.46,1.76 -2.516,3.24 -3.998,4.18 -3.763,2.38 -9.02,1.91 -11.086,5.43 -0.629,1.07 0.572,2.46 -0.27,3.69 -0.652,0.93 -2.112,0.95 -3.033,1.47 -2.011,1.15 -3.74,1.73 -5.852,2.37 -4.808,1.46 -9.323,-0.59 -9.222,5.03 0.024,1.48 -0.133,2.83 -0.47,4.07 z m 80.04,-139.21 c 2.279,20.12 -8.099,40.23 -11.232,64 -3.808,28.94 -16.871,52.13 -35.942,65 -1.067,10.05 -10.581,12.57 -16.849,18 -0.988,3.21 3.707,1.37 3.37,4 -5.481,6.78 -13.591,11.24 -24.711,13 -0.988,3.21 2.909,2.07 3.37,4 -11.312,13.27 -33.551,16.8 -48.298,27 2.628,3.341 9.311,-1.479 11.231,1 -5.998,8.32 -21.509,8.181 -34.819,10 -2.448,-6.83 -10.457,-14.01 -11.232,-19 -0.629,-1.44 -1.752,-2.44 -3.369,-3 -15.253,-12.1 -27.766,-31.92 -50.544,-34 -0.518,-2.54 -2.146,-4.09 -4.258,-5.21 0.337,0.06 0.686,0.1 1.022,0.14 -0.416,-1.2 -1.505,-2.37 -2.954,-3.47 1.393,0.45 2.988,0.71 5.065,0.54 3.415,1.66 14.557,1.66 17.972,0 14.142,-0.75 28.833,-0.99 42.682,-2 -11.726,5.23 -32.168,2.69 -47.175,5 -0.157,5.97 12.558,8.7 20.218,11 -0.258,1.44 -3.347,0.35 -3.369,2 3.089,14.14 32.596,18.86 44.928,15 -0.876,-0.89 -1.213,-2.26 -1.123,-4 1.977,-0.58 6.604,1.21 6.739,-1 5.392,-0.2 9.503,-1.54 14.602,-2 3.583,-2.95 -5.829,-4.05 -2.246,-7 8.997,0.34 16.241,-0.88 22.464,-3 -1.662,-1.85 -5.807,-1.5 -5.616,-5 7.941,-3.6 21.162,-2.5 26.957,-8 0.652,-5.25 -1.977,-7.57 -1.123,-13 4.628,-2.88 13.479,-2 19.095,-4 1.55,-1.29 1.112,-4.34 1.123,-7 5.695,0.07 7.256,-3.54 12.355,-4 0.91,-0.19 1.123,-1 2.246,-1 1.359,-3.17 -7.244,-7.31 0,-11 3.044,-0.62 2.797,-4.18 6.739,-4 15.422,-27.27 34.19,-51.56 39.312,-88 1.864,-2.71 1.864,-12.29 0,-15 -0.798,-6.96 0.562,-15.83 -3.369,-20 -10.479,58.34 -35.966,103.32 -75.255,136 0.022,2.36 -1.933,2.94 -1.124,6 -5.817,3.49 -11.052,7.49 -14.602,13 -18.971,6.44 -33.101,17.2 -56.16,20 -0.596,0.8 -1.168,1.62 -1.123,3 0.482,1.91 3.212,1.81 2.246,5 -1.629,0.55 -5.807,-1.17 -5.616,1 -2.246,0 -4.492,0 -6.739,0 -3.032,-2.99 5.257,-1.97 7.863,-3 0.19,-3.84 -5.808,-2.16 -5.616,-6 31.517,-6.28 56.25,-18.59 76.378,-35 -1.011,-2.42 -6.335,-0.43 -6.739,1 -1.629,-0.44 0.112,-0.88 0,-2 2.673,-1.62 4.953,-3.59 7.862,-5 6.459,-4.92 12.445,-10.25 17.972,-16 31.686,-34.12 52.061,-78.32 57.283,-136 7.615,1.22 6.941,9.82 8.985,16 0.742,8.34 -1.483,19.32 1.124,26 z"
       id="path4029" /><path
       inkscape:connector-curvature="0"
       d="m 532.998,297.585 c 0.157,0.37 0.527,0.56 1.011,0.65 -1.977,-0.1 -3.887,-0.37 -5.762,-1.08 0.651,0.05 1.348,0.05 2.066,0.03 0.898,0.14 1.786,0.28 2.685,0.4 z"
       id="path4031" /><path
       inkscape:connector-curvature="0"
       d="m 726.077,323.155 c 2.954,3.03 8.615,3.66 12.591,5.79 -7.593,-1.14 -15.073,-5.02 -22.879,-7.45 -8.133,-2.53 -17.512,-2.56 -25.991,-3.26 -7.357,-0.6 -13.603,-3.39 -20.993,-3.99 -7.57,-0.61 -15.197,-0.64 -22.98,-0.98 -4.706,-0.2 -9.166,-1.02 -13.962,-0.99 -3.459,0.01 -7.48,0.52 -10.782,-0.25 -6.032,-1.41 -11.794,-5.1 -18.185,-5.81 -12.435,-1.39 -25.396,-3.75 -37.999,-5.46 4.64,0.15 9.099,0.02 12.917,-0.6 4.481,2.01 12.58,0.8 16.849,3 21.531,5.16 50.286,9.22 74.132,9 17.969,4.67 40.872,4.94 57.282,11 z"
       id="path4033" /><path
       inkscape:connector-curvature="0"
       d="m 724.19,318.955 c 2.887,1.42 8.862,3.83 12.546,6.66 -3.302,-1.03 -5.537,-3.04 -10.659,-2.46 -16.41,-6.06 -39.312,-6.33 -57.283,-11 -25.104,-2.65 -47.636,-7.59 -74.132,-9 -4.269,-2.2 -12.367,-0.99 -16.849,-3 -8.008,-0.54 -15.927,-1.15 -23.587,-2 -0.214,-0.1 -0.449,-0.2 -0.686,-0.28 4.381,-0.3 8.739,-0.63 13.266,-0.59 4.043,0.04 7.177,0.19 10.917,1.02 3.617,0.8 7.503,2.58 11.277,3.05 7.795,0.98 15.938,-0.47 23.767,0.53 7.594,0.98 15.691,1.56 23.082,3.33 3.605,0.86 7.076,2.56 10.704,3.06 3.673,0.5 7.594,-0.09 11.289,0.27 14.814,1.46 29.967,4.18 45.062,5.66 7.448,0.72 14.4,1.39 21.286,4.75 z"
       id="path4035" /><path
       inkscape:connector-curvature="0"
       d="m 554.226,298.155 c -1.674,0 -3.348,0 -5.021,0 1.448,-0.08 2.897,-0.18 4.335,-0.28 0.237,0.08 0.472,0.18 0.686,0.28 z"
       id="path4037" /><path
       inkscape:connector-curvature="0"
       d="m 530.313,297.185 c -0.719,0.02 -1.415,0.02 -2.066,-0.03 h -0.012 c -0.056,-0.02 -0.123,-0.05 -0.18,-0.07 -0.393,-0.15 -0.775,-0.31 -1.146,-0.45 1.135,0.19 2.269,0.38 3.404,0.55 z"
       id="path4039" /><path
       style="fill:#ffffff"
       inkscape:connector-curvature="0"
       d="m 802.455,755.405 c 2.64,-3.89 3.887,-8.149 4.493,-12.649 0.37,-2.67 0.505,-5.42 0.584,-8.21 0.045,-1.63 0.101,-3.261 0.18,-4.891 0.112,-0.17 0.236,-0.34 0.359,-0.5 2.605,-4.68 0.382,-13.659 1.123,-20 1.202,-16.93 2.28,-33.97 7.862,-47 23.891,18.061 19.398,61.4 35.943,86 0,5 0,10 0,15 -6.481,15.7 -33.427,18.051 -26.957,42 8.614,-0.34 6.784,8.63 12.354,11 6.841,0.851 16.77,-1.47 23.588,-1 6.031,0.42 11.468,4.061 16.848,3 10.267,-2.02 20.622,-18.949 15.726,-31 0,-9.59 0,-19.189 0,-28.779 0.472,-1.551 0.966,-3.101 1.19,-4.7 0.314,-2.23 0.078,-4.67 0.078,-6.94 -0.011,-1.25 -0.112,-2.399 -0.247,-3.63 -0.202,-1.92 0.09,-3.84 -0.146,-5.76 -0.259,-2.21 -0.674,-4.4 -1.168,-6.57 -1.741,-7.74 -4.685,-15.13 -7.649,-22.46 -2.92,-7.26 -5.919,-14.54 -7.784,-22.16 0,-10 0,-20 0,-30 1.292,-12.149 -1.662,-20.52 -6.739,-27 -0.067,-0.609 -0.168,-1.18 -1.123,-1 -4.245,-7.55 -10.479,-13.34 -14.602,-21 -5.425,-5.83 -9.03,-13.29 -13.479,-20 -2.55,-11.729 -7.57,-21.26 -8.985,-34 0,-8 0,-16 0,-24 0,-6.33 0,-12.67 0,-19 6.031,-5.54 -2.674,-13.01 -2.246,-20 0.764,-2.659 2.145,-4.75 3.369,-7 -9.637,-28.5 -21.016,-57.05 -24.711,-88 -1.561,-0.609 -0.168,-3.85 -2.246,-4 0,-0.33 0,-0.67 0,-1 13.311,-1.819 28.821,-1.68 34.819,-10 -1.921,-2.479 -8.604,2.341 -11.231,-1 14.747,-10.2 36.986,-13.729 48.298,-27 -0.461,-1.93 -4.358,-0.79 -3.37,-4 11.12,-1.76 19.229,-6.22 24.711,-13 0.337,-2.63 -4.358,-0.79 -3.37,-4 6.268,-5.43 15.781,-7.95 16.849,-18 19.071,-12.87 32.135,-36.06 35.942,-65 3.134,-23.77 13.512,-43.88 11.232,-64 -0.742,-8.34 1.482,-19.32 -1.124,-26 -2.044,-6.18 -1.37,-14.78 -8.985,-16 -5.223,57.68 -25.598,101.88 -57.283,136 -6.459,4.92 -12.445,10.25 -17.972,16 -2.909,1.41 -5.189,3.38 -7.862,5 -18.084,11.9 -39.391,20.93 -66.27,25 -13.849,1.01 -28.54,1.25 -42.682,2 -5.986,0 -11.984,0 -17.972,0 -2.077,0.17 -3.673,-0.09 -5.065,-0.54 -3.684,-2.83 -9.659,-5.24 -12.546,-6.66 -6.886,-3.36 -13.838,-4.03 -21.285,-4.75 -15.096,-1.48 -30.248,-4.2 -45.062,-5.66 -3.695,-0.36 -7.616,0.23 -11.289,-0.27 -3.628,-0.5 -7.099,-2.2 -10.704,-3.06 -7.391,-1.77 -15.488,-2.35 -23.082,-3.33 -7.828,-1 -15.972,0.45 -23.767,-0.53 -3.774,-0.47 -7.66,-2.25 -11.277,-3.05 -3.74,-0.83 -6.874,-0.98 -10.917,-1.02 -4.526,-0.04 -8.885,0.29 -13.266,0.59 -5.065,-1.87 -14.208,-0.1 -20.655,-0.72 -0.843,0 -1.719,0.03 -2.572,0.03 -1.135,-0.17 -2.269,-0.36 -3.403,-0.55 -2.55,-1.03 -4.493,-1.89 -7.188,-2.22 -17.208,-6.19 -30.17,-16.16 -48.612,-21.26 -8.615,0 -17.219,0 -25.834,0 -27.9,-1.16 -37.515,-18.6 -53.914,-30 -7.233,-6.56 -12.704,-14.69 -17.971,-23 -0.584,-11.31 -5.145,-15.23 -10.109,-23 -8.559,-13.39 -17.432,-32.09 -23.587,-44 -1.887,-3.81 -5.145,-6.4 -8.548,-8.87 -0.483,-0.46 -1,-0.85 -1.561,-1.13 -9.75,-12.65 -25.115,-20.31 -30.327,-37 -5.065,-5.15 -9.57,-10.81 -15.725,-15 -11.625,-7.05 -33.82,-14.73 -50.544,-8 -30.664,-8.61 -46.95,4.51 -60.653,17 -13.883,12.64 -22.914,25.68 -30.327,42 -14.388,6.58 -25.609,13.92 -41.559,22 -7.795,3.95 -41.312,13.47 -43.805,21 -2.572,7.79 5.661,16.82 8.986,23 4.437,8.24 5.369,15.98 8.985,23 8.728,16.93 25.834,24.89 42.682,32 26.261,-2.28 47.927,-8.66 76.378,-9 16.141,21.54 29.484,50.77 42.682,76 4.616,8.82 12.231,18.09 13.479,26 3.078,19.52 -8.918,39.669 -6.739,60 -3.246,3.13 -3.078,14.561 -1.124,19 18.174,73.15 33.663,148.69 43.805,229 0,14.33 0,28.67 0,43 -2.393,17.53 -6.122,30.44 -7.862,45 -1.752,14.57 -35.033,17.69 -47.175,26 -2.763,1.891 -5.459,4.561 -7.559,7.15 -3.684,4.51 -5.807,10.479 -5.01,16.33 0.404,2.96 1.663,5.7 3.628,7.95 2.247,2.55 5.133,4 7.784,6.02 1.763,1.34 3.841,1.91 5.582,3.3 2.381,1.91 4.235,1.511 7.054,0.94 2.325,-0.46 4.695,-1.061 6.93,-1.86 2.235,-0.8 3.549,-2.84 4.864,-4.7 1.089,4.421 4.998,6.32 9.413,6.261 2.482,-0.03 5.312,-0.141 7.671,-0.92 2.146,-0.71 4.156,-1.86 6.211,-2.78 3.853,-1.71 7.593,-4.1 11.097,-6.44 3.999,-2.67 8.031,-5.979 10.547,-10.13 1.516,-2.51 2.864,-5.13 4.425,-7.609 2.741,-4.351 4.156,-9.431 5.908,-14.271 1.842,-5.1 3.695,-10.2 5.695,-15.24 6.526,-16.479 18.769,-33.43 14.602,-55 0,-3.67 0,-7.33 0,-11 0,-6.33 0,-12.67 0,-19 2.572,-33.05 3.358,-67.68 4.493,-102 1.865,-9 5.931,-16.05 11.232,-22 14.467,6.12 16.679,23.15 20.218,39 3.864,0.23 0.73,6.69 3.37,8 0,1 0,2 0,3 0.708,3.37 -1.449,9.29 1.123,11 0,2 0,4 0,6 0.73,4.69 -1.472,11.971 1.123,15 0.371,0 0.752,0 1.123,0 1.741,14.11 4.426,27.391 4.493,43 0.741,11 -1.494,24.66 1.123,34 0.73,5.351 -1.471,13.311 1.123,17 0.584,9.11 -0.135,15.03 1.124,22 0.708,3.04 -1.438,8.61 1.123,10 1.247,5.58 1.505,11.44 -0.696,16.82 -1.73,4.26 -5.1,7.72 -8.874,10.25 -4.167,2.79 -8.682,4.83 -13.265,6.8 -4.583,1.971 -9.637,3.891 -13.815,6.62 -2.01,1.32 -3.965,2.76 -5.919,4.16 -2.359,1.69 -3.617,3.95 -4.65,6.62 -0.326,0.85 -0.764,1.76 -0.966,2.66 -0.27,1.239 -0.921,2.38 -1.157,3.609 -0.393,1.99 0.741,4.48 1.707,6.19 2.056,3.67 7.795,5.12 11.682,5.18 -0.258,0 -0.607,1.51 -0.618,1.73 -0.022,0.689 0.292,1.239 0.674,1.79 0.73,1.069 1.595,1.85 2.066,3.08 0.359,0.92 0.371,1.26 1.449,1.449 1.348,0.23 2.796,-0.05 4.145,0.021 4.515,0.22 8.772,2.05 13.119,3.11 2.763,0.67 5.537,1.01 8.379,0.909 16.04,-14.569 40.537,-14.279 43.805,-39 2.864,-21.71 1.831,-48.55 10.109,-67 -1.213,-2.92 -2.516,-5.76 -2.247,-10 2.741,0.561 2.393,3.87 6.739,3 0.483,-12.1 -9.525,-14.859 -7.862,-28 0,-11 0,-22 0,-33 -1.977,-12.42 2.898,-18.75 4.493,-28 -0.73,-6.01 1.483,-14.649 -1.123,-19 0,-8.33 0,-16.67 0,-25 0,-1.33 0,-2.67 0,-4 3.594,0.46 3.965,3.811 7.862,4 -2.64,-9.979 -5.425,-19.84 -7.862,-30 10.401,-4.069 13.793,-14.39 29.204,-14 4.335,4.92 10.198,4.83 16.848,9 0.057,-1.279 1.438,-1.39 1.123,-3 4.932,-1.939 8.054,-5.5 11.232,-9 0.371,0 0.753,0 1.123,0 0.483,1.9 2.415,2.511 2.247,5 4.212,-1.25 4.953,-5.6 8.985,-7 3.628,6.62 15.096,-1.29 21.341,5 4.729,0.21 3.954,-4.479 6.739,-6 3.583,-0.859 3.471,1.57 5.616,2 17.758,-15.52 51.892,-16.47 66.269,-35 11.839,6.311 24.576,-3 38.189,-4 7.368,8.44 14.04,17.5 16.849,30 15.106,13.891 27.136,30.511 39.312,47 3.527,5.53 8.391,9.86 14.602,13 10.862,2.66 9.828,15.92 22.465,17 2.942,4.051 7.256,6.88 11.231,10 21.476,27.63 47.691,85.37 17.972,120 -14.467,6.33 -39.852,10.11 -40.436,25 -0.258,6.66 4.897,10.75 10.222,13.561 3.224,1.689 6.638,2.77 10.153,3.66 4.089,1.029 8.188,2.239 12.344,2.979 4.819,0.86 10.412,0.59 14.939,-1.49 7.604,-3.5 14.208,-9.609 19.026,-16.38 1.966,-2.76 3.875,-5.5 6.312,-7.87 2.842,-2.75 6.021,-5.14 8.582,-8.17 0.561,-0.67 1.078,-1.35 1.538,-2.04 z m -37.066,36.75 c -3.74,0 -7.492,0 -11.232,0 1.213,1.65 10.019,1.65 11.232,0 z M 1041.148,0.265 c 0,314.25 0,628.47 0,942.72 -346.937,0 -693.873,0 -1040.832,0 0,-313.13 0,-626.28 0,-939.4 -0.101,-1.57 -0.191,-3.13 1.146,-3.32 346.565,0 693.131,0 1039.686,0 z"
       id="path4041" /><path
       inkscape:connector-curvature="0"
       d="m 525.023,296.155 c 0.078,0.08 0.168,0.15 0.258,0.21 -0.101,-0.02 -0.202,-0.03 -0.303,-0.05 0.022,-0.05 0.033,-0.1 0.045,-0.16 z"
       id="path4043" /><path
       inkscape:connector-curvature="0"
       d="m 577.813,300.155 c -3.818,0.62 -8.277,0.75 -12.917,0.6 -1.37,-0.19 -2.729,-0.37 -4.077,-0.54 -3.65,-0.46 -7.48,-0.48 -10.884,-0.99 -3.089,-0.48 -6.121,-0.83 -9.255,-0.92 -0.034,-0.01 -0.057,-0.01 -0.09,-0.01 0.427,0.01 0.854,0.02 1.28,0.03 2.482,0.04 4.92,-0.05 7.335,-0.17 1.673,0 3.347,0 5.021,0 7.66,0.85 15.579,1.46 23.587,2 z"
       id="path4045" /><path
       inkscape:connector-curvature="0"
       d="m 526.91,296.635 c -0.539,-0.09 -1.09,-0.18 -1.629,-0.27 -0.09,-0.06 -0.18,-0.13 -0.258,-0.21 -1.82,-0.54 -3.583,-1.12 -5.302,-1.74 2.696,0.33 4.639,1.19 7.189,2.22 z"
       id="path4047" /><path
       style="fill:#f7f2ef"
       inkscape:connector-curvature="0"
       d="m 535.435,298.275 c -0.528,0.03 -1.022,0.03 -1.427,-0.04 0.472,0.02 0.944,0.03 1.427,0.04 z"
       id="path4049" /><path
       inkscape:connector-curvature="0"
       d="m 739.69,329.085 c -0.337,-0.04 -0.686,-0.08 -1.022,-0.14 -3.976,-2.13 -9.637,-2.76 -12.591,-5.79 5.122,-0.58 7.357,1.43 10.659,2.46 1.449,1.1 2.538,2.27 2.954,3.47 z"
       id="path4051" /><path
       style="fill:#fff197"
       inkscape:connector-curvature="0"
       d="m 532.885,297.155 c 0.011,0.16 0.045,0.31 0.112,0.43 -0.898,-0.12 -1.786,-0.26 -2.685,-0.4 0.855,0 1.73,-0.03 2.573,-0.03 z"
       id="path4053" /><path
       inkscape:connector-curvature="0"
       d="m 537.422,298.095 c -0.64,0.05 -1.313,0.14 -1.942,0.18 -0.022,0 -0.034,0 -0.045,0 -0.483,-0.01 -0.955,-0.02 -1.427,-0.04 -0.483,-0.09 -0.854,-0.28 -1.011,-0.65 1.471,0.2 2.943,0.38 4.425,0.51 z"
       id="path4055" /><path
       inkscape:connector-curvature="0"
       d="m 540.59,298.295 c 0.033,0 0.056,0 0.09,0.01 -0.629,-0.02 -1.27,-0.03 -1.921,-0.03 -1.112,0.01 -2.213,0.02 -3.279,0 0.629,-0.04 1.303,-0.13 1.942,-0.18 1.057,0.09 2.113,0.16 3.168,0.2 z"
       id="path4057" /><path
       style="fill:#fff197"
       inkscape:connector-curvature="0"
       d="m 539.625,298.155 c 0.314,0.04 0.64,0.09 0.966,0.14 -1.056,-0.04 -2.111,-0.11 -3.168,-0.2 0.842,-0.08 1.628,-0.11 2.202,0.06 z"
       id="path4059" /><path
       inkscape:connector-curvature="0"
       d="m 943.406,256.135 c 0.876,-0.38 1.82,-0.71 2.819,-0.98 -1.134,8.31 -11.468,12.68 -6.739,23 -3.998,2.11 -5.301,6.62 -10.108,8 2.078,8.86 -6.492,16.34 -15.68,22.28 2.718,-3.19 5.155,-6.52 7.132,-9.64 4.706,-7.46 9.918,-14.53 14.287,-22.2 2.325,-4.09 4.055,-7.94 5.627,-12.45 0.798,-2.28 1.977,-5.18 2.662,-8.01 z"
       id="path4061" /><path
       style="fill:#fff197"
       inkscape:connector-curvature="0"
       d="m 883.82,332.195 c 0.494,2.78 3.977,1.89 5.92,3.27 -1.281,4.19 -8.413,7.34 -12.423,8.76 -4.269,1.51 -8.941,3.9 -13.344,5.24 -0.382,2.96 4.077,3.63 3.718,6.6 -5.516,0.52 -11.939,6.34 -17.41,8.18 -6.784,2.28 -12.917,4.33 -18.926,8.15 -3.729,2.37 -10.839,8.061 -15.04,7.69 -5.773,-0.5 -11.456,-8.45 -10.49,-13.82 l -1,4 c -1.764,-3.84 -13.736,-4.02 -12.872,-7.83 3.493,0.3 6.841,-1.31 10.716,-1.16 3.763,0.14 7.491,0.54 11.288,0.99 2.224,0.27 7.166,3.44 9.401,2.02 2.752,-1.74 -0.022,-5.89 -1.438,-7.82 9.625,-1.66 18.903,-5.39 28.799,-5.4 -1.415,-3.43 -4.605,-3.78 -7.57,-4.82 4.268,0.06 6.84,-1.13 10.614,-2.04 3.156,-0.77 7.795,-1.11 10.682,-2.92 -0.876,-2.44 -3.393,-3.03 -4.549,-4.82 9.041,-1.37 19.689,-4.22 22.015,-13.1 0.37,1.68 0.662,3.44 0.292,5.79 1.135,0.04 2.224,0.05 3.257,0 -1.089,0.76 -1.876,1.71 -1.64,3.04 z"
       id="path4063" /><path
       style="fill:#fff197"
       inkscape:connector-curvature="0"
       d="m 285.779,528.255 c -6.234,0.5 -16.522,-8.811 -18.903,-13.55 -0.292,-0.591 -0.663,-1.46 -1.056,-2.53 11.569,0.98 15.478,8.781 19.959,16.08 z"
       id="path4065" /><path
       inkscape:connector-curvature="0"
       d="m 802.264,743.155 c 0.045,-0.399 0.056,-0.8 0.056,-1.27 0,-0.25 -0.056,-0.53 -0.112,-0.82 -0.539,-26.43 6.38,-49.75 8.109,-71.91 0.606,-7.77 -0.393,-15.319 -2.246,-19 -13.489,-26.729 -40.188,-49.29 -60.653,-74 -21.307,-25.72 -39.099,-52.069 -51.667,-82 -21.926,-9.39 -39.672,4.311 -53.914,11 9.974,17.28 20.161,39.17 35.942,48 1.943,5.601 3.369,11.67 6.739,16 2.605,2.75 6.38,-1.75 8.985,1 0.988,7.78 7.133,10.98 8.986,18 2.369,2.2 3.324,-1.279 6.739,-1 14.265,21.311 35.279,32.761 47.174,53 4.325,7.36 4.044,16.04 8.986,25 2.021,3.681 6.739,5.61 8.985,10 4.369,8.551 2.651,17.33 4.493,28 -2.562,1.391 -0.416,6.96 -1.123,10 1.797,17.601 -12.76,20.641 -11.232,38 -14.231,3.601 -39.604,7.091 -38.189,22 0.641,6.79 8.425,10.391 17.972,12 -3.055,-15.26 13.546,-33.279 24.711,-20 -0.259,-0.31 -6.594,1.771 -7.323,1.94 -2.539,0.6 -5.145,1.09 -7.571,2.06 -4.481,1.78 -6.401,6.12 -5.368,10.811 0.527,2.41 2.438,5.02 4.717,6.1 4.808,2.26 11.053,-1.069 14.917,-3.88 1.471,-1.07 3.706,-2.82 4.515,-4.49 0.359,-0.729 0.314,-1.62 0.753,-2.41 0.46,-0.85 1.146,-1.569 1.819,-2.26 1.427,-1.479 2.797,-3.05 4.189,-4.6 2.292,-2.561 4.571,-5.01 7.031,-7.41 2.112,-2.05 3.763,-4.54 5.853,-6.62 1.942,-1.93 3.92,-3.97 5.503,-6.22 0.832,-1.18 1.551,-2.4 1.955,-3.78 0.134,-0.44 0.213,-0.841 0.269,-1.241 z m 6.862,-33.83 c -1.527,3.801 -1.358,10.98 -1.168,15.891 -0.101,1.479 -0.18,2.96 -0.247,4.439 -0.449,0.66 -0.798,1.4 -0.764,2.5 0,2.67 0,5.33 0,8 0,0.87 0,1.73 0,2.601 -0.606,4.5 -1.854,8.76 -4.493,12.649 -0.46,0.69 -0.977,1.37 -1.538,2.04 -2.562,3.03 -5.74,5.42 -8.582,8.17 -2.438,2.37 -4.347,5.11 -6.312,7.87 -4.818,6.771 -11.423,12.88 -19.026,16.38 -4.527,2.08 -10.12,2.351 -14.939,1.49 -4.155,-0.74 -8.255,-1.95 -12.344,-2.979 -3.516,-0.891 -6.93,-1.971 -10.153,-3.66 -5.324,-2.811 -10.479,-6.9 -10.222,-13.561 0.584,-14.89 25.969,-18.67 40.436,-25 29.72,-34.63 3.504,-92.37 -17.972,-120 -2.111,-4.779 -6.425,-7.609 -11.231,-10 -12.637,-1.08 -11.603,-14.34 -22.465,-17 0,-0.33 0,-0.67 0,-1 -6.256,-2.76 -8.704,-8.92 -14.602,-12 -12.176,-16.489 -24.205,-33.109 -39.312,-47 -2.809,-12.5 -9.48,-21.56 -16.849,-30 -13.613,1 -26.351,10.311 -38.189,4 -14.377,18.53 -48.511,19.48 -66.269,35 -2.146,-0.43 -2.033,-2.859 -5.616,-2 -2.785,1.521 -2.011,6.21 -6.739,6 -6.245,-6.29 -17.713,1.62 -21.341,-5 -4.032,1.4 -4.773,5.75 -8.985,7 0.168,-2.489 -1.764,-3.1 -2.247,-5 -0.37,0 -0.752,0 -1.123,0 -3.965,2.801 -7.48,6 -11.232,9 0.314,1.61 -1.066,1.721 -1.123,3 -6.649,-4.17 -12.513,-4.08 -16.848,-9 -15.411,-0.39 -18.803,9.931 -29.204,14 2.438,10.16 5.223,20.021 7.862,30 -3.897,-0.189 -4.268,-3.54 -7.862,-4 0,1.33 0,2.67 0,4 -1.865,6.351 -1.865,19.65 0,26 0.73,5.681 -1.471,13.98 1.123,18 -1.595,9.25 -6.47,15.58 -4.493,28 -1.876,8.681 -1.876,24.32 0,33 -1.663,13.141 8.345,15.9 7.862,28 -4.347,0.87 -3.999,-2.439 -6.739,-3 -0.27,4.24 1.034,7.08 2.247,10 -8.278,18.45 -7.245,45.29 -10.109,67 -3.269,24.721 -27.766,24.431 -43.805,39 -2.842,0.101 -5.616,-0.239 -8.379,-0.909 -4.347,-1.061 -8.604,-2.891 -13.119,-3.11 -1.348,-0.07 -2.797,0.21 -4.145,-0.021 -1.079,-0.189 -1.09,-0.529 -1.449,-1.449 -0.472,-1.23 -1.336,-2.011 -2.066,-3.08 -0.382,-0.551 -0.697,-1.101 -0.674,-1.79 0.011,-0.221 0.36,-1.73 0.618,-1.73 -3.887,-0.06 -9.626,-1.51 -11.682,-5.18 -0.966,-1.71 -2.1,-4.2 -1.707,-6.19 0.236,-1.229 0.887,-2.37 1.157,-3.609 0.202,-0.9 0.64,-1.811 0.966,-2.66 1.034,-2.67 2.292,-4.93 4.65,-6.62 1.954,-1.4 3.909,-2.84 5.919,-4.16 4.179,-2.729 9.233,-4.649 13.815,-6.62 4.583,-1.97 9.098,-4.01 13.265,-6.8 3.774,-2.53 7.144,-5.99 8.874,-10.25 2.202,-5.38 1.943,-11.24 0.696,-16.82 -0.708,-3.04 1.438,-8.609 -1.123,-10 -1.258,-6.97 -0.539,-12.89 -1.124,-22 -0.741,-6.68 1.483,-15.989 -1.123,-21 -0.741,-9.67 1.494,-21.989 -1.123,-30 -0.067,-15.609 -2.752,-28.89 -4.493,-43 -0.708,-3.37 1.449,-9.29 -1.123,-11 -0.09,-1.58 0.539,-3.81 -1.123,-4 0,-2 0,-4 0,-6 -0.708,-3.37 1.449,-9.29 -1.123,-11 0,-1 0,-2 0,-3 0.18,-3.76 0.247,-10.72 -3.37,-8 -3.539,-15.85 -5.751,-32.88 -20.218,-39 -5.302,5.95 -9.368,13 -11.232,22 -3.179,32.17 -3.819,66.601 -4.493,101 -2.606,4.681 -0.382,13.65 -1.123,20 0.708,3.37 -1.449,9.29 1.123,11 4.167,21.57 -8.076,38.521 -14.602,55 -2,5.04 -3.853,10.141 -5.695,15.24 -1.752,4.84 -3.167,9.92 -5.908,14.271 -1.561,2.479 -2.909,5.1 -4.425,7.609 -2.516,4.15 -6.548,7.46 -10.547,10.13 -3.504,2.341 -7.245,4.73 -11.097,6.44 -2.056,0.92 -4.066,2.07 -6.211,2.78 -2.359,0.779 -5.189,0.89 -7.671,0.92 -4.415,0.06 -8.323,-1.84 -9.413,-6.261 -1.314,1.86 -2.628,3.9 -4.864,4.7 -2.235,0.8 -4.605,1.4 -6.93,1.86 -2.819,0.57 -4.672,0.97 -7.054,-0.94 -1.741,-1.39 -3.819,-1.96 -5.582,-3.3 -2.651,-2.02 -5.538,-3.47 -7.784,-6.02 -1.965,-2.25 -3.224,-4.99 -3.628,-7.95 -0.797,-5.851 1.326,-11.82 5.01,-16.33 2.1,-2.59 4.796,-5.26 7.559,-7.15 12.142,-8.31 45.422,-11.43 47.175,-26 1.741,-14.56 5.47,-27.47 7.862,-45 2.595,-3.029 0.393,-10.31 1.123,-15 1.865,-1.72 1.865,-10.279 0,-12 -0.73,-5.02 1.472,-12.64 -1.123,-16 -10.143,-80.31 -25.631,-155.85 -43.805,-229 -0.202,-6.85 -0.056,-13.39 1.124,-19 -2.179,-20.33 9.817,-40.479 6.739,-60 -1.247,-7.91 -8.862,-17.18 -13.479,-26 -13.198,-25.23 -26.542,-54.46 -42.682,-76 -28.451,0.34 -50.117,6.72 -76.378,9 -16.848,-7.11 -33.955,-15.07 -42.682,-32 -3.617,-7.02 -4.549,-14.76 -8.985,-23 -3.325,-6.18 -11.558,-15.21 -8.986,-23 2.494,-7.53 36.01,-17.05 43.805,-21 15.95,-8.08 27.17,-15.42 41.559,-22 7.413,-16.32 16.444,-29.36 30.327,-42 13.703,-12.49 29.99,-25.61 60.653,-17 16.725,-6.73 38.919,0.95 50.544,8 0.348,2.42 6.908,4.42 4.493,6 -12.367,-8.85 -38.312,-18.93 -56.161,-8 -16.365,14.96 -2.313,46.6 -10.109,67 -2.482,-0.12 -0.472,-4.24 -1.123,-6 0,-5 0,-10 0,-15 -0.708,-3.37 1.449,-9.29 -1.123,-11 -0.876,-15.78 3.718,-26.69 8.985,-37 -1.381,-1.43 -3.864,-1.89 -6.739,-2 -1.572,-1.66 -10.783,-1.66 -12.355,0 -7.11,0.34 -12.232,2.45 -17.971,4 -9.873,6.21 -18.309,13.7 -26.957,21 -7.065,8.71 -10.749,20.43 -16.848,30 -2.527,3.41 -6.919,5.17 -10.109,8 -0.371,0 -0.752,0 -1.124,0 -4.976,2.57 -9.839,5.24 -14.602,8 -6.515,2.53 -10.423,7.38 -17.971,9 -6.2,2.81 -12.322,5.69 -17.971,9 -0.371,0 -0.753,0 -1.124,0 -0.73,3.98 2.977,4.02 2.247,8 0.124,0.17 0.236,0.34 0.337,0.53 1.674,3.02 0.449,8.62 0.741,12.88 -0.191,0.34 -0.393,0.67 -0.618,1 -5.964,3.69 -10.771,8.41 -13.939,14.59 -1.033,5.92 1.921,8.29 2.247,13 2.269,3.64 3.864,7.89 7.862,10 3.639,-0.1 2.393,-4.53 7.862,-3 1.741,3.15 1.449,6.23 -2.246,7 3.954,3.48 7.559,7.27 14.602,8 28.305,9.22 50.32,-7.81 78.625,-8 1.718,0.12 3.145,0.49 3.987,1.36 -0.191,1.04 -0.404,1.96 -0.618,2.64 -2.875,0.11 -5.358,0.57 -6.739,2 -13.276,3.18 -26.867,6.08 -43.805,6 -3.785,0.63 -10.435,-1.29 -12.355,1 -5.245,0 -10.479,0 -15.725,0 -1.101,5.31 5.583,3.69 7.862,6 1.573,1.66 10.783,1.66 12.355,0 24.093,-3.55 47.658,-7.57 74.132,-9 3.74,0 7.492,0 11.232,0 9.738,-0.34 17.825,0.8 24.71,3 0,0.33 0,0.67 0,1 -2.651,0.02 -3.302,-1.72 -6.739,-1 -5.639,-1.66 -19.072,-1.66 -24.71,0 -1.494,0 -2.999,0 -4.493,0 9.322,32.37 32.27,52.6 43.805,83 5.425,-9.6 -7.862,-19.6 -6.739,-32 10.581,10.58 11.67,29.61 14.602,47 0,7.67 0,15.33 0,23 -6.829,29.28 -8.222,63.04 1.123,93 3.583,11.49 4.369,24.11 7.862,30 0.225,0.37 0.46,0.761 0.73,1.15 -0.606,4.54 1.337,11.68 2.898,15.87 -0.079,-0.01 -0.168,-0.01 -0.258,-0.021 9.907,54.5 21.656,117.2 24.71,179 1.371,27.75 -6.2,44.761 -7.862,68 -4.335,2.271 -8.862,4.16 -13.389,5.99 -2.572,1.04 -5.155,2.04 -7.728,3.05 -4.481,1.771 -8.941,3.61 -13.22,5.82 -1.864,0.96 -3.819,1.26 -5.65,2.26 -1.853,1.01 -3.527,2.32 -5.414,3.25 -4.819,2.37 -10.188,5.34 -13.389,9.82 -1.157,1.62 -1.752,3.62 -1.921,5.59 -0.101,1.37 -0.73,3.29 -0.112,4.59 0.337,0.721 1.045,1.49 1.472,2.221 0.752,1.27 1.527,4.369 3.212,4.489 0.18,-0.899 0.045,-1.479 0.528,-2.33 0.404,-0.71 0.831,-1.449 1.28,-2.13 0.752,-1.149 1.539,-2.35 2.404,-3.399 1.696,-2.091 4.852,-5.15 7.75,-5.11 -2.415,0.49 -4.47,3.77 -5.795,5.63 -2.797,3.94 -5.01,10.28 -0.629,14.09 1.651,1.44 3.954,2.71 6.054,3.351 2.336,0.71 6.458,0.58 8.334,-1.21 1.146,-1.101 2.28,-2.45 3.302,-3.681 1.999,-2.38 3.493,-5.79 4.818,-8.609 1.404,-2.98 2.887,-5.91 4.807,-8.62 1.629,-2.32 4.089,-4.49 6.852,-5.29 1.562,-0.45 3.246,-0.54 4.853,-0.391 0.685,0.061 5.886,1.7 5.964,1.62 -1.371,1.49 -3.358,2.45 -5.246,3.091 -3.437,1.159 -7.626,1.819 -10.547,4.109 -3.639,2.851 -5.313,8.78 -3.392,13.04 1.763,3.9 5.729,4.34 9.446,3.29 3.796,-1.08 7.537,-2.7 11.243,-4.06 0.708,-0.271 1.415,-0.73 2.089,-1.091 5.694,-3.01 10.738,-6.619 14.512,-11.93 3.774,-5.32 6.425,-11.399 9.255,-17.25 2.931,-6.05 5.908,-12.09 8.637,-18.25 2.808,-6.3 5.414,-12.72 7.458,-19.31 2.179,-7.021 3.841,-14.36 4.841,-21.641 0,-7 0,-14 0,-21 0,-3.67 0,-7.33 0,-11 0,-3.67 0,-7.33 0,-11 2.572,-2.04 0.404,-8.31 1.123,-12 0,-3.33 0,-6.67 0,-10 2.583,-2.699 0.393,-9.649 1.123,-14 0,-3.33 0,-6.67 0,-10 -0.157,-32.8 -0.932,-66.159 13.479,-86 -2.313,-7.609 -10.738,-9.779 -15.725,-15 -4.707,3.7 -10.952,4.99 -17.972,2 -2.066,2.49 -2.707,6.25 -4.493,9 -9.076,-1.22 -13.153,-6.89 -16.848,-12.899 0.303,-0.021 0.584,-0.07 0.865,-0.141 0.202,-1.319 0.528,-2.359 0.854,-3.279 3.347,4.949 7.02,9.6 12.883,12.319 4.246,-0.88 2.146,-7.43 5.616,-9 7.739,2.13 12.726,3.62 19.095,0 3.673,3.25 9.581,5.75 14.602,5 5.437,8.16 5.852,20.79 17.971,23 3.83,-6.109 -3.561,-10.81 -4.493,-16 3.033,3.96 8.57,5.7 11.232,10 0,0.67 0,1.33 0,2 0.741,7.341 -1.482,17.32 1.124,23 8.671,16.28 5.986,42.67 12.355,61 0,5 0,10 0,15 -1.875,8.4 4.662,16.891 5.616,26 -2.606,5.011 -0.382,14.32 -1.124,21 0,11 0,22 0,33 0.73,5.351 -1.471,13.311 1.124,17 3.291,19.45 3.763,40.07 -12.355,47 -12.153,2.66 -47.59,15.4 -25.833,30 8.491,-5.5 9.12,-23.12 23.587,-20 -4.83,6.7 -16.59,7.23 -15.725,19 3.37,3.67 6.672,7.391 8.986,12 9.378,2.181 16.949,-1.87 22.464,-6 1.674,-4.18 9.806,-2.6 12.355,-6 0.82,-3.609 4.717,-4.47 10.109,-4 10.188,-24.93 6.234,-62.449 15.725,-88 -0.685,-4.06 -3.875,-5.88 -3.37,-11 0.955,-2.149 4.134,-2.319 7.863,-2 -9.604,-11.13 -8.29,-22.779 -6.739,-41 0,-5.33 0,-10.67 0,-16 4.875,-22.96 3.078,-44.93 4.493,-67 -1.022,-4.909 4.706,-3.81 4.493,-8 -5.301,-22.279 -6.84,-47.909 -22.464,-61 3.774,0.33 7.649,9.17 12.355,12 2.954,-1.04 6.896,-1.199 11.232,-1 -0.584,-10.479 -3.684,-18.72 -7.863,-26 1.842,-2.85 6.099,0.48 7.863,1 0.73,3.021 5.099,2.79 6.739,5 -0.753,0 -1.494,0 -2.247,0 -2.583,2.37 -0.404,8.98 -1.123,13 -0.247,9 -8.907,10.79 -3.37,20 -1.988,0.23 -5.627,-1.01 -4.493,2 3.875,11.73 16.882,2.46 19.095,-4 3.976,-0.54 2.763,3.54 6.739,3 2.628,-0.33 1.089,-4.359 3.37,-5 8.592,-1.979 9.67,2.721 14.602,4 6.762,0.351 4.11,-7.68 7.862,-10 2.201,1.391 1.37,8.49 0,10 7.267,-0.189 9.098,-5.239 10.108,-11 3.987,0.11 4.516,3.311 4.493,7 4.818,-4.68 12.905,3.801 15.725,-4 4.089,0.021 2.393,5.21 7.862,4 4.773,-0.09 3.572,-5.489 5.616,-8 4.908,0.301 7.66,2.511 11.232,4 4.402,-9.649 18.353,0.051 21.341,-12 13.242,6.71 16.073,-13.239 30.326,-9 6.1,-3.569 8.436,-10.489 15.726,-13 4.178,-0.38 2.932,4.051 7.862,3 5.357,-0.229 8.098,-2.79 11.231,-5 30.687,0.48 40.604,-26.479 73.009,-18 1.46,-4.449 -8.559,-29.569 -18.342,-37.569 0.606,-0.19 1.225,-0.38 1.842,-0.561 19.903,6.67 25.317,53.9 35.595,71.13 2.505,4.431 4.336,9.48 10.108,11 -0.202,0.851 0.438,0.94 1.124,1 17.903,22.7 34.695,49.58 53.913,73 22.375,27.271 53.24,53.931 64.023,93 2.673,9.71 3.729,20.45 7.862,31 1.157,2.94 2.381,5.841 3.538,8.78 2.011,5.09 3.887,10.32 4.549,15.78 0.304,2.479 0.314,5.14 -0.146,7.6 -0.427,2.25 -1.876,4.24 -2.595,6.42 -0.449,1.351 -0.91,2.641 -1.55,3.891 -1.09,2.13 -2.225,4.02 -3.819,5.81 -1.606,1.79 -3.785,2.23 -6.065,2.61 -2.605,0.439 -5.402,2.46 -7.301,4.2 -1.225,1.13 -2.471,2.3 -3.414,3.68 -0.438,0.63 -0.978,1.439 -0.944,2.24 0.012,0.33 0.371,0.779 0.304,1.05 -0.112,0.439 -0.741,0.569 -0.921,1 -0.359,0.89 0.28,1.93 0.382,2.819 0.112,0.99 -0.449,3.36 0.741,3.7 1.045,-1.27 2.415,-2.14 3.83,-2.939 1.359,-0.761 2.583,-1.65 3.942,-2.38 1.674,-0.91 3.213,-0.67 5.032,-0.891 0.932,-0.109 1.729,-0.359 2.707,-0.21 0.764,0.11 1.572,0.69 2.336,0.7 -5.414,-0.18 -11.131,1.08 -14.489,5.65 -1.168,1.6 -1.774,3.939 -0.214,5.399 1.573,1.48 3.021,3.521 5.156,4.26 2.122,0.73 4.717,-0.63 6.054,-2.22 3.482,-4.12 6.346,-7.39 12.108,-7.33 -1.562,0.53 -2.764,0.53 -4.212,1.471 -1.213,0.789 -2.348,1.609 -3.19,2.81 -0.932,1.32 -1.854,3.14 -1.403,4.79 0.786,2.87 4.515,3.479 6.997,3.77 2.235,0.261 4.504,0.07 6.739,0.03 3.021,-0.06 6.031,0.09 9.042,0.21 2.774,0.101 5.594,0.141 8.154,-1.1 2.516,-1.23 4.538,-3.36 6.144,-5.61 2.527,-3.56 4.808,-8.14 4.213,-12.62 -0.349,-2.649 -1.371,-5.22 -2.09,-7.79 -0.651,-2.37 -1.448,-4.569 -2.55,-6.739 0,-2.61 0,-5.23 0,-7.841 -1.729,-8.31 4.438,-15.529 5.616,-22 4.269,-23.319 -11.411,-40.58 -20.218,-55 -0.831,-3.409 4.145,-1.649 4.493,-4 -2.325,-6.6 -1.438,-16.06 -7.862,-19 -0.978,-3.21 1.729,-3.13 3.369,-4 -2.505,-3.43 -6.402,-5.63 -8.985,-9 4.167,-2.659 7.525,3.931 12.355,4 0,-2 0,-4 0,-6 1.864,-2.38 1.864,-11.62 0,-14 1.056,-5.3 -3.808,-10.56 -2.247,-13 5.077,6.48 8.031,14.851 6.739,27 -1.785,9.71 -2.751,21.141 0,30 1.865,7.62 4.864,14.9 7.784,22.16 2.965,7.33 5.908,14.72 7.649,22.46 0.494,2.17 0.909,4.36 1.168,6.57 0.235,1.92 -0.057,3.84 0.146,5.76 0.135,1.23 0.236,2.38 0.247,3.63 0,2.271 0.236,4.71 -0.078,6.94 -0.225,1.6 -0.719,3.149 -1.19,4.7 0,9.59 0,19.189 0,28.779 4.896,12.051 -5.459,28.98 -15.726,31 -5.38,1.061 -10.816,-2.58 -16.848,-3 -6.818,-0.47 -16.747,1.851 -23.588,1 -5.57,-2.37 -3.74,-11.34 -12.354,-11 -6.47,-23.949 20.476,-26.3 26.957,-42 0,-5 0,-10 0,-15 -16.545,-24.6 -12.053,-67.939 -35.943,-86 -5.582,13.03 -6.66,30.07 -7.862,47 -0.017,0.053 -0.039,0.112 -0.062,0.172 z M 86.972,192.155 c -0.528,-6.19 -4.032,-9.75 -5.616,-15 -12.029,0.2 -21.453,7.24 -17.971,18 5.38,0.46 2.089,-6.8 8.986,-5 3.145,0.53 2.078,4.82 3.37,7 5.884,0.24 8.715,-2.24 11.231,-5 z m -14.602,13 c -0.674,-4.4 -2.426,-7.84 -6.739,-9 0.977,4.13 1.437,8.72 6.739,9 z"
       id="path4067" /><path
       style="fill:#fff197"
       inkscape:connector-curvature="0"
       d="m 926.344,279.815 c 1.921,-2.62 3.291,-5.74 5.032,-8.48 2.336,-3.7 4.044,-7.37 5.931,-10.94 1.674,-1.74 3.65,-3.2 6.099,-4.26 -0.685,2.83 -1.864,5.73 -2.662,8.01 -1.572,4.51 -3.302,8.36 -5.627,12.45 -4.369,7.67 -9.581,14.74 -14.287,22.2 -1.977,3.12 -4.414,6.45 -7.132,9.64 -3.909,2.52 -7.919,4.77 -11.277,6.72 -0.112,1.53 0.797,2.15 1.943,2.55 -0.966,0.78 -1.933,1.51 -2.909,2.17 -3.999,2.73 -8.492,4.88 -12.637,7.39 -0.898,0.55 -2.279,1.12 -3.358,1.89 -1.033,0.05 -2.122,0.04 -3.257,0 0.37,-2.35 0.078,-4.11 -0.292,-5.79 0.337,-1.24 0.494,-2.59 0.472,-4.07 -0.102,-5.62 4.414,-3.57 9.222,-5.03 2.111,-0.64 3.841,-1.22 5.852,-2.37 0.921,-0.52 2.381,-0.54 3.033,-1.47 0.842,-1.23 -0.359,-2.62 0.27,-3.69 2.066,-3.52 7.323,-3.05 11.086,-5.43 1.482,-0.94 3.538,-2.42 3.998,-4.18 0.674,-2.54 -2.381,-4.66 -1.92,-6.33 0.348,-1.24 4.706,-3.5 5.75,-4.41 1.663,-1.44 3.381,-2.99 4.92,-4.5 0.639,-0.64 1.223,-1.33 1.75,-2.07 z"
       id="path4069" /><path
       style="fill:#fff197"
       inkscape:connector-curvature="0"
       d="m 943.867,250.615 c 0.258,1.67 0.011,3.58 -0.461,5.52 -2.448,1.06 -4.425,2.52 -6.099,4.26 1.786,-3.38 3.74,-6.66 6.56,-9.78 z"
       id="path4071" /><path
       style="fill:#fff197"
       inkscape:connector-curvature="0"
       d="m 274.547,509.155 c 5.717,3.971 9.121,10.021 12.951,15.681 -0.326,0.92 -0.652,1.96 -0.854,3.279 -0.281,0.07 -0.562,0.12 -0.865,0.141 -4.481,-7.3 -8.39,-15.101 -19.959,-16.08 -1.561,-4.19 -3.504,-11.33 -2.898,-15.87 1.73,2.54 4.504,5.18 9.379,3.85 1.471,2.359 0.471,6.909 2.246,8.999 z"
       id="path4073" /><path
       style="fill:#fff197"
       inkscape:connector-curvature="0"
       d="m 287.577,517.555 c 1.539,3.34 0.752,4.93 -0.079,7.28 -3.83,-5.66 -7.233,-11.71 -12.951,-15.681 -1.775,-2.09 -0.775,-6.64 -2.247,-9 -4.875,1.33 -7.649,-1.31 -9.379,-3.85 0.405,-3.11 2.011,-4.99 5.751,-3.89 0.056,0.13 0.112,0.26 0.146,0.39 v 1.46 c 0.135,-0.5 0.135,-0.99 0,-1.46 v -1.54 c 7.683,2.14 7.233,9.97 11.625,15.47 2.483,3.121 5.471,7.222 7.134,10.821 z"
       id="path4075" /><path
       style="fill:#fff197"
       inkscape:connector-curvature="0"
       d="m 913.698,308.435 c -2.887,3.41 -6.077,6.65 -9.334,9.27 -1.146,-0.4 -2.056,-1.02 -1.943,-2.55 3.358,-1.95 7.368,-4.2 11.277,-6.72 z"
       id="path4077" /><path
       inkscape:connector-curvature="0"
       d="m 937.307,260.395 c -1.887,3.57 -3.595,7.24 -5.931,10.94 -1.741,2.74 -3.111,5.86 -5.032,8.48 3.64,-6.49 5.908,-14.19 10.963,-19.42 z"
       id="path4079" /><path
       style="fill:#fff197"
       inkscape:connector-curvature="0"
       d="m 325.092,530.155 c 4.987,5.221 13.411,7.391 15.725,15 -14.411,19.841 -13.636,53.2 -13.479,86 -2.561,1.391 -0.416,6.96 -1.123,10 0,4.67 0,9.33 0,14 0,3.33 0,6.67 0,10 -2.572,2.04 -0.404,8.301 -1.123,12 0,3.67 0,7.33 0,11 -2.572,1.71 -0.416,7.63 -1.124,11 0.742,6.681 -1.482,15.99 1.124,21 -1,7.28 -2.662,14.62 -4.841,21.641 -2.044,6.59 -4.65,13.01 -7.458,19.31 -2.729,6.16 -5.706,12.2 -8.637,18.25 -2.831,5.851 -5.481,11.93 -9.255,17.25 -3.774,5.311 -8.817,8.92 -14.512,11.93 -0.674,0.36 -1.382,0.82 -2.089,1.091 -3.707,1.359 -7.447,2.979 -11.243,4.06 -3.718,1.05 -7.683,0.61 -9.446,-3.29 -1.921,-4.26 -0.247,-10.189 3.392,-13.04 2.92,-2.29 7.11,-2.95 10.547,-4.109 1.887,-0.641 3.875,-1.601 5.246,-3.091 -0.079,0.08 -5.279,-1.56 -5.964,-1.62 -1.606,-0.149 -3.291,-0.06 -4.853,0.391 -2.763,0.8 -5.223,2.97 -6.852,5.29 -1.92,2.71 -3.403,5.64 -4.807,8.62 -1.325,2.819 -2.819,6.229 -4.818,8.609 -1.022,1.23 -2.157,2.58 -3.302,3.681 -1.876,1.79 -5.998,1.92 -8.334,1.21 -2.1,-0.641 -4.403,-1.91 -6.054,-3.351 -4.38,-3.81 -2.167,-10.149 0.629,-14.09 1.325,-1.86 3.381,-5.14 5.795,-5.63 -2.898,-0.04 -6.054,3.02 -7.75,5.11 -0.865,1.05 -1.651,2.25 -2.404,3.399 -0.449,0.681 -0.876,1.42 -1.28,2.13 -0.483,0.851 -0.348,1.431 -0.528,2.33 -1.685,-0.12 -2.46,-3.22 -3.212,-4.489 -0.427,-0.73 -1.135,-1.5 -1.472,-2.221 -0.618,-1.3 0.011,-3.22 0.112,-4.59 0.168,-1.97 0.764,-3.97 1.921,-5.59 3.201,-4.48 8.57,-7.45 13.389,-9.82 1.887,-0.93 3.561,-2.24 5.414,-3.25 1.831,-1 3.786,-1.3 5.65,-2.26 4.279,-2.21 8.739,-4.05 13.22,-5.82 2.572,-1.01 5.156,-2.01 7.728,-3.05 4.527,-1.83 9.053,-3.72 13.389,-5.99 1.663,-23.239 9.233,-40.25 7.862,-68 -3.055,-61.8 -14.804,-124.5 -24.71,-179 0.09,0.011 0.18,0.011 0.258,0.021 0.393,1.07 0.764,1.939 1.056,2.53 2.381,4.739 12.669,14.05 18.903,13.55 3.695,6.01 7.772,11.68 16.848,12.899 1.786,-2.75 2.426,-6.51 4.493,-9 7.017,2.989 13.262,1.699 17.969,-2.001 z m 2.246,32 c -2.313,-9.359 -12.254,-16.97 -21.341,-17 5.133,7.43 13.625,11.87 21.341,17 z m -6.739,16 c -3.066,-5.27 -5.436,-11.159 -13.479,-12 1.101,7.02 6.694,10.04 13.479,12 z m -14.602,-22 c 6.56,3.82 9.66,10.73 19.095,12 -3.213,-6.15 -9.862,-14.54 -19.095,-12 z m 11.232,31 c -0.842,-5.58 -4.47,-8.689 -8.985,-11 -4.718,3.58 3.358,10.25 8.985,11 z m -6.739,36 c 7.268,-4.489 8.211,-28.739 -3.37,-32 2.483,11.41 5.077,18.42 3.37,32 z"
       id="path4081" /><path
       inkscape:connector-curvature="0"
       d="m 904.364,317.705 c 1.269,0.45 2.83,0.63 3.673,1.45 -5.65,5 -11.749,9.61 -22.577,10 1.079,-0.77 2.46,-1.34 3.358,-1.89 4.145,-2.51 8.638,-4.66 12.637,-7.39 0.976,-0.66 1.943,-1.39 2.909,-2.17 z"
       id="path4083" /><path
       style="fill:#fff197"
       inkscape:connector-curvature="0"
       d="m 268.819,492.805 c 0.135,0.47 0.135,0.96 0,1.46 v -1.46 z"
       id="path4085" /><path
       style="fill:#f7f2ef"
       inkscape:connector-curvature="0"
       d="m 960.827,158.155 c 2.606,6.68 0.382,17.66 1.124,26 -2.607,-6.68 -0.382,-17.66 -1.124,-26 z"
       id="path4087" /><path
       style="fill:#2e0a14"
       inkscape:connector-curvature="0"
       d="m 958.581,180.155 c 1.864,2.71 1.864,12.29 0,15 0,-5 0,-10 0,-15 z"
       id="path4089" /><path
       style="fill:#fff197"
       inkscape:connector-curvature="0"
       d="m 772.128,342.155 c 0.022,-1.65 3.111,-0.56 3.369,-2 -7.66,-2.3 -20.375,-5.03 -20.218,-11 15.007,-2.31 35.449,0.23 47.175,-5 26.879,-4.07 48.186,-13.1 66.27,-25 0.112,1.12 -1.629,1.56 0,2 0.404,-1.43 5.729,-3.42 6.739,-1 -20.128,16.41 -44.861,28.72 -76.378,35 -0.191,3.84 5.807,2.16 5.616,6 -2.606,1.03 -10.896,0.01 -7.863,3 2.247,0 4.493,0 6.739,0 2.764,0.13 5.414,0.15 6.739,-1 0.528,-3.14 -1.403,-4.09 -3.369,-5 -0.045,-1.38 0.527,-2.2 1.123,-3 23.06,-2.8 37.189,-13.56 56.16,-20 3.55,-5.51 8.784,-9.51 14.602,-13 -0.809,-3.06 1.146,-3.64 1.124,-6 39.289,-32.68 64.775,-77.66 75.255,-136 3.931,4.17 2.571,13.04 3.369,20 0,5 0,10 0,15 -5.122,36.44 -23.891,60.73 -39.312,88 -3.942,-0.18 -3.695,3.38 -6.739,4 -2.291,0.29 -2.201,2.71 -4.492,3 -0.798,5.29 7.525,5.29 2.246,9 -5.1,0.46 -6.66,4.07 -12.355,4 -0.011,2.66 0.427,5.71 -1.123,7 -5.616,2 -14.467,1.12 -19.095,4 -0.854,5.43 1.775,7.75 1.123,13 -5.795,5.5 -19.016,4.4 -26.957,8 -0.19,3.5 3.954,3.15 5.616,5 -6.223,2.12 -13.467,3.34 -22.464,3 -3.583,2.95 5.829,4.05 2.246,7 -5.099,0.46 -9.21,1.8 -14.602,2 -2.617,0 -5.245,0 -7.862,0 -0.168,2.48 -0.213,4.85 2.246,5 -12.332,3.86 -41.839,-0.86 -44.928,-15 z m 4.493,0 c 1.449,1.38 4.875,0.99 7.863,1 1.123,0 2.246,0 3.369,0 -2.46,-0.87 -9.21,-3.06 -11.232,-1 z"
       id="path4091" /><path
       style="fill:#2e0a14"
       inkscape:connector-curvature="0"
       d="m 912.529,287.155 c -7.244,3.69 1.359,7.83 0,11 -1.123,0 -1.336,0.81 -2.246,1 5.279,-3.71 -3.044,-3.71 -2.246,-9 2.291,-0.29 2.201,-2.71 4.492,-3 z"
       id="path4093" /><path
       inkscape:connector-curvature="0"
       d="m 885.572,737.155 c -1.303,-0.159 -1.999,0.221 -2.246,1 -3.549,-1.55 -5.133,-8.92 -3.369,-12 3.852,1.9 4.301,6.841 5.615,11 z"
       id="path4095" /><path
       inkscape:connector-curvature="0"
       d="m 874.34,713.155 c 5.986,0.341 8.109,4.11 7.862,10 -4.852,-1.35 -6.963,-5.13 -7.862,-10 z"
       id="path4097" /><path
       style="fill:#2e0a14"
       inkscape:connector-curvature="0"
       d="m 894.558,278.155 c -5.526,5.75 -11.513,11.08 -17.972,16 5.527,-5.75 11.513,-11.08 17.972,-16 z"
       id="path4099" /><path
       style="fill:#f7f2ef"
       inkscape:connector-curvature="0"
       d="m 878.833,656.155 c 0,10 0,20 0,30 -2.751,-8.86 -1.786,-20.29 0,-30 z"
       id="path4101" /><path
       style="fill:#996532"
       inkscape:connector-curvature="0"
       d="m 874.34,642.155 c 1.864,2.38 1.864,11.62 0,14 0,-4.67 0,-9.33 0,-14 z"
       id="path4103" /><path
       inkscape:connector-curvature="0"
       d="m 870.97,628.155 c -3.156,-2.87 -4.414,-2.89 -10.108,-2 2.707,-2.939 -4.808,-3.779 -1.123,-8 -3.325,-2.38 -7.908,-3.62 -11.232,-6 -0.696,-0.89 -1.359,-1.79 0,-2 3.179,-0.83 2.909,1.41 5.616,1 0,-1 0,-2 0,-3 -0.045,-2.56 0.831,-1.22 2.246,-1 4.122,7.66 10.356,13.45 14.601,21 z"
       id="path4105" /><path
       inkscape:connector-curvature="0"
       d="m 857.492,638.155 c -2.763,5.7 2.719,6.74 3.37,12 -8.413,-0.1 -14.714,-8.42 -11.232,-13 -1.078,-3.04 -6.705,-2.029 -5.616,-7 7.547,-0.05 9.737,4.66 13.478,8 z"
       id="path4107" /><path
       style="fill:#2e0a14"
       inkscape:connector-curvature="0"
       d="m 856.369,607.155 c -1.415,-0.22 -2.291,-1.56 -2.246,1 -4.616,-10.22 -12.378,-17.649 -16.849,-28 2.662,1.021 3.595,8.73 5.616,7 4.448,6.71 8.054,14.17 13.479,20 z"
       id="path4109" /><path
       style="fill:#2e0a14"
       inkscape:connector-curvature="0"
       d="m 848.506,610.155 c -1.359,0.21 -0.696,1.11 0,2 -3.695,-1.71 -4.111,-6.34 -6.739,-9 3.246,1.44 4.336,4.81 6.739,7 z"
       id="path4111" /><path
       inkscape:connector-curvature="0"
       d="m 842.89,587.155 c -2.021,1.73 -2.954,-5.979 -5.616,-7 -3.291,-6.739 -4.11,-15.68 -6.739,-23 -0.472,-4.25 -1.965,-7.59 -4.492,-10 0,-0.33 0,-0.67 0,-1 -0.202,-0.35 -0.416,-0.68 -0.663,-0.979 -0.247,-0.5 -0.18,-0.891 0.663,-1.021 0.909,-0.189 1.123,-1 2.246,-1 3.393,-3.64 1.449,-12.04 3.37,-17 0,-4 0,-8 0,-12 2.437,-11.609 -2.225,-17.34 -3.37,-28 -8.379,-6.55 -19.566,-15.909 -22.464,-24 7.885,5.98 11.423,15.83 21.341,20 0.752,0 1.494,0 2.246,0 -3.347,-27.22 -23.879,-55.52 -19.095,-87 3.695,30.95 15.074,59.5 24.711,88 -1.225,2.25 -2.605,4.341 -3.369,7 -0.428,6.99 8.277,14.46 2.246,20 -2.606,4.351 -0.394,12.99 -1.123,19 0.741,7.67 -1.483,17.99 1.123,24 1.415,12.74 6.435,22.27 8.985,34 z"
       id="path4113" /><path
       style="fill:#f7f2ef"
       inkscape:connector-curvature="0"
       d="m 833.905,529.155 c 0,8 0,16 0,24 -2.606,-6.01 -0.382,-16.33 -1.123,-24 0.37,0 0.752,0 1.123,0 z"
       id="path4115" /><path
       style="fill:#d6cccf"
       inkscape:connector-curvature="0"
       d="m 833.905,510.155 c 0,6.33 0,12.67 0,19 -0.371,0 -0.753,0 -1.123,0 0.729,-6.01 -1.484,-14.65 1.123,-19 z"
       id="path4117" /><path
       style="fill:#2e0a14"
       inkscape:connector-curvature="0"
       d="m 831.659,514.155 c 0,4 0,8 0,12 -1.866,-1.72 -1.866,-10.28 0,-12 z"
       id="path4119" /><path
       style="fill:#2e0a14"
       inkscape:connector-curvature="0"
       d="m 826.042,547.155 c 2.527,2.41 4.021,5.75 4.492,10 -2.076,-2.82 -3.088,-6.59 -4.492,-10 z"
       id="path4121" /><path
       style="fill:#2e0a14"
       inkscape:connector-curvature="0"
       d="m 825.379,545.175 c 0.247,0.3 0.461,0.63 0.663,0.979 -0.269,-0.339 -0.528,-0.679 -0.663,-0.979 z"
       id="path4123" /><path
       style="fill:#2e0a14"
       inkscape:connector-curvature="0"
       d="m 826.042,544.155 c -0.843,0.13 -0.91,0.521 -0.663,1.021 -2.673,-3.43 -7.896,-4.58 -10.569,-8.021 5.482,-2.8 9.614,3.14 11.232,7 z"
       id="path4125" /><path
       style="fill:#2e0a14"
       inkscape:connector-curvature="0"
       d="m 814.81,352.155 c 2.617,0 5.245,0 7.862,0 -0.135,2.21 -4.763,0.42 -6.739,1 -0.09,1.74 0.247,3.11 1.123,4 -2.459,-0.15 -2.414,-2.52 -2.246,-5 z"
       id="path4127" /><path
       style="fill:#2e0a14"
       inkscape:connector-curvature="0"
       d="m 805.825,462.155 c 2.897,8.091 14.085,17.45 22.464,24 -11.378,-5.87 -19.499,-14.64 -24.711,-26 10.401,5.07 13.827,16.36 23.588,22 -9.918,-4.17 -13.457,-14.02 -21.341,-20 z"
       id="path4129" /><path
       style="fill:#fff197"
       inkscape:connector-curvature="0"
       d="m 802.208,741.065 c 0.012,0.69 0.022,1.391 0.057,2.09 -0.057,0.4 -0.135,0.801 -0.27,1.24 -0.404,1.38 -1.123,2.601 -1.955,3.78 -1.583,2.25 -3.561,4.29 -5.503,6.22 -2.09,2.08 -3.74,4.57 -5.853,6.62 -2.46,2.4 -4.739,4.85 -7.031,7.41 -1.393,1.55 -2.763,3.12 -4.189,4.6 -0.674,0.69 -1.359,1.41 -1.819,2.26 -0.438,0.79 -0.394,1.681 -0.753,2.41 -0.809,1.67 -3.044,3.42 -4.515,4.49 -3.864,2.811 -10.109,6.14 -14.917,3.88 -2.279,-1.08 -4.189,-3.689 -4.717,-6.1 -1.033,-4.69 0.887,-9.03 5.368,-10.811 2.427,-0.97 5.032,-1.46 7.571,-2.06 0.729,-0.17 7.064,-2.25 7.323,-1.94 -11.165,-13.279 -27.766,4.74 -24.711,20 -9.547,-1.609 -17.331,-5.21 -17.972,-12 -1.415,-14.909 23.958,-18.399 38.189,-22 -1.527,-17.359 13.029,-20.399 11.232,-38 0.707,-3.04 -1.438,-8.609 1.123,-10 -1.842,-10.67 -0.124,-19.449 -4.493,-28 -2.246,-4.39 -6.964,-6.319 -8.985,-10 -4.942,-8.96 -4.661,-17.64 -8.986,-25 -11.895,-20.239 -32.909,-31.689 -47.174,-53 -3.415,-0.279 -4.37,3.2 -6.739,1 -1.854,-7.02 -7.998,-10.22 -8.986,-18 -2.605,-2.75 -6.38,1.75 -8.985,-1 -3.37,-4.33 -4.796,-10.399 -6.739,-16 -15.781,-8.83 -25.969,-30.72 -35.942,-48 14.242,-6.689 31.988,-20.39 53.914,-11 12.568,29.931 30.36,56.28 51.667,82 20.465,24.71 47.164,47.271 60.653,74 1.854,3.681 2.853,11.23 2.246,19 -1.73,22.161 -8.649,45.481 -8.109,71.911 z"
       id="path4131" /><path
       style="fill:#2e0a14"
       inkscape:connector-curvature="0"
       d="m 806.948,338.155 c 1.966,0.91 3.897,1.86 3.369,5 -1.325,1.15 -3.976,1.13 -6.739,1 -0.19,-2.17 3.987,-0.45 5.616,-1 0.966,-3.19 -1.764,-3.09 -2.246,-5 z"
       id="path4133" /><path
       style="fill:#f7f2ef"
       inkscape:connector-curvature="0"
       d="m 809.126,709.325 c 0.022,-0.06 0.045,-0.119 0.067,-0.17 -0.741,6.341 1.482,15.32 -1.123,20 0,-0.92 -0.056,-2.31 -0.112,-3.939 0.304,-5.3 0.742,-10.591 1.168,-15.891 z"
       id="path4135" /><path
       style="fill:#f7f2ef"
       inkscape:connector-curvature="0"
       d="m 809.126,709.325 c -0.427,5.301 -0.864,10.591 -1.168,15.891 -0.19,-4.911 -0.359,-12.091 1.168,-15.891 z"
       id="path4137" /><path
       inkscape:connector-curvature="0"
       d="m 807.958,725.215 c 0.057,1.63 0.112,3.02 0.112,3.939 -0.123,0.16 -0.247,0.33 -0.359,0.5 0.068,-1.479 0.147,-2.959 0.247,-4.439 z"
       id="path4139" /><path
       style="fill:#ffffff"
       inkscape:connector-curvature="0"
       d="m 807.711,729.655 c -0.079,1.63 -0.135,3.261 -0.18,4.891 -0.079,2.79 -0.214,5.54 -0.584,8.21 0,-0.87 0,-1.73 0,-2.601 0,-2.67 0,-5.33 0,-8 -0.033,-1.1 0.315,-1.84 0.764,-2.5 z"
       id="path4141" /><path
       style="fill:#ffffff"
       inkscape:connector-curvature="0"
       d="m 802.32,741.885 c 0,0.47 -0.011,0.87 -0.056,1.27 -0.034,-0.699 -0.045,-1.399 -0.057,-2.09 0.057,0.29 0.113,0.57 0.113,0.82 z"
       id="path4143" /><path
       inkscape:connector-curvature="0"
       d="m 787.853,343.155 c -1.123,0 -2.246,0 -3.369,0 -2.988,-0.01 -6.414,0.38 -7.863,-1 2.022,-2.06 8.772,0.13 11.232,1 z"
       id="path4145" /><path
       style="fill:#d6cccf"
       inkscape:connector-curvature="0"
       d="m 754.157,792.155 c 3.74,0 7.492,0 11.232,0 -1.213,1.65 -10.019,1.65 -11.232,0 z"
       id="path4147" /><path
       style="fill:#d6cccf"
       inkscape:connector-curvature="0"
       d="m 741.801,326.155 c 5.987,0 11.985,0 17.972,0 -3.415,1.66 -14.557,1.66 -17.972,0 z"
       id="path4149" /><path
       style="fill:#2e0a14"
       inkscape:connector-curvature="0"
       d="m 733.939,418.155 c 8.491,6.44 18.387,11.63 26.957,18 -10.479,-0.68 -20.016,-10.84 -26.957,-18 z"
       id="path4151" /><path
       style="fill:#2e0a14"
       inkscape:connector-curvature="0"
       d="m 748.541,436.155 c -5.312,0.04 -13.479,-5.989 -20.218,-8 2.594,-1.449 15.399,4.81 20.218,8 z"
       id="path4153" /><path
       style="fill:#2e0a14"
       inkscape:connector-curvature="0"
       d="m 731.693,441.155 c 3.111,-3.02 6.245,2.38 10.108,2 -2.976,2.91 -6.784,-1.909 -10.108,-2 z"
       id="path4155" /><path
       style="fill:#f7f2ef"
       inkscape:connector-curvature="0"
       d="m 730.57,616.155 c 4.807,2.391 9.12,5.221 11.231,10 -3.975,-3.12 -8.289,-5.949 -11.231,-10 z"
       id="path4157" /><path
       style="fill:#d6cccf"
       inkscape:connector-curvature="0"
       d="m 722.708,533.155 c -0.686,-0.06 -1.326,-0.149 -1.124,-1 -3.1,-2.899 -7.278,-4.85 -7.862,-10 3.088,3.591 6.391,6.98 8.986,11 z"
       id="path4159" /><path
       style="fill:#2e0a14"
       inkscape:connector-curvature="0"
       d="m 713.721,522.155 c 0.584,5.15 4.763,7.101 7.862,10 -5.772,-1.52 -7.604,-6.569 -10.108,-11 1.123,0 1.337,0.81 2.246,1 z"
       id="path4161" /><path
       style="fill:#f7f2ef"
       inkscape:connector-curvature="0"
       d="m 708.105,598.155 c 0,0.33 0,0.67 0,1 -6.211,-3.14 -11.074,-7.47 -14.602,-13 5.898,3.08 8.346,9.24 14.602,12 z"
       id="path4163" /><path
       style="fill:#2e0a14"
       inkscape:connector-curvature="0"
       d="m 678.902,448.155 c 3.774,0.641 8.188,0.71 10.109,3 -2.235,-0.43 -7.312,-2.3 -4.493,1 -2.65,-0.31 -2.089,-3.47 -5.616,-3 0,-0.33 0,-0.67 0,-1 z"
       id="path4165" /><path
       inkscape:connector-curvature="0"
       d="m 675.88,450.025 c -0.617,0.181 -1.235,0.37 -1.842,0.561 -0.629,-0.511 -1.258,-0.96 -1.887,-1.32 1.304,0.089 2.539,0.349 3.729,0.759 z"
       id="path4167" /><path
       inkscape:connector-curvature="0"
       d="m 668.793,312.155 c -23.846,0.22 -52.601,-3.84 -74.132,-9 26.497,1.41 49.028,6.35 74.132,9 z"
       id="path4169" /><path
       inkscape:connector-curvature="0"
       d="m 662.054,463.155 c 0.348,-3.35 5.088,-2.8 8.985,-3 -0.763,2.98 -4.47,3.35 -8.985,3 z"
       id="path4171" /><path
       style="fill:#2e0a14"
       inkscape:connector-curvature="0"
       d="m 641.836,461.155 c 4.234,-0.229 4.751,-3.77 8.985,-4 -1.629,2.681 -9.592,3.48 -6.739,7 -1.415,-0.409 -2.29,-1.29 -2.246,-3 z"
       id="path4173" /><path
       style="fill:#fff197"
       inkscape:connector-curvature="0"
       d="m 630.604,479.155 c 2.493,-0.779 4.381,-2.1 7.862,-2 -5.234,10.011 -15.949,15.141 -30.326,17 0.303,-3.6 -2.078,-4.819 -2.247,-8 0.753,0 1.494,0 2.247,0 5.312,0.07 11.052,0.511 12.355,-3 4.168,-0.62 6.583,-2.81 10.109,-4 z"
       id="path4175" /><path
       style="fill:#2e0a14"
       inkscape:connector-curvature="0"
       d="m 630.604,478.155 c 0,0.33 0,0.67 0,1 -3.526,1.19 -5.941,3.38 -10.108,4 -0.371,0 -0.753,0 -1.124,0 2.482,-2.79 7.245,-3.55 11.232,-5 z"
       id="path4177" /><path
       style="fill:#2e0a14"
       inkscape:connector-curvature="0"
       d="m 486.833,549.155 c -3.179,3.5 -6.301,7.061 -11.232,9 3.752,-3 7.268,-6.199 11.232,-9 z"
       id="path4179" /><path
       style="fill:#d6cccf"
       inkscape:connector-curvature="0"
       d="m 445.275,273.155 c 8.615,0 17.219,0 25.834,0 -6.01,1.66 -19.825,1.66 -25.834,0 z"
       id="path4181" /><path
       inkscape:connector-curvature="0"
       d="m 463.247,533.155 c -4.707,0.19 -3.471,-4.909 -8.986,-4 -1.314,1.5 -1.393,4.091 -3.37,5 -3.179,-4.77 -1.27,-9.33 -6.739,-13 1.303,0.841 3.01,1.32 5.616,1 2.022,0.13 2.628,-0.989 2.247,-3 0.876,0.221 2.212,0.03 2.247,1 3.738,3.67 6.233,8.45 8.985,13 z"
       id="path4183" /><path
       style="fill:#2e0a14"
       inkscape:connector-curvature="0"
       d="m 449.768,522.155 c -2.606,0.32 -4.313,-0.159 -5.616,-1 -3.482,-0.239 -4.358,-2.779 -6.739,-4 -1.64,-2.21 -6.009,-1.979 -6.739,-5 6.873,2.88 11.186,8.04 19.094,10 z"
       id="path4185" /><path
       style="fill:#2e0a14"
       inkscape:connector-curvature="0"
       d="m 435.166,517.155 c -0.719,4.021 1.46,10.63 -1.123,13 0.719,-4.02 -1.46,-10.63 1.123,-13 z"
       id="path4187" /><path
       style="fill:#2e0a14"
       inkscape:connector-curvature="0"
       d="m 427.304,282.155 c 3.549,0.16 3.751,-2.66 7.862,-2 -0.955,1.49 -3.617,1.45 -5.616,2 0.225,3.8 4.729,3.79 4.493,8 -1.797,-3.06 -5.964,-4.02 -6.739,-8 z"
       id="path4189" /><path
       style="fill:#d6cccf"
       inkscape:connector-curvature="0"
       d="m 428.427,621.155 c 2.606,4.351 0.393,12.99 1.123,19 -2.594,-4.02 -0.393,-12.319 -1.123,-18 0,-0.33 0,-0.67 0,-1 z"
       id="path4191" /><path
       style="fill:#996532"
       inkscape:connector-curvature="0"
       d="m 428.427,621.155 c 0,0.33 0,0.67 0,1 -1.865,-6.35 -1.865,-19.649 0,-26 0,8.33 0,16.67 0,25 z"
       id="path4193" /><path
       style="fill:#f7f2ef"
       inkscape:connector-curvature="0"
       d="m 425.057,668.155 c 0,11 0,22 0,33 -1.876,-8.68 -1.876,-24.32 0,-33 z"
       id="path4195" /><path
       style="fill:#996532"
       inkscape:connector-curvature="0"
       d="m 420.564,662.155 c 0,5.33 0,10.67 0,16 -1.864,-3.04 -1.864,-12.97 0,-16 z"
       id="path4197" /><path
       style="fill:#2e0a14"
       inkscape:connector-curvature="0"
       d="m 386.868,240.155 c 10.367,18.1 33.011,25.27 48.298,39 -29.922,-16.36 -54.958,-37.07 -68.516,-68 2.774,2.53 3.965,6.47 6.739,9 5.268,8.31 10.738,16.44 17.971,23 -2.291,-0.29 -2.201,-2.71 -4.492,-3 z"
       id="path4199" /><path
       style="fill:#2e0a14"
       inkscape:connector-curvature="0"
       d="m 410.456,279.155 c 0.202,0.85 -0.438,0.94 -1.124,1 0.708,-0.06 1.022,-0.46 1.034,-1.1 0.033,0.03 0.056,0.07 0.09,0.1 z"
       id="path4201" /><path
       style="fill:#2e0a14"
       inkscape:connector-curvature="0"
       d="m 398.1,264.155 c 1.089,-1.7 12.311,11.01 12.266,14.9 -4.28,-4.79 -7.043,-10.94 -12.266,-14.9 z"
       id="path4203" /><path
       inkscape:connector-curvature="0"
       d="m 400.347,543.155 c -5.268,-0.649 -7.031,-4.399 -11.232,-6 3.965,-4.44 11.018,0.98 11.232,6 z"
       id="path4205" /><path
       style="fill:#2e0a14"
       inkscape:connector-curvature="0"
       d="m 392.484,467.155 c 0,3.67 0,7.33 0,11 -1.864,-1.4 -1.864,-9.6 0,-11 z"
       id="path4207" /><path
       style="fill:#d6cccf"
       inkscape:connector-curvature="0"
       d="m 396.977,824.155 c -2.55,3.4 -10.682,1.82 -12.355,6 1.494,-4.34 7.255,-4.87 12.355,-6 z"
       id="path4209" /><path
       inkscape:connector-curvature="0"
       d="m 379.005,530.155 c 4.437,4.2 11.446,10.94 11.232,16 -7.087,-1.84 -13.264,-9.32 -11.232,-16 z"
       id="path4211" /><path
       style="fill:#996532"
       inkscape:connector-curvature="0"
       d="m 383.499,731.155 c 0,5.67 0,11.33 0,17 -2.595,-3.689 -0.393,-11.649 -1.124,-17 0.371,0 0.753,0 1.124,0 z"
       id="path4213" /><path
       style="fill:#d6cccf"
       inkscape:connector-curvature="0"
       d="m 383.499,698.155 c 0,11 0,22 0,33 -0.371,0 -0.752,0 -1.124,0 0,-11 0,-22 0,-33 0.371,0 0.753,0 1.124,0 z"
       id="path4215" /><path
       style="fill:#996532"
       inkscape:connector-curvature="0"
       d="m 383.499,677.155 c 0,7 0,14 0,21 -0.371,0 -0.752,0 -1.124,0 0.742,-6.68 -1.482,-15.989 1.124,-21 z"
       id="path4217" /><path
       inkscape:connector-curvature="0"
       d="m 376.759,542.155 c 2.774,3.271 6.604,3.471 7.862,8 -15.646,-3.739 -19.038,-18.39 -20.218,-35 6.111,8.06 5.819,19.29 12.356,27 z"
       id="path4219" /><path
       style="fill:#2e0a14"
       inkscape:connector-curvature="0"
       d="m 380.129,751.155 c 2.561,1.391 0.416,6.96 1.123,10 -2.561,-1.39 -0.416,-6.96 -1.123,-10 z"
       id="path4221" /><path
       style="fill:#996532"
       inkscape:connector-curvature="0"
       d="m 377.882,708.155 c 2.606,5.011 0.382,14.32 1.123,21 -2.594,-3.689 -0.393,-11.649 -1.123,-17 0,-1.33 0,-2.67 0,-4 z"
       id="path4223" /><path
       style="fill:#996532"
       inkscape:connector-curvature="0"
       d="m 377.882,636.155 c 1.865,2.71 1.865,12.29 0,15 0,-5 0,-10 0,-15 z"
       id="path4225" /><path
       style="fill:#f7f2ef"
       inkscape:connector-curvature="0"
       d="m 377.882,708.155 c 0,1.33 0,2.67 0,4 -2.617,-9.34 -0.382,-23 -1.123,-34 2.617,8.011 0.382,20.33 1.123,30 z"
       id="path4227" /><path
       style="fill:#2e0a14"
       inkscape:connector-curvature="0"
       d="m 372.266,635.155 c -0.371,0 -0.752,0 -1.123,0 0,-3.67 0,-7.33 0,-11 2.572,1.71 0.416,7.63 1.123,11 z"
       id="path4229" /><path
       style="fill:#d6cccf"
       inkscape:connector-curvature="0"
       d="m 370.02,620.155 c 1.662,0.19 1.033,2.42 1.123,4 0,3.67 0,7.33 0,11 -2.595,-3.03 -0.393,-10.31 -1.123,-15 z"
       id="path4231" /><path
       inkscape:connector-curvature="0"
       d="m 373.39,220.155 c -2.774,-2.53 -3.965,-6.47 -6.739,-9 0,-0.33 0,-0.67 0,-1 -3.605,-7.46 -6.885,-15.21 -12.355,-21 -0.955,-2.82 -3.628,-4.1 -3.37,-8 -4.762,-6.76 -6.885,-15.87 -13.479,-21 -4.145,-8.31 -11.659,-13.62 -16.848,-21 -1.774,-3.12 -5.088,-10.1 -8.985,-8 1.909,6.64 3.639,13.43 3.37,22 -1.528,4.64 -3.729,8.68 -8.986,10 -1.494,0 -2.999,0 -4.493,0 -1.404,-3.09 -0.921,-7.84 -5.616,-8 -9.806,7.69 -2.404,25.73 -8.986,35 -4.852,8.02 -11.423,14.49 -15.725,23 -3.718,6.1 -5.291,14.55 -5.616,21 -4.032,-0.74 -4.65,-4.53 -5.616,-8 -19.297,1.49 -30.405,10.26 -47.175,14 -3.639,-1.43 -5.043,-4.85 -4.493,-10 0,-4.33 0,-8.67 0,-13 0.248,-23.12 6.47,-40.91 11.232,-60 1.314,0.16 0.943,1.82 1.123,3 -3.381,23.73 -15.703,50.69 -6.739,76 21.948,-13.12 60.103,-11.83 64.023,-41 -9.267,0.7 -1.416,-8.01 -3.37,-13 1.864,-3.7 1.864,-14.31 0,-18 0.258,-1.77 -1.134,-5.01 2.247,-4 8.413,6.46 -1.034,26.53 3.37,32 15.713,-16.51 -12.546,-45.47 5.616,-61 2.729,6.11 -3.538,14.9 0,22 9.918,-2.67 15.018,3.59 22.464,6 2.965,-16.13 -0.91,-33.5 -10.109,-42 4.448,-2.98 -0.416,-6.91 -1.124,-11 0.495,-1.45 0.989,0.1 2.247,0 5.212,16.69 20.577,24.35 30.327,37 0.517,0.37 1.044,0.75 1.561,1.13 3.291,3.06 5.38,9.36 8.548,8.87 6.155,11.91 15.028,30.61 23.587,44 4.964,7.77 9.525,11.69 10.109,23 z"
       id="path4233" /><path
       style="fill:#2e0a14"
       inkscape:connector-curvature="0"
       d="m 368.897,603.155 c 2.572,1.71 0.416,7.63 1.123,11 -2.572,-1.71 -0.416,-7.63 -1.123,-11 z"
       id="path4235" /><path
       style="fill:#2e0a14"
       inkscape:connector-curvature="0"
       d="m 365.527,592.155 c 3.617,-2.72 3.549,4.24 3.37,8 -2.64,-1.31 0.494,-7.77 -3.37,-8 z"
       id="path4237" /><path
       style="fill:#d6cccf"
       inkscape:connector-curvature="0"
       d="m 364.404,552.155 c 2.606,5.681 0.382,15.66 1.124,23 -2.607,-5.68 -0.383,-15.659 -1.124,-23 z"
       id="path4239" /><path
       style="fill:#2e0a14"
       inkscape:connector-curvature="0"
       d="m 354.295,189.155 c 5.47,5.79 8.75,13.54 12.355,21 -4.875,-6.33 -8.109,-14.12 -12.355,-21 z"
       id="path4241" /><path
       inkscape:connector-curvature="0"
       d="m 355.418,224.155 c 5.189,11.04 4.56,27.27 4.493,43 0.55,2.77 -0.573,12.17 -1.123,5 0,-3.67 0,-7.33 0,-11 -1.281,-11.19 -3.808,-21.28 -4.493,-33 0.191,-1.5 -0.404,-3.69 1.123,-4 z"
       id="path4243" /><path
       style="fill:#2e0a14"
       inkscape:connector-curvature="0"
       d="m 355.418,224.155 c -1.528,0.31 -0.933,2.5 -1.124,4 -2.201,-1.37 -0.606,-6.13 -2.246,-8 2.303,0.28 2.247,2.67 3.37,4 z"
       id="path4245" /><path
       style="fill:#2e0a14"
       inkscape:connector-curvature="0"
       d="m 350.925,231.155 c 2.595,3.36 0.393,10.98 1.124,16 -2.595,-3.36 -0.394,-10.98 -1.124,-16 z"
       id="path4247" /><path
       inkscape:connector-curvature="0"
       d="m 352.049,247.155 c -1.82,6.28 4.785,14.1 -2.247,16 0.797,-9.56 -5.942,-26.65 1.123,-32 0.73,5.02 -1.471,12.64 1.124,16 z"
       id="path4249" /><path
       inkscape:connector-curvature="0"
       d="m 344.186,207.155 c 5.347,-1.09 4.583,3.25 4.493,7 -3.257,-0.77 -5.459,-2.47 -4.493,-7 z"
       id="path4251" /><path
       style="fill:#2e0a14"
       inkscape:connector-curvature="0"
       d="m 337.447,160.155 c 6.593,5.13 8.716,14.24 13.479,21 -6.055,-5.61 -8.065,-14.82 -13.479,-21 z"
       id="path4253" /><path
       inkscape:connector-curvature="0"
       d="m 349.802,535.155 c -6.133,-4.199 -8.548,-11.72 -13.479,-17 7.526,-4.29 9.559,11.62 13.479,17 z"
       id="path4255" /><path
       style="fill:#2e0a14"
       inkscape:connector-curvature="0"
       d="m 341.94,257.155 c 3.853,-1.01 2.673,7.51 1.123,8 -0.651,-1.76 1.359,-5.88 -1.123,-6 0,-0.67 0,-1.33 0,-2 z"
       id="path4257" /><path
       inkscape:connector-curvature="0"
       d="m 343.063,265.155 c 0.887,3.46 -1.247,4.22 -2.247,6 -2.909,-2.98 -0.337,-9.59 1.124,-12 2.482,0.12 0.472,4.24 1.123,6 z"
       id="path4259" /><path
       style="fill:#2e0a14"
       inkscape:connector-curvature="0"
       d="m 339.693,153.155 c -3.167,0.49 -5.257,-5.81 -8.548,-8.87 3.404,2.47 6.661,5.06 8.548,8.87 z"
       id="path4261" /><path
       inkscape:connector-curvature="0"
       d="m 335.201,255.155 c -0.652,6.09 -0.326,13.05 -6.739,14 1.336,-5.48 2.268,-11.32 6.739,-14 z"
       id="path4263" /><path
       style="fill:#f7f2ef"
       inkscape:connector-curvature="0"
       d="m 334.077,575.155 c -1.134,34.32 -1.92,68.95 -4.493,102 0,-0.33 0,-0.67 0,-1 0.674,-34.4 1.314,-68.83 4.493,-101 z"
       id="path4265" /><path
       style="fill:#2e0a14"
       inkscape:connector-curvature="0"
       d="m 331.146,144.285 c -0.517,-0.38 -1.044,-0.76 -1.561,-1.13 0.561,0.28 1.078,0.67 1.561,1.13 z"
       id="path4267" /><path
       style="fill:#2e0a14"
       inkscape:connector-curvature="0"
       d="m 329.584,696.155 c 0,3.67 0,7.33 0,11 -2.572,-1.71 -0.416,-7.63 -1.123,-11 0.371,0 0.753,0 1.123,0 z"
       id="path4269" /><path
       style="fill:#996532"
       inkscape:connector-curvature="0"
       d="m 329.584,677.155 c 0,6.33 0,12.67 0,19 -0.371,0 -0.752,0 -1.123,0 0.741,-6.35 -1.483,-15.319 1.123,-20 0,0.33 0,0.67 0,1 z"
       id="path4271" /><path
       style="fill:#2e0a14"
       inkscape:connector-curvature="0"
       d="m 319.476,258.155 c 1.955,-3.95 5.695,-11.57 8.986,-11 -3.92,2.84 -5.448,7.82 -8.986,11 z"
       id="path4273" /><path
       style="fill:#996532"
       inkscape:connector-curvature="0"
       d="m 327.338,631.155 c 0,3.33 0,6.67 0,10 -0.371,0 -0.752,0 -1.123,0 0.707,-3.04 -1.438,-8.61 1.123,-10 z"
       id="path4275" /><path
       style="fill:#2e0a14"
       inkscape:connector-curvature="0"
       d="m 326.215,641.155 c 0.371,0 0.752,0 1.123,0 -0.73,4.351 1.46,11.301 -1.123,14 0,-4.67 0,-9.33 0,-14 z"
       id="path4277" /><path
       style="fill:#996532"
       inkscape:connector-curvature="0"
       d="m 326.215,665.155 c -0.719,3.69 1.449,9.96 -1.123,12 0.719,-3.699 -1.449,-9.96 1.123,-12 z"
       id="path4279" /><path
       inkscape:connector-curvature="0"
       d="m 328.461,247.155 c -1.988,6.23 -4.538,11.96 -10.109,15 -0.472,-2.09 0.775,-2.65 1.123,-4 3.539,-3.18 5.067,-8.16 8.986,-11 z"
       id="path4281" /><path
       style="fill:#2e0a14"
       inkscape:connector-curvature="0"
       d="m 325.092,699.155 c 0,7 0,14 0,21 -2.606,-5.01 -0.382,-14.319 -1.124,-21 0.371,0 0.753,0 1.124,0 z"
       id="path4283" /><path
       style="fill:#996532"
       inkscape:connector-curvature="0"
       d="m 325.092,688.155 c 0,3.67 0,7.33 0,11 -0.371,0 -0.753,0 -1.124,0 0.708,-3.37 -1.448,-9.29 1.124,-11 z"
       id="path4285" /><path
       inkscape:connector-curvature="0"
       d="m 305.997,545.155 c 9.087,0.03 19.027,7.641 21.341,17 -7.716,-5.13 -16.208,-9.57 -21.341,-17 z"
       id="path4287" /><path
       style="fill:#2e0a14"
       inkscape:connector-curvature="0"
       d="m 320.599,139.155 c -3.628,-1.77 -3.527,-6.86 -7.862,-8 -0.371,0 -0.752,0 -1.123,0 3.897,-2.1 7.21,4.88 8.985,8 z"
       id="path4289" /><path
       style="fill:#2e0a14"
       inkscape:connector-curvature="0"
       d="m 313.859,198.155 c 1.64,0.87 3.561,1.5 3.37,4 -1.044,-0.73 -1.707,-1.82 -2.246,-3 -2.404,1.2 -1.393,5.42 -6.739,4 0,1.67 0,3.33 0,5 -2.482,-0.12 -0.472,-4.24 -1.124,-6 4.774,0.91 5.65,-1.63 6.739,-4 z"
       id="path4291" /><path
       inkscape:connector-curvature="0"
       d="m 317.229,202.155 c -0.18,1.16 0.247,1.78 1.124,2 -0.348,1.36 -2.808,0.83 -4.493,1 0,4 0,8 0,12 -4.145,-0.97 -5.088,-4.8 -5.616,-9 0,-1.67 0,-3.33 0,-5 5.346,1.42 4.335,-2.8 6.739,-4 0.539,1.18 1.202,2.27 2.246,3 z"
       id="path4293" /><path
       inkscape:connector-curvature="0"
       d="m 307.12,566.155 c 8.042,0.841 10.412,6.73 13.479,12 -6.785,-1.96 -12.378,-4.98 -13.479,-12 z"
       id="path4295" /><path
       style="fill:#2e0a14"
       inkscape:connector-curvature="0"
       d="m 314.983,153.155 c 0.168,6.15 -2.741,9.56 -8.986,10 5.257,-1.32 7.458,-5.36 8.986,-10 z"
       id="path4297" /><path
       inkscape:connector-curvature="0"
       d="m 325.092,568.155 c -9.435,-1.27 -12.535,-8.18 -19.095,-12 9.233,-2.54 15.882,5.85 19.095,12 z"
       id="path4299" /><path
       inkscape:connector-curvature="0"
       d="m 308.244,576.155 c 4.515,2.311 8.143,5.42 8.985,11 -5.627,-0.75 -13.703,-7.42 -8.985,-11 z"
       id="path4301" /><path
       inkscape:connector-curvature="0"
       d="m 307.12,591.155 c 11.581,3.261 10.637,27.511 3.37,32 1.707,-13.58 -0.887,-20.59 -3.37,-32 z"
       id="path4303" /><path
       style="fill:#fff197"
       inkscape:connector-curvature="0"
       d="m 298.135,117.155 c 9.199,8.5 13.074,25.87 10.109,42 -7.447,-2.41 -12.546,-8.67 -22.464,-6 -3.538,-7.1 2.729,-15.89 0,-22 -18.162,15.53 10.098,44.49 -5.616,61 -4.403,-5.47 5.043,-25.54 -3.37,-32 -3.381,-1.01 -1.988,2.23 -2.247,4 0,6 0,12 0,18 1.954,4.99 -5.897,13.7 3.37,13 -3.92,29.17 -42.075,27.88 -64.023,41 -8.963,-25.31 3.358,-52.27 6.739,-76 1.528,-0.31 0.932,-2.5 1.123,-4 7.795,-20.4 -6.256,-52.04 10.109,-67 17.848,-10.93 43.794,-0.85 56.161,8 2.505,3.43 6.402,5.63 8.985,9 0.708,4.09 5.572,8.02 1.124,11 z m -26.957,70 c -1.494,0 -2.999,0 -4.493,0 0.573,5.82 -1.258,13.79 1.123,18 6.313,-1.38 2.168,-12.07 3.37,-18 z m -11.232,27 c 1.37,-3.48 6.177,-7.98 3.37,-12 -4.156,-0.7 -4.965,1.58 -4.493,5 -0.651,2.8 -11.692,1.52 -6.739,6 1.448,1.38 4.874,0.99 7.862,1 z"
       id="path4305" /><path
       style="fill:#2e0a14"
       inkscape:connector-curvature="0"
       d="m 304.874,223.155 c 1.864,1.4 1.864,9.6 0,11 0,-3.67 0,-7.33 0,-11 z"
       id="path4307" /><path
       inkscape:connector-curvature="0"
       d="m 304.874,234.155 c 0.022,4.35 0.371,9 -1.124,12 -3.358,-6.35 1.112,-19.65 -2.246,-26 0,-2.67 0,-5.33 0,-8 0.618,-1.45 -1.314,-5.17 1.123,-5 -0.101,1.42 -0.191,2.83 1.123,3 1.618,3.22 1.067,8.39 1.124,13 0,3.67 0,7.33 0,11 z"
       id="path4309" /><path
       style="fill:#2e0a14"
       inkscape:connector-curvature="0"
       d="m 302.627,207.155 c -2.438,-0.17 -0.505,3.55 -1.123,5 -2.516,-0.43 -0.46,-4.93 -1.124,-7 3.156,-0.15 3.235,2.45 3.37,5 -1.313,-0.17 -1.224,-1.58 -1.123,-3 z"
       id="path4311" /><path
       style="fill:#2e0a14"
       inkscape:connector-curvature="0"
       d="m 301.504,220.155 c 3.358,6.35 -1.112,19.65 2.246,26 -4.661,-1.2 -1.167,-18.28 -2.246,-26 z"
       id="path4313" /><path
       style="fill:#2e0a14"
       inkscape:connector-curvature="0"
       d="m 299.258,106.155 c -1.258,0.1 -1.752,-1.45 -2.247,0 -2.583,-3.37 -6.48,-5.57 -8.985,-9 2.415,-1.58 -4.145,-3.58 -4.493,-6 6.155,4.19 10.659,9.85 15.725,15 z"
       id="path4315" /><path
       inkscape:connector-curvature="0"
       d="m 293.642,217.155 c 1.168,5.65 2.359,16.54 0,22 -3.707,-2.89 -3.707,-19.12 0,-22 z"
       id="path4317" /><path
       style="fill:#2e0a14"
       inkscape:connector-curvature="0"
       d="m 288.026,230.155 c 0.314,1.61 -1.067,1.72 -1.124,3 -1.471,-0.35 -1.763,-1.76 -3.369,-2 -0.54,-3.15 1.595,-3.91 2.246,-6 1.382,0.44 2.303,1.28 2.247,3 -1.225,-0.25 -0.764,-1.99 -2.247,-2 -0.483,2.22 -2.583,5.42 1.123,6 -0.179,-1.16 0.248,-1.78 1.124,-2 z"
       id="path4319" /><path
       inkscape:connector-curvature="0"
       d="m 288.026,228.155 c 0,0.67 0,1.33 0,2 -0.876,0.22 -1.303,0.84 -1.124,2 -3.707,-0.58 -1.606,-3.78 -1.123,-6 1.483,0.01 1.022,1.75 2.247,2 z"
       id="path4321" /><path
       style="fill:#d6cccf"
       inkscape:connector-curvature="0"
       d="m 289.149,449.155 c -4.751,3.83 -4.212,-10.85 -2.247,-13 1.214,3.92 -2.605,12.32 2.247,13 z"
       id="path4323" /><path
       style="fill:#996532"
       inkscape:connector-curvature="0"
       d="m 286.902,680.155 c 1.865,1.721 1.865,10.28 0,12 0,-4 0,-8 0,-12 z"
       id="path4325" /><path
       style="fill:#f7f2ef"
       inkscape:connector-curvature="0"
       d="m 286.902,680.155 c 0,4 0,8 0,12 -0.73,4.69 1.472,11.971 -1.123,15 0,-14.33 0,-28.67 0,-43 2.595,3.36 0.393,10.98 1.123,16 z"
       id="path4327" /><path
       style="fill:#2e0a14"
       inkscape:connector-curvature="0"
       d="m 286.902,190.155 c -3.459,9.25 -10.007,15.76 -15.725,23 4.302,-8.51 10.873,-14.98 15.725,-23 z"
       id="path4329" /><path
       style="fill:#2e0a14"
       inkscape:connector-curvature="0"
       d="m 274.547,164.155 c 1.864,3.69 1.864,14.3 0,18 0,-6 0,-12 0,-18 z"
       id="path4331" /><path
       inkscape:connector-curvature="0"
       d="m 266.685,187.155 c 1.494,0 2.999,0 4.493,0 -1.202,5.93 2.943,16.62 -3.37,18 -2.381,-4.21 -0.55,-12.18 -1.123,-18 z"
       id="path4333" /><path
       inkscape:connector-curvature="0"
       d="m 263.315,202.155 c 2.808,4.02 -2,8.52 -3.37,12 -2.988,-0.01 -6.414,0.38 -7.863,-1 -2.033,-5.81 8.413,-0.51 6.739,-6 -0.47,-3.42 0.338,-5.7 4.494,-5 z"
       id="path4335" /><path
       style="fill:#2e0a14"
       inkscape:connector-curvature="0"
       d="m 258.822,207.155 c 1.674,5.49 -8.772,0.19 -6.739,6 -4.953,-4.48 6.088,-3.2 6.739,-6 z"
       id="path4337" /><path
       style="fill:#2e0a14"
       inkscape:connector-curvature="0"
       d="m 258.822,269.155 c -0.955,-0.18 -1.056,0.39 -1.123,1 -1,-0.44 -2.011,-0.88 -2.247,-2 0.955,-0.18 1.056,0.39 1.124,1 0.966,-3 -13.299,-15.53 -12.355,-12 -2.561,-1.39 -4.347,-3.46 -6.739,-5 0,-0.33 0,-0.67 0,-1 10.164,3.28 15.399,10.96 21.34,18 z"
       id="path4339" /><path
       inkscape:connector-curvature="0"
       d="m 244.221,257.155 c -0.943,-3.53 13.321,9 12.355,12 -0.067,-0.61 -0.168,-1.18 -1.124,-1 -6.39,-1.31 -6.334,-8.36 -11.231,-11 z"
       id="path4341" /><path
       style="fill:#996532"
       inkscape:connector-curvature="0"
       d="m 253.207,349.155 c 1.864,5.35 1.864,17.65 0,23 0,-7.67 0,-15.33 0,-23 z"
       id="path4343" /><path
       inkscape:connector-curvature="0"
       d="m 236.358,268.155 c 6.941,5.48 11.389,13.2 15.725,21 -7.391,-4.43 -15.264,-13.73 -15.725,-21 z"
       id="path4345" /><path
       style="fill:#f7f2ef"
       inkscape:connector-curvature="0"
       d="m 243.098,416.155 c -1.18,5.61 -1.326,12.15 -1.124,19 -1.954,-4.44 -2.122,-15.87 1.124,-19 z"
       id="path4347" /><path
       style="fill:#996532"
       inkscape:connector-curvature="0"
       d="m 230.742,251.155 c -8.233,0 -16.478,0 -24.71,0 5.638,-1.66 19.072,-1.66 24.71,0 z"
       id="path4349" /><path
       style="fill:#2e0a14"
       inkscape:connector-curvature="0"
       d="m 221.756,85.155 c -4.122,0 -8.233,0 -12.355,0 1.573,-1.66 10.783,-1.66 12.355,0 z"
       id="path4351" /><path
       style="fill:#2e0a14"
       inkscape:connector-curvature="0"
       d="m 221.756,156.155 c -0.191,1.5 0.405,3.69 -1.123,4 -0.18,-1.18 0.191,-2.84 -1.123,-3 0.663,-2.07 -1.393,-6.57 1.123,-7 0.652,1.76 -1.359,5.88 1.123,6 z"
       id="path4353" /><path
       style="fill:#2e0a14"
       inkscape:connector-curvature="0"
       d="m 219.51,124.155 c 2.572,1.71 0.416,7.63 1.123,11 -2.572,-1.71 -0.415,-7.63 -1.123,-11 z"
       id="path4355" /><path
       style="fill:#2e0a14"
       inkscape:connector-curvature="0"
       d="m 212.771,248.155 c -3.74,0 -7.492,0 -11.232,0 1.213,-1.66 10.019,-1.66 11.232,0 z"
       id="path4357" /><path
       style="fill:#2e0a14"
       inkscape:connector-curvature="0"
       d="m 208.278,217.155 c 0,4.33 0,8.67 0,13 -1.864,-2.05 -1.864,-10.95 0,-13 z"
       id="path4359" /><path
       style="fill:#2e0a14"
       inkscape:connector-curvature="0"
       d="m 193.676,113.155 c 7.447,1.63 17.881,9.25 12.355,16 3.449,-8.57 -6.974,-12.09 -12.355,-16 z"
       id="path4361" /><path
       inkscape:connector-curvature="0"
       d="m 193.676,113.155 c 5.38,3.91 15.804,7.43 12.355,16 0,1.67 0,3.33 0,5 -6.627,0.9 -1.157,-8.97 -6.739,-9 0,-0.33 0,-0.67 0,-1 4.223,-2.15 1.628,-7.45 -3.37,-7 -4.38,0.23 -5.83,-2.15 -8.986,-3 0.956,-1.92 4.932,-2.71 6.74,-1 z"
       id="path4363" /><path
       style="fill:#2e0a14"
       inkscape:connector-curvature="0"
       d="m 199.292,125.155 c 5.582,0.03 0.112,9.9 6.739,9 -0.348,1.36 -2.808,0.83 -4.493,1 0.462,-4.41 -0.303,-7.73 -2.246,-10 z"
       id="path4365" /><path
       style="fill:#2e0a14"
       inkscape:connector-curvature="0"
       d="m 200.416,122.155 c 0.472,-3.42 -3.37,-3.01 -4.493,-5 4.998,-0.45 7.593,4.85 3.37,7 -0.18,-1.16 0.247,-1.78 1.123,-2 z"
       id="path4367" /><path
       inkscape:connector-curvature="0"
       d="m 174.582,141.155 c -2.404,-0.83 -2.887,-2.62 -6.414,-2.29 -0.213,-0.34 -0.281,-0.52 -0.18,-0.46 -1.438,-0.96 -5.706,4.02 -5.055,5.25 0.921,1.73 1.483,-0.53 2.179,-0.41 2.269,0.37 2.156,3.8 -0.73,3.61 -0.168,-0.01 0.708,1.6 1.022,1.75 0.674,0.32 1.011,-0.18 1.595,-0.21 1.202,-0.05 2.449,-0.29 3.65,-0.39 1.943,-0.15 5.055,-0.21 5.055,-2.85 0.147,-1.79 -1.369,-2.11 -1.122,-4 z m 3.37,-1 c 3.74,0.67 6.099,2.57 5.616,7 -3.605,1.12 -6.661,2.74 -11.232,3 -6.223,3.48 -12.928,3.33 -16.848,-2 0,-1.33 0,-2.67 0,-4 1.842,-4.7 5.897,-7.42 8.986,-11 -1.146,-4.35 2.325,-4.6 3.37,-7 3.617,-4.27 -4.179,-6.91 -4.493,-11 4.605,-0.43 7.2,0.93 10.109,2 4.156,2.64 8.795,4.83 13.479,7 1.124,0 2.247,0 3.37,0 -0.82,3.06 1.943,2.94 1.124,6 0,0.55 -0.067,0.99 -0.169,1.34 0,0.01 0,0.01 -0.011,0.02 -0.393,0.47 -1.213,0.57 -2.066,0.64 -4.055,-3.06 -7.02,-7.08 -12.355,-9 -3.841,1.58 -5.885,4.76 -7.862,8 -1.509,7.01 6.713,5.35 8.982,9 z"
       id="path4369" /><path
       style="fill:#2e0a14"
       inkscape:connector-curvature="0"
       d="m 191.43,130.155 c 0.157,0.63 0.079,1.05 -0.169,1.34 0.102,-0.35 0.169,-0.79 0.169,-1.34 z"
       id="path4371" /><path
       inkscape:connector-curvature="0"
       d="m 183.567,156.155 c 4.954,0.59 10.199,0.92 11.232,5 -4.077,2.11 -13.096,1.36 -11.232,-5 z"
       id="path4373" /><path
       style="fill:#2e0a14"
       inkscape:connector-curvature="0"
       d="m 191.25,131.515 c -1.426,4.5 -11.176,-6.4 -14.422,-8.36 5.335,1.92 8.301,5.94 12.355,9 0.854,-0.07 1.674,-0.17 2.067,-0.64 z"
       id="path4375" /><path
       style="fill:#2e0a14"
       inkscape:connector-curvature="0"
       d="m 186.937,240.155 c 0.09,3.74 -4.403,3.41 -7.862,4 1.381,-1.43 3.864,-1.89 6.739,-2 0.213,-0.68 0.427,-1.6 0.618,-2.64 0.213,0.19 0.37,0.4 0.505,0.64 z"
       id="path4377" /><path
       style="fill:#2e0a14"
       inkscape:connector-curvature="0"
       d="m 173.458,117.155 c 5.425,1.51 10.21,3.57 13.479,7 -4.684,-2.17 -9.323,-4.36 -13.479,-7 z"
       id="path4379" /><path
       style="fill:#2e0a14"
       inkscape:connector-curvature="0"
       d="m 191.43,89.155 c -8.132,7.76 -17.298,14.59 -26.957,21 8.649,-7.3 17.084,-14.79 26.957,-21 z"
       id="path4381" /><path
       style="fill:#ffffff"
       inkscape:connector-curvature="0"
       d="m 168.168,138.865 c 3.527,-0.33 4.01,1.46 6.414,2.29 -0.247,1.89 1.269,2.21 1.123,4 -1.494,2.11 -1.426,2.73 -4.493,2 0.809,-5.06 -1.64,-6.26 -4.493,-8.06 0.528,-0.11 1.011,-0.19 1.449,-0.23 z"
       id="path4383" /><path
       style="fill:#6e2405"
       inkscape:connector-curvature="0"
       d="m 175.705,145.155 c 0,2.64 -3.111,2.7 -5.055,2.85 -1.202,0.1 -2.448,0.34 -3.65,0.39 -0.584,0.03 -0.921,0.53 -1.595,0.21 -0.314,-0.15 -1.19,-1.76 -1.022,-1.75 2.886,0.19 2.999,-3.24 0.73,-3.61 -0.696,-0.12 -1.258,2.14 -2.179,0.41 -0.651,-1.23 3.617,-6.21 5.055,-5.25 -0.101,-0.06 -0.034,0.12 0.18,0.46 -0.438,0.04 -0.921,0.12 -1.449,0.23 2.853,1.8 5.302,3 4.493,8.06 3.066,0.73 2.998,0.11 4.492,-2 z"
       id="path4385" /><path
       style="fill:#2e0a14"
       inkscape:connector-curvature="0"
       d="m 163.35,115.155 c 0.314,4.09 8.11,6.73 4.493,11 1.325,-5.55 -6.953,-7.77 -4.493,-11 z"
       id="path4387" /><path
       style="fill:#2e0a14"
       inkscape:connector-curvature="0"
       d="m 155.487,148.155 c 3.92,5.33 10.625,5.48 16.848,2 -4.211,4.76 -15.062,5.11 -16.848,-2 z"
       id="path4389" /><path
       style="fill:#2e0a14"
       inkscape:connector-curvature="0"
       d="m 164.473,133.155 c -3.089,3.58 -7.144,6.3 -8.986,11 0.292,-6.07 5.325,-7.92 8.986,-11 z"
       id="path4391" /><path
       style="fill:#2e0a14"
       inkscape:connector-curvature="0"
       d="m 147.625,140.155 c -1.528,4.3 -5.661,6.29 -10.109,8 3.19,-2.83 7.582,-4.59 10.109,-8 z"
       id="path4393" /><path
       style="fill:#2e0a14"
       inkscape:connector-curvature="0"
       d="m 122.914,251.155 c 1.921,-2.29 8.57,-0.37 12.355,-1 -1.92,2.29 -8.569,0.37 -12.355,1 z"
       id="path4395" /><path
       style="fill:#2e0a14"
       inkscape:connector-curvature="0"
       d="m 136.393,148.155 c -3.325,4.04 -8.693,6.26 -14.602,8 4.763,-2.76 9.626,-5.43 14.602,-8 z"
       id="path4397" /><path
       style="fill:#2e0a14"
       inkscape:connector-curvature="0"
       d="m 115.052,257.155 c 4.122,0 8.233,0 12.355,0 -1.573,1.66 -10.782,1.66 -12.355,0 z"
       id="path4399" /><path
       inkscape:connector-curvature="0"
       d="m 112.806,215.155 c -1.606,2.88 -6.088,2.02 -7.863,0 0.876,-3.75 5.436,-0.64 7.863,0 z"
       id="path4401" /><path
       style="fill:#2e0a14"
       inkscape:connector-curvature="0"
       d="m 89.218,238.155 c 5.054,2.5 8.828,6.14 14.602,8 -7.043,-0.73 -10.648,-4.52 -14.602,-8 z"
       id="path4403" /><path
       style="fill:#2e0a14"
       inkscape:connector-curvature="0"
       d="m 103.82,165.155 c -5.043,3.85 -11.063,6.82 -17.971,9 5.649,-3.31 11.771,-6.19 17.971,-9 z"
       id="path4405" /><path
       style="fill:#2e0a14"
       inkscape:connector-curvature="0"
       d="m 82.479,214.155 c 1.37,-4.04 6.728,0.74 5.616,5 -3.212,0.2 -6.133,0.12 -5.616,-3 1.763,0.43 0.955,3.15 4.493,2 0.516,-3.13 -0.977,-4.46 -4.493,-4 z"
       id="path4407" /><path
       style="fill:#2e0a14"
       inkscape:connector-curvature="0"
       d="m 87.309,182.685 c 3.179,5.14 2.763,9.29 0.741,12.88 -0.292,-4.26 0.932,-9.86 -0.741,-12.88 z"
       id="path4409" /><path
       style="fill:#2e0a14"
       inkscape:connector-curvature="0"
       d="m 88.05,195.565 c 0.011,0.2 0.022,0.4 0.045,0.59 -0.225,0.13 -0.438,0.27 -0.663,0.41 0.225,-0.33 0.427,-0.66 0.618,-1 z"
       id="path4411" /><path
       inkscape:connector-curvature="0"
       d="m 82.479,214.155 c 3.516,-0.46 5.009,0.87 4.493,4 -3.538,1.15 -2.729,-1.57 -4.493,-2 0,-0.67 0,-1.33 0,-2 z"
       id="path4413" /><path
       style="fill:#2e0a14"
       inkscape:connector-curvature="0"
       d="m 81.355,177.155 c 1.584,5.25 5.088,8.81 5.616,15 -2.516,2.76 -5.347,5.24 -11.232,5 -1.292,-2.18 -0.225,-6.47 -3.37,-7 -6.896,-1.8 -3.605,5.46 -8.986,5 -3.481,-10.76 5.943,-17.8 17.972,-18 z"
       id="path4415" /><path
       style="fill:#2e0a14"
       inkscape:connector-curvature="0"
       d="m 73.493,211.155 c 3.167,-6.18 7.975,-10.9 13.939,-14.59 -3.684,5.59 -11.03,9.85 -13.939,14.59 z"
       id="path4417" /><path
       style="fill:#2e0a14"
       inkscape:connector-curvature="0"
       d="m 75.74,224.155 c 3.594,2.47 4.841,7.03 7.862,10 -3.998,-2.11 -5.594,-6.36 -7.862,-10 z"
       id="path4419" /><path
       style="fill:#2e0a14"
       inkscape:connector-curvature="0"
       d="m 65.631,196.155 c 4.313,1.16 6.065,4.6 6.739,9 -5.302,-0.28 -5.762,-4.87 -6.739,-9 z"
       id="path4421" /></g><g
     id="g4423" /></g></svg>